<svg width="227" height="177" viewBox="0 0 227 177" fill="none" xmlns="http://www.w3.org/2000/svg">
<rect width="227" height="177" fill="white"/>
<path d="M113.582 101.834L176.26 139.864C144.254 153.463 92.1607 153.937 58.4602 141.989C33.1225 134.34 21.6198 118.815 22.0096 110.117C23.3427 80.3689 77.4926 68.0449 113.582 68.0449V101.834Z" fill="#FED656"/>
<path d="M203.375 99.9175C215.378 123.291 179.816 138.164 176.704 139.439L114.026 101.617V68.1553C121.146 68.1553 182.927 68.1553 203.375 99.9175Z" fill="#4D4B4B"/>
<path d="M33.5667 130.09C35.2552 131.324 42.6573 137.145 52.6813 140.714C67.7952 147.088 91.7995 151.338 112.692 151.338C126.016 151.338 142.825 149.551 155.811 146.663C166.924 144.114 176.259 140.289 176.259 140.289L174.481 159.837C174.481 159.837 151.81 169.949 123.361 170.886C97.5783 171.736 64.6692 167.912 45.1244 155.588C36.3666 150.065 28.668 144.613 25.1208 133.914C23.5708 129.24 22.4536 116.066 22.4536 116.066C22.4536 116.066 26.0098 124.565 33.5667 130.09Z" fill="#FFC200"/>
<path d="M176.836 139.798C176.836 139.798 185.594 136.889 193.151 130.94C197.172 127.774 199.483 125.343 201.153 123.29C204.264 119.466 205.153 116.066 205.153 116.066C205.153 116.066 204.682 128.39 202.486 134.764C200.291 141.139 194.159 147.352 190.929 150.063C185.289 154.796 175.058 159.346 175.058 159.346L176.836 139.798Z" fill="#212121"/>
<path d="M127.878 69.5549C129.226 56.1278 140.396 54.3376 141.36 49.4143C142.132 45.4685 141.809 44.9386 140.461 42.2532C138.554 38.4554 135.068 31.9591 135.068 31.9591C135.068 31.9591 147.484 35.5003 149.449 42.2532C150.085 44.4421 150.347 48.0716 150.347 48.0716C150.347 48.0716 156.639 42.7007 155.74 32.8542C155.258 27.5687 151.246 28.8261 151.696 19.8747C151.92 15.399 165.627 6 165.627 6C165.627 6 160.234 15.8465 161.133 21.2174C162.031 26.5882 173.497 32.4066 174.614 43.1483C174.987 46.7289 170.7 53.2835 172.817 54.3376C175.513 55.6803 178.885 49.0966 179.558 44.491C179.965 41.702 179.558 37.3299 179.558 37.3299C179.558 37.3299 181.278 40.0837 182.254 42.2532C184.192 46.5598 181.117 48.861 182.254 53.4424C183.083 56.7848 185.893 58.0561 185.849 61.4987C185.78 66.8257 177.164 69.1593 176.861 74.4782C176.707 77.1873 178.659 79.4015 178.659 79.4015C178.659 79.4015 185.189 73.4766 186.748 68.2122C187.988 64.021 185.355 59.0924 188.096 55.6803C189.192 54.3154 192.59 54.3376 192.59 54.3376C192.59 54.3376 190.143 56.0834 189.893 57.4706C189.361 60.4306 192.399 61.3794 193.488 64.1841C195.736 69.9731 193.898 74.0202 190.792 79.4015C187.364 85.3426 176.861 90.1432 176.861 90.1432L138.214 86.115C138.214 86.115 126.8 80.2966 127.878 69.5549Z" fill="#E46636"/>
<path d="M138.527 80.5436C139.525 72.4592 145.643 71.6508 146.357 68.6865C146.928 66.3107 146.689 65.9917 145.691 64.3748C144.28 62.0882 141.699 58.1768 141.699 58.1768C141.699 58.1768 150.89 60.3089 152.345 64.3748C152.816 65.6927 153.01 67.8781 153.01 67.8781C153.01 67.8781 157.668 64.6443 157.003 58.7157C156.645 55.5333 153.676 56.2904 154.008 50.9008C154.175 48.206 164.321 42.5469 164.321 42.5469C164.321 42.5469 160.329 48.4754 160.995 51.7092C161.66 54.943 170.148 58.4462 170.975 64.9138C171.251 67.0696 168.078 71.0162 169.644 71.6508C171.64 72.4592 174.137 68.4952 174.635 65.7222C174.936 64.043 174.635 61.4105 174.635 61.4105C174.635 61.4105 175.908 63.0686 176.631 64.3748C178.065 66.9678 177.752 68.7827 176.631 70.1398C175.302 71.748 174.002 73.0427 173.969 75.1155C173.919 78.3229 172.862 80.5749 172.638 83.7774C172.524 85.4085 173.969 86.7417 173.969 86.7417H146.357C146.357 86.7417 137.728 87.0112 138.527 80.5436Z" fill="#EBAB39"/>
<rect x="141.142" y="101.192" width="2.66715" height="11.899" fill="#58381E"/>
<rect x="152.7" y="95.2427" width="3.5562" height="11.899" fill="#58381E"/>
<path d="M148.187 63.6115C148.187 63.6115 151.399 61.5266 152.717 59.5367C154.415 56.9713 154.729 51.8965 154.729 51.8965C154.729 51.8965 155.023 55.3957 155.736 57.4993C156.535 59.8569 159.762 63.1022 159.762 63.1022C159.762 63.1022 159.311 62.8209 158.755 63.1022C158.052 63.458 159.038 64.6302 158.252 64.6302C157.749 64.6302 156.239 62.5928 156.239 62.5928C156.239 62.5928 156.083 63.6483 156.239 64.6302C156.528 66.4424 158.252 66.1583 159.259 68.1957C160.768 70.7424 161.272 70.2331 162.278 71.7611C162.605 72.2576 162.781 73.2892 162.781 73.2892C162.781 73.2892 161.978 72.2181 161.272 72.2705C160.833 72.3029 160.699 72.7067 160.265 72.7798C159.398 72.926 158.252 71.7611 158.252 71.7611C158.252 71.7611 159.067 73.0952 159.762 73.7985C160.457 74.5018 161.169 75.0528 161.775 75.8359C162.427 76.6793 163.788 79.9107 163.788 79.9107C163.788 79.9107 162.926 79.9675 161.775 78.892C161.457 78.5955 160.111 78.5688 159.762 78.3826C159.267 78.1194 159.256 77.2061 158.755 77.3639C158.336 77.4962 158.013 77.0081 157.749 77.3639C157.395 77.8413 158.252 78.3826 158.252 78.3826C158.252 78.3826 158.66 79.3466 160.265 80.9294C161.084 81.7369 163.197 82.7731 164.291 83.4761C166.327 84.7847 167.814 86.5322 167.814 86.5322L165.628 86.1393C165.628 86.1393 164.327 86.6059 163.788 86.5322C163.139 86.4435 162.863 85.8111 162.278 85.5135C161.497 85.1165 160.768 85.0042 160.768 85.0042C160.768 85.0042 162.347 87.1459 163.284 88.5696C163.659 89.1378 164.45 89.4311 165.297 90.0977C166.728 91.2238 167.31 93.1538 167.31 93.1538C167.31 93.1538 165.801 92.6444 164.794 93.1538C164.267 93.4206 163.844 91.9464 163.284 92.1351C162.493 92.4019 162.781 93.6631 162.781 93.6631C162.781 93.6631 164.291 97.2286 165.297 98.7566C166.573 100.694 160.265 95.7005 160.265 95.7005C160.265 95.7005 160.265 99.266 160.768 101.303C160.632 103.308 159.726 104.228 159.259 103.341C158.381 101.676 157.429 100.57 156.742 99.266C156.198 98.2327 156.934 96.5103 156.239 95.1912C156.239 95.1912 156.239 97.4832 155.736 97.2286C154.729 96.7192 154.226 95.7005 154.226 95.7005C154.226 95.7005 154.057 96.4813 153.723 97.2286C153.609 97.4829 153.22 99.266 152.213 99.266C151.943 100.077 151.974 100.903 151.71 101.303C151.222 102.043 150.909 100.888 150.704 101.303C150.254 102.213 150.671 102.613 150.2 103.341C149.616 104.244 149.194 103.341 149.194 103.341V99.266C149.194 99.266 147.629 100.024 146.678 99.7753C145.992 99.5959 145.671 98.2473 145.671 98.2473L144.162 100.794C144.162 100.794 143.091 100.156 142.652 99.266C142.4 98.7566 143.387 96.7443 145.168 94.6818C145.564 94.2229 146.773 94.1048 147.181 93.6631C147.656 93.1488 147.747 92.0711 148.187 91.6257C149.43 90.3677 150.704 87.5509 150.704 87.5509C150.704 87.5509 149.53 88.7987 148.691 89.5883C148.505 89.7634 148.518 88.8127 148.187 89.079C147.879 89.3279 147.502 90.788 147.181 91.1164C146.938 91.3643 146.437 89.5976 146.242 89.8908C145.903 90.4008 145.671 90.9792 145.671 91.6257C145.671 91.9268 145.333 92.4243 144.665 93.1538C144.247 93.6093 144.59 91.7062 144.162 92.1351C143.407 92.8901 142.944 93.8111 142.652 93.6631C141.645 93.1538 141.142 93.6631 141.142 93.6631C141.142 93.6631 142.149 88.0603 144.162 86.5322C145.645 85.4063 147.684 84.4948 147.684 84.4948C147.684 84.4948 148.47 83.0783 147.684 83.4761C142.652 86.0229 142.149 85.0042 142.149 85.0042C142.149 85.0042 144.587 81.5582 146.174 80.42C147.609 79.3917 149.328 79.9274 150.2 78.3826C150.698 77.502 150.43 76.5391 150.43 76.5391C150.43 76.5391 149.974 76.7596 149.194 76.8546C148.912 76.8889 148.112 76.4478 147.81 76.5391C147.602 76.6024 147.391 77.3171 147.181 77.3992C146.701 77.5871 146.228 77.1745 145.804 77.3992C144.862 77.8984 144.162 78.3826 144.162 78.3826C144.162 78.3826 144.962 76.0372 145.671 75.3266C146.076 74.9215 148.187 75.3266 149.697 73.7985C150.704 72.7798 150.888 72.4837 151.207 71.2518C151.406 70.4821 151.207 69.7237 151.207 69.7237C151.207 69.7237 150.2 71.7611 147.684 71.7611C146.489 71.7611 146.678 70.2331 146.678 70.2331C146.678 70.2331 147.73 69.4194 149.194 68.1957C150.632 66.9934 151.971 65.8968 152.717 65.1396C153.072 64.7786 152.213 64.1209 152.213 64.1209C152.213 64.1209 151.568 63.4483 151.213 63.4158C151.045 63.4003 150.874 64.1248 150.704 64.1209C150.359 64.113 150.015 63.5884 149.697 63.6115C148.849 63.6734 148.187 63.6115 148.187 63.6115Z" fill="#1F4405"/>
<rect x="174.037" y="95.2427" width="3.5562" height="11.899" fill="#58381E"/>
<path d="M169.524 63.6115C169.524 63.6115 172.736 61.5266 174.053 59.5367C175.752 56.9713 176.066 51.8965 176.066 51.8965C176.066 51.8965 176.36 55.3957 177.073 57.4993C177.872 59.8569 181.099 63.1022 181.099 63.1022C181.099 63.1022 180.648 62.8209 180.092 63.1022C179.389 63.458 180.375 64.6302 179.589 64.6302C179.086 64.6302 177.576 62.5928 177.576 62.5928C177.576 62.5928 177.42 63.6483 177.576 64.6302C177.865 66.4424 179.589 66.1583 180.595 68.1957C182.105 70.7424 182.608 70.2331 183.615 71.7611C183.942 72.2576 184.118 73.2892 184.118 73.2892C184.118 73.2892 183.315 72.2181 182.608 72.2705C182.17 72.3029 182.035 72.7067 181.602 72.7798C180.735 72.926 179.589 71.7611 179.589 71.7611C179.589 71.7611 180.404 73.0952 181.099 73.7985C181.794 74.5018 182.506 75.0528 183.112 75.8359C183.764 76.6793 185.125 79.9107 185.125 79.9107C185.125 79.9107 184.263 79.9675 183.112 78.892C182.794 78.5955 181.448 78.5688 181.099 78.3826C180.604 78.1194 180.593 77.2061 180.092 77.3639C179.673 77.4962 179.349 77.0081 179.086 77.3639C178.732 77.8413 179.589 78.3826 179.589 78.3826C179.589 78.3826 179.997 79.3466 181.602 80.9294C182.421 81.7369 184.534 82.7731 185.628 83.4761C187.664 84.7847 189.151 86.5322 189.151 86.5322L186.965 86.1393C186.965 86.1393 185.664 86.6059 185.125 86.5322C184.475 86.4435 184.2 85.8111 183.615 85.5135C182.834 85.1165 182.105 85.0042 182.105 85.0042C182.105 85.0042 183.684 87.1459 184.621 88.5696C184.996 89.1378 185.787 89.4311 186.634 90.0977C188.065 91.2238 188.647 93.1538 188.647 93.1538C188.647 93.1538 187.138 92.6444 186.131 93.1538C185.604 93.4206 185.181 91.9464 184.621 92.1351C183.83 92.4019 184.118 93.6631 184.118 93.6631C184.118 93.6631 185.628 97.2286 186.634 98.7566C187.91 100.694 181.602 95.7005 181.602 95.7005C181.602 95.7005 181.602 99.266 182.105 101.303C181.969 103.308 181.063 104.228 180.595 103.341C179.718 101.676 178.766 100.57 178.079 99.266C177.535 98.2327 178.271 96.5103 177.576 95.1912C177.576 95.1912 177.576 97.4832 177.073 97.2286C176.066 96.7192 175.563 95.7005 175.563 95.7005C175.563 95.7005 175.394 96.4813 175.06 97.2286C174.946 97.4829 174.557 99.266 173.55 99.266C173.28 100.077 173.311 100.903 173.047 101.303C172.559 102.043 172.246 100.888 172.04 101.303C171.591 102.213 172.008 102.613 171.537 103.341C170.953 104.244 170.531 103.341 170.531 103.341V99.266C170.531 99.266 168.966 100.024 168.015 99.7753C167.329 99.5959 167.008 98.2473 167.008 98.2473L165.498 100.794C165.498 100.794 164.428 100.156 163.989 99.266C163.737 98.7566 164.724 96.7443 166.505 94.6818C166.901 94.2229 168.11 94.1048 168.518 93.6631C168.993 93.1488 169.084 92.0711 169.524 91.6257C170.767 90.3677 172.04 87.5509 172.04 87.5509C172.04 87.5509 170.867 88.7987 170.028 89.5883C169.841 89.7634 169.855 88.8127 169.524 89.079C169.216 89.3279 168.839 90.788 168.518 91.1164C168.275 91.3643 167.774 89.5976 167.579 89.8908C167.24 90.4008 167.008 90.9792 167.008 91.6257C167.008 91.9268 166.67 92.4243 166.002 93.1538C165.584 93.6093 165.927 91.7062 165.498 92.1351C164.744 92.8901 164.281 93.8111 163.989 93.6631C162.982 93.1538 162.479 93.6631 162.479 93.6631C162.479 93.6631 163.485 88.0603 165.498 86.5322C166.982 85.4063 169.021 84.4948 169.021 84.4948C169.021 84.4948 169.807 83.0783 169.021 83.4761C163.989 86.0229 163.485 85.0042 163.485 85.0042C163.485 85.0042 165.924 81.5582 167.511 80.42C168.946 79.3917 170.665 79.9274 171.537 78.3826C172.034 77.502 171.767 76.5391 171.767 76.5391C171.767 76.5391 171.311 76.7596 170.531 76.8546C170.249 76.8889 169.449 76.4478 169.147 76.5391C168.938 76.6024 168.727 77.3171 168.518 77.3992C168.038 77.5871 167.565 77.1745 167.141 77.3992C166.199 77.8984 165.498 78.3826 165.498 78.3826C165.498 78.3826 166.299 76.0372 167.008 75.3266C167.413 74.9215 169.524 75.3266 171.034 73.7985C172.04 72.7798 172.224 72.4837 172.544 71.2518C172.743 70.4821 172.544 69.7237 172.544 69.7237C172.544 69.7237 171.537 71.7611 169.021 71.7611C167.826 71.7611 168.015 70.2331 168.015 70.2331C168.015 70.2331 169.067 69.4194 170.531 68.1957C171.969 66.9934 173.308 65.8968 174.053 65.1396C174.409 64.7786 173.55 64.1209 173.55 64.1209C173.55 64.1209 172.905 63.4483 172.55 63.4158C172.382 63.4003 172.211 64.1248 172.04 64.1209C171.695 64.113 171.352 63.5884 171.034 63.6115C170.186 63.6734 169.524 63.6115 169.524 63.6115Z" fill="#1F4405"/>
<path d="M137.284 70.4108C137.284 70.4108 140.388 68.3259 141.662 66.336C143.303 63.7706 143.608 58.6958 143.608 58.6958C143.608 58.6958 143.891 62.195 144.581 64.2986C145.353 66.6562 148.472 69.9015 148.472 69.9015C148.472 69.9015 148.037 69.6202 147.499 69.9015C146.82 70.2573 147.773 71.4295 147.013 71.4295C146.526 71.4295 145.067 69.3921 145.067 69.3921C145.067 69.3921 144.916 70.4477 145.067 71.4295C145.346 73.2417 147.013 72.9576 147.986 74.995C149.445 77.5417 149.932 77.0324 150.905 78.5604C151.221 79.0569 151.391 80.0885 151.391 80.0885C151.391 80.0885 150.615 79.0174 149.932 79.0698C149.508 79.1022 149.378 79.506 148.959 79.5791C148.121 79.7254 147.013 78.5604 147.013 78.5604C147.013 78.5604 147.801 79.8946 148.472 80.5978C149.144 81.3011 149.832 81.8521 150.418 82.6352C151.049 83.4786 152.364 86.71 152.364 86.71C152.364 86.71 151.531 86.7668 150.418 85.6913C150.111 85.3948 148.81 85.3681 148.472 85.182C147.994 84.9187 147.983 84.0054 147.499 84.1633C147.094 84.2955 146.781 83.8074 146.526 84.1633C146.184 84.6407 147.013 85.182 147.013 85.182C147.013 85.182 147.407 86.1459 148.959 87.7287C149.75 88.5362 151.793 89.5725 152.85 90.2755C154.818 91.584 156.256 93.3316 156.256 93.3316L154.143 92.9386C154.143 92.9386 152.885 93.4052 152.364 93.3316C151.736 93.2429 151.47 92.6104 150.905 92.3129C150.15 91.9159 149.445 91.8035 149.445 91.8035C149.445 91.8035 150.971 93.9452 151.877 95.3689C152.239 95.9371 153.005 96.2304 153.823 96.897C155.206 98.0231 155.769 99.9531 155.769 99.9531C155.769 99.9531 154.31 99.4437 153.337 99.9531C152.827 100.22 152.418 98.7457 151.877 98.9344C151.113 99.2013 151.391 100.462 151.391 100.462C151.391 100.462 152.85 104.028 153.823 105.556C155.057 107.493 148.959 102.5 148.959 102.5C148.959 102.5 148.959 106.065 149.445 108.103C149.313 110.107 148.438 111.027 147.986 110.14C147.138 108.475 146.218 107.369 145.553 106.065C145.027 105.032 145.739 103.31 145.067 101.99C145.067 101.99 145.067 104.283 144.581 104.028C143.608 103.519 143.121 102.5 143.121 102.5C143.121 102.5 142.958 103.281 142.635 104.028C142.525 104.282 142.148 106.065 141.175 106.065C140.914 106.876 140.944 107.703 140.689 108.103C140.217 108.843 139.914 107.687 139.716 108.103C139.282 109.012 139.684 109.412 139.229 110.14C138.665 111.043 138.257 110.14 138.257 110.14V106.065C138.257 106.065 136.744 106.823 135.824 106.575C135.161 106.395 134.851 105.047 134.851 105.047L133.392 107.593C133.392 107.593 132.357 106.955 131.933 106.065C131.689 105.556 132.643 103.544 134.365 101.481C134.748 101.022 135.917 100.904 136.311 100.462C136.77 99.9481 136.858 98.8704 137.284 98.425C138.485 97.167 139.716 94.3503 139.716 94.3503C139.716 94.3503 138.581 95.598 137.77 96.3876C137.59 96.5627 137.603 95.612 137.284 95.8783C136.985 96.1272 136.621 97.5873 136.311 97.9157C136.076 98.1637 135.592 96.3969 135.403 96.6901C135.075 97.2001 134.851 97.7785 134.851 98.425C134.851 98.7262 134.525 99.2236 133.878 99.9531C133.475 100.409 133.806 98.5055 133.392 98.9344C132.663 99.6894 132.215 100.61 131.933 100.462C130.96 99.9531 130.473 100.462 130.473 100.462C130.473 100.462 131.446 94.8596 133.392 93.3316C134.826 92.2056 136.797 91.2942 136.797 91.2942C136.797 91.2942 137.557 89.8776 136.797 90.2755C131.933 92.8222 131.446 91.8035 131.446 91.8035C131.446 91.8035 133.803 88.3576 135.338 87.2194C136.724 86.191 138.386 86.7267 139.229 85.182C139.71 84.3013 139.452 83.3384 139.452 83.3384C139.452 83.3384 139.011 83.5589 138.257 83.6539C137.984 83.6883 137.21 83.2471 136.919 83.3384C136.717 83.4017 136.513 84.1164 136.311 84.1985C135.847 84.3864 135.389 83.9738 134.979 84.1985C134.069 84.6977 133.392 85.182 133.392 85.182C133.392 85.182 134.166 82.8365 134.851 82.1259C135.242 81.7208 137.284 82.1259 138.743 80.5978C139.716 79.5791 139.894 79.2831 140.202 78.0511C140.395 77.2815 140.202 76.523 140.202 76.523C140.202 76.523 139.229 78.5604 136.797 78.5604C135.642 78.5604 135.824 77.0324 135.824 77.0324C135.824 77.0324 136.842 76.2188 138.257 74.995C139.647 73.7927 140.942 72.6961 141.662 71.9389C142.005 71.578 141.175 70.9202 141.175 70.9202C141.175 70.9202 140.552 70.2476 140.208 70.2151C140.046 70.1997 139.881 70.9241 139.716 70.9202C139.382 70.9123 139.05 70.3877 138.743 70.4108C137.923 70.4727 137.284 70.4108 137.284 70.4108Z" fill="#2F610D"/>
<rect x="160.701" y="101.192" width="2.66715" height="12.749" fill="#58381E"/>
<path d="M156.189 70.4108C156.189 70.4108 159.401 68.3259 160.718 66.336C162.416 63.7706 162.731 58.6958 162.731 58.6958C162.731 58.6958 163.025 62.195 163.737 64.2986C164.536 66.6562 167.763 69.9015 167.763 69.9015C167.763 69.9015 167.313 69.6202 166.757 69.9015C166.054 70.2573 167.04 71.4295 166.254 71.4295C165.75 71.4295 164.241 69.3921 164.241 69.3921C164.241 69.3921 164.084 70.4477 164.241 71.4295C164.529 73.2417 166.254 72.9576 167.26 74.995C168.77 77.5417 169.273 77.0324 170.279 78.5604C170.607 79.0569 170.783 80.0885 170.783 80.0885C170.783 80.0885 169.98 79.0174 169.273 79.0698C168.835 79.1022 168.7 79.506 168.267 79.5791C167.4 79.7254 166.254 78.5604 166.254 78.5604C166.254 78.5604 167.068 79.8946 167.763 80.5978C168.458 81.3011 169.17 81.8521 169.776 82.6352C170.429 83.4786 171.789 86.71 171.789 86.71C171.789 86.71 170.928 86.7668 169.776 85.6913C169.459 85.3948 168.113 85.3681 167.763 85.182C167.269 84.9187 167.258 84.0054 166.757 84.1633C166.337 84.2955 166.014 83.8074 165.75 84.1633C165.397 84.6407 166.254 85.182 166.254 85.182C166.254 85.182 166.662 86.1459 168.267 87.7287C169.085 88.5362 171.199 89.5725 172.292 90.2755C174.328 91.584 175.815 93.3316 175.815 93.3316L173.63 92.9386C173.63 92.9386 172.328 93.4052 171.789 93.3316C171.14 93.2429 170.865 92.6104 170.279 92.3129C169.498 91.9159 168.77 91.8035 168.77 91.8035C168.77 91.8035 170.348 93.9452 171.286 95.369C171.66 95.9371 172.452 96.2304 173.299 96.897C174.73 98.0231 175.312 99.9531 175.312 99.9531C175.312 99.9531 173.802 99.4437 172.796 99.9531C172.268 100.22 171.845 98.7457 171.286 98.9344C170.495 99.2013 170.783 100.462 170.783 100.462C170.783 100.462 172.292 104.028 173.299 105.556C174.575 107.493 168.267 102.5 168.267 102.5C168.267 102.5 168.267 106.065 168.77 108.103C168.633 110.107 167.727 111.027 167.26 110.14C166.383 108.475 165.431 107.369 164.744 106.065C164.199 105.032 164.936 103.31 164.241 101.99C164.241 101.99 164.241 104.283 163.737 104.028C162.731 103.519 162.228 102.5 162.228 102.5C162.228 102.5 162.058 103.281 161.724 104.028C161.611 104.282 161.221 106.065 160.215 106.065C159.945 106.876 159.975 107.703 159.712 108.103C159.223 108.843 158.91 107.687 158.705 108.103C158.256 109.012 158.673 109.412 158.202 110.14C157.618 111.043 157.195 110.14 157.195 110.14V106.065C157.195 106.065 155.631 106.823 154.679 106.575C153.993 106.395 153.673 105.047 153.673 105.047L152.163 107.593C152.163 107.593 151.093 106.955 150.653 106.065C150.402 105.556 151.388 103.544 153.169 101.481C153.566 101.022 154.775 100.904 155.182 100.462C155.657 99.9481 155.749 98.8704 156.189 98.425C157.432 97.167 158.705 94.3503 158.705 94.3503C158.705 94.3503 157.531 95.598 156.692 96.3876C156.506 96.5627 156.519 95.612 156.189 95.8783C155.88 96.1272 155.504 97.5873 155.182 97.9157C154.94 98.1637 154.439 96.3969 154.244 96.6901C153.904 97.2001 153.673 97.7785 153.673 98.425C153.673 98.7262 153.335 99.2236 152.666 99.9531C152.249 100.409 152.592 98.5055 152.163 98.9344C151.408 99.6894 150.946 100.61 150.653 100.462C149.647 99.9531 149.144 100.462 149.144 100.462C149.144 100.462 150.15 94.8596 152.163 93.3316C153.646 92.2056 155.686 91.2942 155.686 91.2942C155.686 91.2942 156.472 89.8776 155.686 90.2755C150.653 92.8222 150.15 91.8035 150.15 91.8035C150.15 91.8035 152.588 88.3576 154.176 87.2194C155.61 86.191 157.33 86.7267 158.202 85.182C158.699 84.3013 158.432 83.3384 158.432 83.3384C158.432 83.3384 157.976 83.5589 157.195 83.6539C156.913 83.6883 156.113 83.2471 155.812 83.3384C155.603 83.4017 155.392 84.1164 155.182 84.1985C154.702 84.3864 154.229 83.9738 153.805 84.1985C152.863 84.6977 152.163 85.182 152.163 85.182C152.163 85.182 152.963 82.8365 153.673 82.1259C154.077 81.7208 156.189 82.1259 157.699 80.5978C158.705 79.5791 158.889 79.2831 159.208 78.0511C159.408 77.2815 159.208 76.523 159.208 76.523C159.208 76.523 158.202 78.5604 155.686 78.5604C154.49 78.5604 154.679 77.0324 154.679 77.0324C154.679 77.0324 155.732 76.2188 157.195 74.995C158.633 73.7927 159.973 72.6961 160.718 71.9389C161.073 71.578 160.215 70.9202 160.215 70.9202C160.215 70.9202 159.569 70.2476 159.215 70.2151C159.046 70.1997 158.876 70.9241 158.705 70.9202C158.36 70.9123 158.016 70.3877 157.699 70.4108C156.85 70.4727 156.189 70.4108 156.189 70.4108Z" fill="#376E12"/>
<rect x="185.594" y="100.342" width="2.66715" height="12.749" fill="#58381E"/>
<path d="M180.193 69.3687C180.193 69.3687 183.405 67.318 184.722 65.3607C186.421 62.8374 186.735 57.8457 186.735 57.8457C186.735 57.8457 187.029 61.2876 187.742 63.3567C188.541 65.6756 191.768 68.8677 191.768 68.8677C191.768 68.8677 191.317 68.591 190.761 68.8677C190.058 69.2177 191.044 70.3707 190.258 70.3707C189.755 70.3707 188.245 68.3667 188.245 68.3667C188.245 68.3667 188.089 69.4049 188.245 70.3707C188.534 72.1531 190.258 71.8737 191.264 73.8777C192.774 76.3827 193.277 75.8817 194.284 77.3847C194.611 77.8731 194.787 78.8877 194.787 78.8877C194.787 78.8877 193.984 77.8342 193.277 77.8857C192.839 77.9176 192.704 78.3148 192.271 78.3867C191.404 78.5305 190.258 77.3847 190.258 77.3847C190.258 77.3847 191.073 78.6969 191.768 79.3887C192.462 80.0804 193.175 80.6224 193.781 81.3927C194.433 82.2222 195.794 85.4007 195.794 85.4007C195.794 85.4007 194.932 85.4566 193.781 84.3987C193.463 84.107 192.117 84.0808 191.768 83.8977C191.273 83.6387 191.262 82.7404 190.761 82.8957C190.342 83.0258 190.018 82.5457 189.755 82.8957C189.401 83.3652 190.258 83.8977 190.258 83.8977C190.258 83.8977 190.666 84.8458 192.271 86.4027C193.09 87.1969 195.203 88.2162 196.297 88.9077C198.333 90.1947 199.819 91.9137 199.819 91.9137L197.634 91.5272C197.634 91.5272 196.332 91.9861 195.794 91.9137C195.144 91.8264 194.869 91.2043 194.284 90.9117C193.503 90.5212 192.774 90.4107 192.774 90.4107C192.774 90.4107 194.353 92.5173 195.29 93.9177C195.665 94.4765 196.456 94.765 197.303 95.4207C198.734 96.5283 199.316 98.4266 199.316 98.4266C199.316 98.4266 197.807 97.9257 196.8 98.4266C196.273 98.6891 195.85 97.239 195.29 97.4247C194.499 97.6871 194.787 98.9276 194.787 98.9276C194.787 98.9276 196.297 102.435 197.303 103.938C198.579 105.843 192.271 100.932 192.271 100.932C192.271 100.932 192.271 104.439 192.774 106.443C192.638 108.414 191.732 109.319 191.264 108.447C190.387 106.809 189.435 105.721 188.748 104.439C188.204 103.422 188.94 101.728 188.245 100.431C188.245 100.431 188.245 102.685 187.742 102.435C186.735 101.934 186.232 100.932 186.232 100.932C186.232 100.932 186.063 101.7 185.729 102.435C185.615 102.685 185.226 104.439 184.219 104.439C183.949 105.236 183.98 106.049 183.716 106.443C183.228 107.171 182.915 106.034 182.709 106.443C182.26 107.337 182.677 107.73 182.206 108.447C181.622 109.335 181.2 108.447 181.2 108.447V104.439C181.2 104.439 179.635 105.184 178.684 104.94C177.997 104.763 177.677 103.437 177.677 103.437L176.167 105.942C176.167 105.942 175.097 105.314 174.658 104.439C174.406 103.938 175.393 101.958 177.174 99.9296C177.57 99.4782 178.779 99.3621 179.187 98.9276C179.661 98.4217 179.753 97.3617 180.193 96.9237C181.436 95.6862 182.709 92.9157 182.709 92.9157C182.709 92.9157 181.536 94.1429 180.696 94.9197C180.51 95.0918 180.523 94.1567 180.193 94.4187C179.885 94.6635 179.508 96.0996 179.187 96.4227C178.944 96.6666 178.443 94.9287 178.248 95.2172C177.909 95.7188 177.677 96.2877 177.677 96.9237C177.677 97.2198 177.339 97.7091 176.671 98.4266C176.253 98.8747 176.596 97.0028 176.167 97.4247C175.413 98.1673 174.95 99.0732 174.658 98.9276C173.651 98.4266 173.148 98.9276 173.148 98.9276C173.148 98.9276 174.154 93.4167 176.167 91.9137C177.651 90.8062 179.69 89.9097 179.69 89.9097C179.69 89.9097 180.476 88.5164 179.69 88.9077C174.658 91.4127 174.154 90.4107 174.154 90.4107C174.154 90.4107 176.593 87.0212 178.18 85.9017C179.615 84.8902 181.334 85.4171 182.206 83.8977C182.703 83.0315 182.436 82.0843 182.436 82.0843C182.436 82.0843 181.98 82.3012 181.2 82.3947C180.918 82.4285 180.118 81.9945 179.816 82.0843C179.607 82.1466 179.396 82.8496 179.187 82.9303C178.707 83.1151 178.234 82.7093 177.81 82.9303C176.868 83.4213 176.167 83.8977 176.167 83.8977C176.167 83.8977 176.968 81.5906 177.677 80.8917C178.081 80.4933 180.193 80.8917 181.703 79.3887C182.709 78.3867 182.893 78.0955 183.213 76.8837C183.412 76.1267 183.213 75.3807 183.213 75.3807C183.213 75.3807 182.206 77.3847 179.69 77.3847C178.495 77.3847 178.684 75.8817 178.684 75.8817C178.684 75.8817 179.736 75.0814 181.2 73.8777C182.638 72.6951 183.977 71.6165 184.722 70.8717C185.077 70.5167 184.219 69.8697 184.219 69.8697C184.219 69.8697 183.574 69.2082 183.219 69.1761C183.051 69.161 182.88 69.8735 182.709 69.8697C182.364 69.8619 182.021 69.3459 181.703 69.3687C180.855 69.4295 180.193 69.3687 180.193 69.3687Z" fill="#2F610D"/>
</svg>
