<svg width="229" height="173" viewBox="0 0 229 173" fill="none" xmlns="http://www.w3.org/2000/svg">
<rect width="229" height="173" fill="white"/>
<path d="M19 150.611L57.1176 154.739V165.748L42.5294 164.372L32.6471 162.996L19 161.62V150.611Z" fill="#19B233"/>
<path d="M57.1177 155.198L67.4706 150.152V153.821L57.1177 165.748V155.198Z" fill="#0B761D"/>
<path d="M19.4707 154.225L27.9411 155.198" stroke="#0F7F22"/>
<path d="M19.4707 157.433L31.706 158.868" stroke="#0F7F22"/>
<path d="M46.7645 157.491L54.2944 157.95" stroke="#0F7F22"/>
<path d="M43.941 160.694L54.7645 161.619" stroke="#0F7F22"/>
<path d="M42.2798 155.416V164.084L32.897 162.778V154.109L42.2798 155.416Z" fill="#E0AA00" stroke="black" stroke-width="0.5"/>
<path d="M23.7059 146.482L25.1176 148.317L31.7059 151.987L19 150.611L23.7059 146.482Z" fill="#37D552"/>
<path d="M23.7061 142.813L37.3531 144.189L46.7649 145.106L61.3531 146.483V157.491L46.7649 156.115L37.3531 155.198L23.7061 153.822V142.813Z" fill="#22C73E"/>
<path d="M61.353 146.482L71.706 134.556V146.024L61.353 157.491V146.482Z" fill="#0F9926"/>
<path d="M35.4708 131.345L47.7061 132.263L56.1766 133.18L71.7061 134.556L61.3531 146.482L46.7649 145.106L37.3531 144.189L23.7061 142.813L35.4708 131.345Z" fill="#39E155"/>
<path d="M24.189 145.565L32.6593 146.538" stroke="#0B8F22"/>
<path d="M24.189 148.773L36.4243 150.208" stroke="#0B8F22"/>
<path d="M47.7182 148.317L55.7182 148.776" stroke="#0B8F22"/>
<path d="M48.6596 152.034L61.3656 152.955" stroke="#0B8F22"/>
<path d="M46.5151 145.333V155.839L37.603 154.97V144.464L46.5151 145.333Z" fill="#FFC200" stroke="black" stroke-width="0.5"/>
<path d="M55.6997 133.38L46.6528 144.844L37.8579 143.987L47.8081 132.525L55.6997 133.38Z" fill="#FFD13E" stroke="black" stroke-width="0.5"/>
<path d="M93.353 153.822L107 155.198L116.412 156.115L131 157.491V168.5L116.412 167.124L107 166.207L93.353 164.831V153.822Z" fill="#22C73E"/>
<path d="M131 157.491L141.353 145.565V157.032L131 168.5V157.491Z" fill="#0F9926"/>
<path d="M105.118 142.354L117.353 143.271L125.824 144.189L141.353 145.565L131 157.491L116.412 156.115L107 155.198L93.353 153.822L105.118 142.354Z" fill="#39E155"/>
<path d="M93.8359 156.574L102.306 157.547" stroke="#0B8F22"/>
<path d="M93.8359 159.782L106.071 161.217" stroke="#0B8F22"/>
<path d="M117.365 159.326L125.365 159.785" stroke="#0B8F22"/>
<path d="M118.307 163.043L131.013 163.963" stroke="#0B8F22"/>
<path d="M116.162 156.341V166.848L107.25 165.979V155.473L116.162 156.341Z" fill="#FFC200" stroke="black" stroke-width="0.5"/>
<path d="M125.347 144.389L116.3 155.853L107.505 154.996L117.455 143.534L125.347 144.389Z" fill="#FFD13E" stroke="black" stroke-width="0.5"/>
<path d="M90.0586 141.896L103.235 143.272L112.647 144.189L127.235 145.565V156.574L112.647 155.198L103.235 154.28L90.0586 152.904V141.896Z" fill="#19B233"/>
<path d="M127.235 145.565L137.118 134.556V145.106L127.235 156.574V145.565Z" fill="#0F9926"/>
<path d="M93.3527 139.143L129.588 133.639L137.117 134.556L127.235 145.565L107.941 143.73L103.235 143.271L90.0586 141.895L93.3527 139.143Z" fill="#108E26"/>
<path d="M112.397 144.415V154.922L103.485 154.053V143.547L112.397 144.415Z" fill="#FFC200" stroke="black" stroke-width="0.5"/>
<path d="M115.354 141.199L112.555 143.929L103.854 143.08L106.613 140.773L115.354 141.199Z" fill="#C99900" stroke="black" stroke-width="0.5"/>
<path d="M90.0591 145.565L98.059 146.024" stroke="#008818"/>
<path d="M113.588 147.803L121.588 148.261" stroke="#008818"/>
<path d="M90.0585 148.773L102.765 149.693" stroke="#008818"/>
<path d="M114.529 151.52L127.235 152.44" stroke="#008818"/>
<path d="M86.7646 128.593L124.882 132.722V143.73L110.294 142.354L100.412 140.978L86.7646 139.602V128.593Z" fill="#19B233"/>
<path d="M124.882 133.18L135.235 128.134V131.804L124.882 143.73V133.18Z" fill="#0B761D"/>
<path d="M87.2354 132.207L95.7057 133.18" stroke="#0F7F22"/>
<path d="M87.2354 135.415L99.4706 136.85" stroke="#0F7F22"/>
<path d="M114.53 135.474L122.06 135.932" stroke="#0F7F22"/>
<path d="M111.706 138.676L122.53 139.602" stroke="#0F7F22"/>
<path d="M110.044 133.398V142.067L100.662 140.76V132.091L110.044 133.398Z" fill="#E0AA00" stroke="black" stroke-width="0.5"/>
<path d="M91.4705 124.465L92.8823 126.3L99.4705 129.969L86.7646 128.593L91.4705 124.465Z" fill="#37D552"/>
<path d="M91.4707 120.795L105.118 122.172L114.53 123.089L129.118 124.465V135.474L114.53 134.098L105.118 133.18L91.4707 131.804V120.795Z" fill="#22C73E"/>
<path d="M129.118 124.465L139.471 112.539V124.006L129.118 135.474V124.465Z" fill="#0F9926"/>
<path d="M103.235 109.328L115.471 110.245L123.941 111.162L139.471 112.539L129.118 124.465L114.53 123.089L105.118 122.171L91.4707 120.795L103.235 109.328Z" fill="#39E155"/>
<path d="M91.9536 123.547L100.424 124.521" stroke="#0B8F22"/>
<path d="M91.9536 126.755L104.189 128.19" stroke="#0B8F22"/>
<path d="M115.483 126.3L123.483 126.758" stroke="#0B8F22"/>
<path d="M116.424 130.017L129.13 130.937" stroke="#0B8F22"/>
<path d="M114.28 123.315V133.822L105.368 132.953V122.447L114.28 123.315Z" fill="#FFC200" stroke="black" stroke-width="0.5"/>
<path d="M123.464 111.362L114.417 122.826L105.623 121.97L115.573 110.508L123.464 111.362Z" fill="#FFD13E" stroke="black" stroke-width="0.5"/>
<path d="M161.588 151.069L174.764 152.445L184.176 153.363L198.764 154.739V165.748L184.176 164.372L174.764 163.454L161.588 162.078V151.069Z" fill="#19B233"/>
<path d="M198.765 154.739L208.647 143.73V154.28L198.765 165.748V154.739Z" fill="#0F9926"/>
<path d="M164.882 148.317L201.117 142.812L208.647 143.73L198.764 154.739L179.47 152.904L174.764 152.445L161.588 151.069L164.882 148.317Z" fill="#108E26"/>
<path d="M183.927 153.589V164.096L175.015 163.227V152.721L183.927 153.589Z" fill="#FFC200" stroke="black" stroke-width="0.5"/>
<path d="M186.884 150.373L184.084 153.103L175.383 152.254L178.143 149.947L186.884 150.373Z" fill="#C99900" stroke="black" stroke-width="0.5"/>
<path d="M161.588 154.739L169.588 155.197" stroke="#008818"/>
<path d="M185.118 156.976L193.118 157.435" stroke="#008818"/>
<path d="M161.588 157.947L174.294 158.867" stroke="#008818"/>
<path d="M186.059 160.693L198.765 161.614" stroke="#008818"/>
<path d="M158.294 137.767L196.412 141.895V152.904L181.823 151.528L171.941 150.152L158.294 148.776V137.767Z" fill="#19B233"/>
<path d="M196.412 142.354L206.765 137.308V140.978L196.412 152.904V142.354Z" fill="#0B761D"/>
<path d="M158.765 141.381L167.235 142.354" stroke="#0F7F22"/>
<path d="M158.765 144.589L171 146.024" stroke="#0F7F22"/>
<path d="M186.058 144.647L193.588 145.106" stroke="#0F7F22"/>
<path d="M183.235 147.85L194.058 148.776" stroke="#0F7F22"/>
<path d="M181.574 142.572V151.241L172.191 149.934V141.265L181.574 142.572Z" fill="#E0AA00" stroke="black" stroke-width="0.5"/>
<path d="M163 133.639L164.412 135.473L171 139.143L158.294 137.767L163 133.639Z" fill="#37D552"/>
<path d="M163 129.969L176.647 131.345L186.059 132.263L200.647 133.639V144.648L186.059 143.272L176.647 142.354L163 140.978V129.969Z" fill="#22C73E"/>
<path d="M200.647 133.639L211 121.712V133.18L200.647 144.648V133.639Z" fill="#0F9926"/>
<path d="M174.765 118.501L187 119.419L195.471 120.336L211 121.712L200.647 133.639L186.059 132.263L176.647 131.345L163 129.969L174.765 118.501Z" fill="#39E155"/>
<path d="M163.483 132.721L171.953 133.695" stroke="#0B8F22"/>
<path d="M163.483 135.929L175.718 137.364" stroke="#0B8F22"/>
<path d="M187.012 135.474L195.012 135.932" stroke="#0B8F22"/>
<path d="M187.953 139.191L200.659 140.111" stroke="#0B8F22"/>
<path d="M185.809 132.489V142.996L176.897 142.126V131.621L185.809 132.489Z" fill="#FFC200" stroke="black" stroke-width="0.5"/>
<path d="M194.994 120.536L185.947 132L177.152 131.144L187.102 119.682L194.994 120.536Z" fill="#FFD13E" stroke="black" stroke-width="0.5"/>
<path d="M159.706 118.043L172.883 119.419L182.294 120.336L196.883 121.713V132.721L182.294 131.345L172.883 130.428L159.706 129.052V118.043Z" fill="#19B233"/>
<path d="M196.883 121.712L206.765 110.704V121.254L196.883 132.721V121.712Z" fill="#0F9926"/>
<path d="M163 115.291L199.235 109.786L206.765 110.704L196.883 121.712L177.588 119.878L172.883 119.419L159.706 118.043L163 115.291Z" fill="#108E26"/>
<path d="M182.045 120.562V131.069L173.133 130.2V119.694L182.045 120.562Z" fill="#FFC200" stroke="black" stroke-width="0.5"/>
<path d="M185.002 117.347L182.202 120.076L173.501 119.228L176.261 116.921L185.002 117.347Z" fill="#C99900" stroke="black" stroke-width="0.5"/>
<path d="M159.706 121.712L167.706 122.171" stroke="#008818"/>
<path d="M183.235 123.95L191.235 124.409" stroke="#008818"/>
<path d="M159.706 124.921L172.412 125.841" stroke="#008818"/>
<path d="M184.177 127.667L196.883 128.587" stroke="#008818"/>
<path d="M156.412 104.741L194.53 108.869V119.878L179.942 118.502L170.059 117.126L156.412 115.75V104.741Z" fill="#19B233"/>
<path d="M194.53 109.327L204.883 104.282V107.951L194.53 119.878V109.327Z" fill="#0B761D"/>
<path d="M156.883 108.354L165.353 109.328" stroke="#0F7F22"/>
<path d="M156.883 111.562L169.118 112.997" stroke="#0F7F22"/>
<path d="M184.177 111.621L191.707 112.08" stroke="#0F7F22"/>
<path d="M181.353 114.824L192.177 115.749" stroke="#0F7F22"/>
<path d="M179.692 109.545V118.214L170.309 116.908V108.239L179.692 109.545Z" fill="#E0AA00" stroke="black" stroke-width="0.5"/>
<path d="M161.118 100.612L162.53 102.447L169.118 106.117L156.412 104.741L161.118 100.612Z" fill="#37D552"/>
<path d="M161.118 96.9429L174.765 98.319L184.177 99.2364L198.765 100.612V111.621L184.177 110.245L174.765 109.328L161.118 107.952V96.9429Z" fill="#22C73E"/>
<path d="M198.765 100.612L209.118 88.686V100.154L198.765 111.621V100.612Z" fill="#0F9926"/>
<path d="M172.882 85.4751L185.118 86.3925L193.588 87.3099L209.118 88.686L198.765 100.612L184.177 99.2362L174.765 98.3188L161.118 96.9426L172.882 85.4751Z" fill="#39E155"/>
<path d="M161.601 99.6948L170.071 100.668" stroke="#0B8F22"/>
<path d="M161.601 102.903L173.836 104.338" stroke="#0B8F22"/>
<path d="M185.13 102.447L193.13 102.906" stroke="#0B8F22"/>
<path d="M186.071 106.164L198.777 107.084" stroke="#0B8F22"/>
<path d="M183.927 99.4624V109.969L175.015 109.1V98.5942L183.927 99.4624Z" fill="#FFC200" stroke="black" stroke-width="0.5"/>
<path d="M193.112 87.5098L184.065 98.9736L175.27 98.1172L185.22 86.6553L193.112 87.5098Z" fill="#FFD13E" stroke="black" stroke-width="0.5"/>
<path d="M158.765 84.0986L171.941 85.4747L181.353 86.3921L195.941 87.7682V98.7771L181.353 97.401L171.941 96.4836L158.765 95.1075V84.0986Z" fill="#19B233"/>
<path d="M195.941 87.7681L205.824 76.7593V87.3094L195.941 98.777V87.7681Z" fill="#0F9926"/>
<path d="M162.059 81.3462L198.294 75.8418L205.823 76.7592L195.941 87.7681L176.647 85.9332L171.941 85.4745L158.765 84.0984L162.059 81.3462Z" fill="#108E26"/>
<path d="M181.104 86.6182V97.125L172.191 96.2559V85.75L181.104 86.6182Z" fill="#FFC200" stroke="black" stroke-width="0.5"/>
<path d="M184.061 83.4023L181.261 86.1318L172.56 85.2832L175.319 82.9766L184.061 83.4023Z" fill="#C99900" stroke="black" stroke-width="0.5"/>
<path d="M158.765 87.768L166.765 88.2267" stroke="#008818"/>
<path d="M182.294 90.0058L190.294 90.4645" stroke="#008818"/>
<path d="M158.765 90.9762L171.471 91.8964" stroke="#008818"/>
<path d="M183.235 93.7228L195.941 94.643" stroke="#008818"/>
<path d="M155.471 70.7964L193.588 74.9247V85.9336L179 84.5574L169.118 83.1813L155.471 81.8052V70.7964Z" fill="#19B233"/>
<path d="M193.588 75.3831L203.941 70.3374V74.007L193.588 85.9333V75.3831Z" fill="#0B761D"/>
<path d="M155.941 74.4102L164.412 75.3835" stroke="#0F7F22"/>
<path d="M155.941 77.6182L168.177 79.0531" stroke="#0F7F22"/>
<path d="M183.235 77.6767L190.765 78.1354" stroke="#0F7F22"/>
<path d="M180.412 80.8792L191.235 81.805" stroke="#0F7F22"/>
<path d="M178.75 75.6011V84.27L169.368 82.9634V74.2944L178.75 75.6011Z" fill="#E0AA00" stroke="black" stroke-width="0.5"/>
<path d="M160.177 66.668L161.588 68.5028L168.177 72.1724L155.471 70.7963L160.177 66.668Z" fill="#37D552"/>
<path d="M160.176 62.9985L173.823 64.3746L183.235 65.292L197.823 66.6682V77.677L183.235 76.3009L173.823 75.3835L160.176 74.0074V62.9985Z" fill="#22C73E"/>
<path d="M197.824 66.668L208.177 54.7417V66.2093L197.824 77.6768V66.668Z" fill="#0F9926"/>
<path d="M171.941 51.5308L184.176 52.4482L192.647 53.3656L208.176 54.7417L197.823 66.6679L183.235 65.2918L173.823 64.3744L160.176 62.9983L171.941 51.5308Z" fill="#39E155"/>
<path d="M160.66 65.7505L169.13 66.7238" stroke="#0B8F22"/>
<path d="M160.66 68.9585L172.895 70.3934" stroke="#0B8F22"/>
<path d="M184.189 68.5029L192.189 68.9616" stroke="#0B8F22"/>
<path d="M185.13 72.2199L197.836 73.1401" stroke="#0B8F22"/>
<path d="M182.986 65.5181V76.0249L174.074 75.1558V64.6499L182.986 65.5181Z" fill="#FFC200" stroke="black" stroke-width="0.5"/>
<path d="M192.17 53.5654L183.124 65.0293L174.329 64.1729L184.279 52.7109L192.17 53.5654Z" fill="#FFD13E" stroke="black" stroke-width="0.5"/>
<rect x="22.7646" y="96.4839" width="17.8151" height="45.8702" fill="#DF3714"/>
<rect x="40.5801" y="119.419" width="30.2857" height="22.9351" fill="#BC2505"/>
<rect x="40.5801" y="114.126" width="32.0672" height="5.29272" fill="#B7B6B6"/>
<path d="M40.5801 108.833H65.5213L72.6473 114.126H40.5801V108.833Z" fill="#D9D9D9"/>
<path d="M57.2646 109.328C57.2646 107.947 56.1454 106.828 54.7646 106.828C53.3839 106.828 52.2646 107.947 52.2646 109.328H54.7646H57.2646ZM54.7646 109.328H52.2646V112.08H54.7646H57.2646V109.328H54.7646Z" fill="#FF0000"/>
<rect x="45.9243" y="124.712" width="19.5966" height="17.6424" fill="#002642"/>
<rect x="28.1094" y="130.004" width="7.12605" height="12.3497" fill="#134E78"/>
<rect x="26.3281" y="122.947" width="10.6891" height="3.52848" fill="#E7E4D0"/>
<path d="M27.6604 111.823C27.8266 111.823 27.1319 109.458 27.6604 107.573C28.2939 105.313 30.8805 101.777 30.8805 101.777C33.2727 106.027 33.6468 108.345 32.8985 110.664C32.8985 110.664 33.6577 110.285 34.021 109.891C35.0334 108.793 34.3951 106.027 34.3951 106.027C34.3951 106.027 37.1186 107.708 37.0142 111.437C36.9216 114.745 34.59 117.283 31.4019 117.619C28.1743 117.958 25.2763 115.886 24.6671 112.596C24.0233 109.118 26.1638 106.8 26.1638 106.8C26.1638 106.8 26.538 111.823 27.6604 111.823Z" fill="#F1D106"/>
<path d="M116.012 87.0029C116.22 87.1125 116.521 87.264 116.903 87.4336C117.666 87.7726 118.756 88.1872 120.063 88.4932C122.594 89.0853 125.973 89.2755 129.387 87.6797L133.979 92.416C133.974 92.4193 133.969 92.4234 133.964 92.4268C133.634 92.6461 133.18 92.9613 132.684 93.3457C131.705 94.105 130.515 95.1707 129.819 96.3281C129.213 97.3364 129.216 98.613 129.428 99.9375C129.641 101.269 130.09 102.783 130.492 104.308C131.313 107.424 131.947 110.639 130.555 113.346C129.816 114.782 128.546 116.089 127.019 117.243C125.495 118.395 123.743 119.376 122.076 120.174C120.41 120.971 118.839 121.581 117.684 121.991C117.108 122.196 116.636 122.351 116.309 122.454C116.146 122.506 116.018 122.545 115.932 122.57H115.93C115.849 122.55 115.731 122.519 115.581 122.478C115.27 122.393 114.819 122.265 114.267 122.092C113.162 121.745 111.65 121.22 110.024 120.507C106.746 119.07 103.105 116.912 101.308 113.992C99.6406 111.283 100.102 107.76 100.904 104.502C101.102 103.696 101.318 102.918 101.522 102.181C101.725 101.446 101.918 100.748 102.064 100.116C102.21 99.4873 102.316 98.9006 102.338 98.3916C102.36 97.8932 102.306 97.3956 102.059 97.001C101.369 95.8976 100.216 94.5116 99.2524 93.418C98.7673 92.8674 98.3242 92.3837 98.0024 92.0381C97.9413 91.9724 97.8844 91.9118 97.8325 91.8564L102.492 87.6514C106.608 89.2688 110.002 89.0955 112.393 88.4912C113.614 88.1827 114.569 87.7638 115.222 87.4189C115.548 87.247 115.798 87.092 115.97 86.9795C115.984 86.9868 115.998 86.9952 116.012 87.0029Z" fill="#134E78" stroke="#002642"/>
<path d="M104.648 100.663C103.964 101.628 102.379 108.283 103.894 112.216C105.66 116.798 115.941 119.691 115.941 119.691" stroke="#002642"/>
<path d="M127.235 101.201C127.919 102.165 129.504 108.82 127.988 112.753C126.222 117.336 115.941 119.691 115.941 119.691" stroke="#002642"/>
<path d="M115.956 120.494L114.858 119.929L115.816 120.176L115.933 120.205L116.051 120.179L117.262 119.905L115.956 120.494Z" fill="black" stroke="#002642"/>
<path d="M117.677 100.562L117.796 100.892H122.492L119.023 103.167L118.734 103.356L118.809 103.694L119.718 107.736L116.194 105.668L115.941 105.52L115.688 105.668L112.358 107.62L113.75 103.754L113.884 103.382L113.554 103.167L110.085 100.892H114.781L114.9 100.562L116.289 96.7036L117.677 100.562Z" fill="#FFC200" stroke="#FFC200"/>
<line x1="108.412" y1="111.037" x2="123.47" y2="111.037" stroke="#002642"/>
<path d="M103.141 91.1496C103.141 91.1496 105.901 92.4322 108.412 92.5088C111.577 92.6053 115.941 89.7905 115.941 89.7905C115.941 89.7905 120.304 92.5514 123.471 92.5088C125.611 92.48 128.741 91.1496 128.741 91.1496" stroke="#002642"/>
<rect x="155.471" y="19.9658" width="26.8235" height="43.5378" fill="#002642"/>
<rect x="182.294" y="37.3813" width="24.9075" height="26.1227" fill="#134E78"/>
<rect x="182.294" y="33.8979" width="26.8235" height="3.48302" fill="#D9D9D9"/>
<path d="M161.5 13H177.5V28H161.5V13Z" fill="#FFC200"/>
<rect x="161.218" y="32.1567" width="5.74789" height="5.22454" fill="#E7E4D0"/>
<rect x="170.798" y="32.1567" width="5.74789" height="5.22454" fill="#E7E4D0"/>
<rect x="170.798" y="42.6055" width="5.74789" height="5.22454" fill="#E7E4D0"/>
<rect x="161.218" y="42.6055" width="5.74789" height="5.22454" fill="#E7E4D0"/>
<rect x="163.135" y="51.3135" width="11.4958" height="12.1906" fill="#F3F2E9"/>
<path d="M166.5 16V25" stroke="black"/>
<path d="M194.748 50.4424V51.3131" stroke="#D51616" stroke-linecap="round"/>
<path d="M172.5 16V25" stroke="black"/>
<path d="M167 20.5H172.5" stroke="black"/>
<path d="M191.726 51.4704C191.82 51.3703 191.952 51.3135 192.09 51.3135H208.618C208.894 51.3135 209.118 51.5373 209.118 51.8135V61.2625C209.118 61.5387 208.894 61.7625 208.618 61.7625H186.626C186.35 61.7625 186.126 61.5387 186.126 61.2625V57.6073C186.126 57.4798 186.175 57.3571 186.262 57.2643L191.726 51.4704Z" fill="#E7E7E7"/>
<path d="M192 52H195V57H187.5L192 52Z" fill="#B9BEB4"/>
<path d="M199 52H206V57H199V52Z" fill="#B9BEB4"/>
<path d="M193.254 62.1979C193.254 63.4001 192.238 64.3748 190.915 64.3748C189.593 64.3748 188.689 63.4001 188.689 62.1979C188.689 60.9956 189.593 60.021 190.915 60.021C192.238 60.021 193.254 60.9956 193.254 62.1979Z" fill="#212121"/>
<path d="M206.286 62.1979C206.286 63.4001 205.214 64.3748 203.891 64.3748C202.568 64.3748 201.496 63.4001 201.496 62.1979C201.496 60.9956 202.568 60.021 203.891 60.021C205.214 60.021 206.286 60.9956 206.286 62.1979Z" fill="#212121"/>
<path d="M186.126 42.6055H203.37V49.5715H186.126V42.6055Z" fill="#E7E4D0"/>
<path d="M190.916 46.9595L192.832 49.5717" stroke="#D41616"/>
<path d="M198.58 46.9595L196.664 49.5717" stroke="#D41616"/>
<path d="M194.748 44.3472V47.8302" stroke="#D41616"/>
<line x1="161.218" y1="63.0039" x2="176.546" y2="63.0039" stroke="#002642"/>
<path d="M168.882 62.5244V51.3133" stroke="#212121" stroke-width="0.3"/>
</svg>
