<svg width="595" height="155" viewBox="0 0 595 155" fill="none" xmlns="http://www.w3.org/2000/svg">
<g clip-path="url(#clip0_456_935)">
<rect width="595" height="155" fill="white"/>
<path d="M0 87H90.4185L96 102L4.46511 105L0 87Z" fill="#6E6E6E"/>
<path d="M5 102H96V155H5V102Z" fill="#353434"/>
<path d="M0 87L5 102V155L0 140.758V87Z" fill="#212121"/>
<path d="M595 87H504.581L499 104L590.535 105L595 87Z" fill="#6E6E6E"/>
<path d="M590 104H499V157H590V104Z" fill="#353434"/>
<ellipse cx="289.897" cy="12.0614" rx="9.99898" ry="9.06137" fill="#212121"/>
<path d="M276.369 28.8246C272.87 28.8246 261.9 29.7308 255.901 28.8246C249.427 27.8468 238.715 25.2001 240.403 21.1225C242.278 16.5918 252.884 22.9347 259.401 22.9347C265.917 22.9347 266.883 21.1955 273.399 21.1225C280.495 21.043 286.398 22.9347 291.397 23.3878C295.897 23.7956 299.506 20.9762 304.896 20.6694C308.798 20.4473 311.027 21.6396 314.895 21.1225C322.88 20.0549 330.744 10.634 332.893 11.6081C337.893 13.8736 327.088 23.6522 319.395 26.1063C315.51 27.3456 308.474 26.7981 305.396 29.2778C302.318 31.7575 302.896 34.2615 302.896 36.0738C302.896 39.5394 306.396 51.4781 312.895 62.3518C331.32 83.213 346.392 99.0503 339.892 101.316C334.893 103.058 304.804 65.7019 299.397 67.3354C291.897 69.6009 301.896 118.079 291.897 118.532C286.588 118.773 287.166 108.015 286.398 94.0665C285.886 84.7688 280.088 70.117 280.818 61.0321C281.93 47.1895 281.294 28.8246 276.369 28.8246Z" fill="#212121"/>
<path d="M81.7432 94.0412C81.7432 94.0412 153.424 119.414 291.888 119.106C405.885 118.853 522.71 94.0412 522.71 94.0412" stroke="#212121" stroke-width="4"/>
<path d="M543.238 53.0944L553.891 52.2988C553.891 52.2988 559.531 57.0725 564.544 65.0285C567.05 69.0066 570.596 76.3518 570.184 79.3495C569.438 84.7643 566.337 87.5775 562.664 90.4879C561.66 91.2836 555.157 93.9116 550.131 94.466C543.75 95.1697 539.684 95.4032 533.839 92.0792C530.618 90.2474 528.123 89.5659 526.319 85.7143C523.346 79.3663 528.199 71.3934 531.332 65.8241C535.266 58.8312 543.238 53.0944 543.238 53.0944Z" fill="#002642"/>
<path d="M544.492 50.7077C544.492 50.7077 546.323 52.8354 547.625 53.0945C549.334 53.4347 549.028 52.2989 550.758 52.2989C552.011 52.2989 552.011 52.2989 552.638 51.5033C553.025 51.0121 553.344 49.9121 553.891 49.9121C554.518 49.9121 554.624 50.8967 554.518 51.5033C554.08 54.0044 551.515 54.4559 549.505 54.6857C547.055 54.9658 543.297 53.4783 543.238 53.0945C543.18 52.7107 543.177 52.4355 543.238 52.2989C543.51 51.6957 544.492 50.7077 544.492 50.7077Z" fill="#212121"/>
<path d="M544.492 52.299C544.492 52.299 542.799 47.7637 541.359 45.1386C539.675 42.0682 536.346 37.9781 536.346 37.9781C536.346 37.9781 543.239 36.8529 543.239 37.9781C543.239 39.5693 541.274 41.3431 541.985 42.7517C542.078 42.9345 543.239 42.7517 544.492 41.9561C545.745 41.1605 548.878 41.1605 548.878 42.7517C548.878 43.6838 548.589 44.2818 548.878 45.1386C549.151 45.9463 549.527 45.5074 550.132 45.9342C551.201 46.6886 553.159 46.3656 554.518 45.9342C557.025 45.1386 559.531 43.5473 559.531 43.5473L552.638 52.299C552.638 52.299 550.132 53.0946 548.878 53.0946C546.86 53.0946 544.492 52.299 544.492 52.299Z" fill="#002642"/>
<path d="M542.612 38.7736C542.492 37.8457 536.346 39.0616 536.346 37.978C536.346 37.1824 538.701 36.2224 540.732 35.5912C542.413 35.0688 545.745 34 545.745 34.7956C545.745 35.4904 545.825 36.3868 546.372 36.3868C546.999 36.3868 547.625 36.3868 548.878 36.3868C549.404 36.3868 549.563 35.9519 549.505 35.5912C549.481 35.4419 548.719 34.9982 548.878 34.7956C549.505 34 554.518 34 556.398 34C557.172 34 560.179 34.4219 560.158 36.3868C560.146 37.507 559.531 37.978 558.905 37.978C558.278 37.978 557.651 38.4656 557.651 38.7736C557.651 39.1851 558.905 39.5692 558.905 39.5692C559.491 39.9193 560.078 40.6292 560.158 41.1605C560.57 43.8897 558.905 44.3429 557.025 45.1385C554.922 46.0282 552.638 46.7297 551.385 46.7297C550.503 46.7297 549.505 46.7297 548.878 45.1385C548.252 43.5473 548.878 43.5473 548.878 42.7517C548.878 41.1982 546.302 41.4551 545.119 41.9561C543.239 42.7517 541.985 43.5473 541.359 42.7517C540.732 41.9561 542.64 38.9883 542.612 38.7736Z" fill="#053F69"/>
<path d="M539.479 68.2109C541.359 67.0175 544.801 67.2191 546.998 67.4152C549.968 67.6804 552.011 68.2109 553.891 69.0065C554.208 69.1405 553.035 70.5977 552.638 70.5977C551.385 70.5977 549.838 69.9572 547.625 69.8021C545.426 69.6479 542.612 69.0065 541.359 69.8021C541.049 69.9986 540.864 70.1914 540.732 70.5977C540.396 71.6336 542.995 72.0047 543.865 72.1889C546.72 72.7931 550.132 72.1889 552.638 72.9845C553.494 73.2562 553.976 73.6914 554.518 74.5757C554.854 75.1241 555.055 75.4816 555.145 76.1669C555.325 77.5375 555.292 77.5712 554.518 78.5538C554.325 78.7982 553.265 79.8503 552.011 80.145C549.114 80.8262 545.511 80.8119 542.612 80.145C540.626 79.6882 538.852 79.3494 537.599 78.5537C537.038 78.1979 537.678 76.8617 538.225 76.1669C538.852 75.3713 541.228 77.5454 543.239 77.7581C550.758 78.5538 551.385 77.7582 552.011 76.9625C552.256 76.6518 552.559 75.6032 552.011 75.3713C550.132 74.5757 542.612 75.2122 541.359 74.5757C540.342 74.0597 539.199 73.5723 538.852 72.9845C538.388 72.1985 538.147 71.5752 538.225 70.5977C538.314 69.4831 538.69 68.7118 539.479 68.2109Z" fill="#07691D"/>
<path d="M543.866 65.0285C544.043 64.8029 545.364 65.2027 545.119 65.8241C544.492 67.4153 544.374 68.5173 543.866 71.3933C543.113 75.6483 542.874 84.0306 542.613 84.123C541.903 84.374 540.106 84.5143 540.106 84.123C540.106 80.8427 540.411 77.2105 541.359 72.9845C542.081 69.7661 543.239 65.8241 543.866 65.0285Z" fill="#07691D"/>
<path d="M548.878 65.0286C549.404 65.2232 550.132 65.1295 550.132 65.8242C550.132 66.6199 550.651 70.1744 550.758 72.9847C550.947 77.9599 550.758 85.7144 550.132 85.7144C549.505 85.7144 547.625 84.6326 547.625 84.1232C547.625 83.3276 548.634 76.7519 548.878 72.9847C549.119 69.2688 548.353 64.8341 548.878 65.0286Z" fill="#07691D"/>
<path d="M519.426 62.6418L530.079 61.8462C530.079 61.8462 535.718 66.6198 540.731 74.5759C543.238 78.5539 546.784 85.8991 546.371 88.8968C545.626 94.3116 542.524 97.1249 538.852 100.035C537.847 100.831 531.345 103.459 526.319 104.013C519.938 104.717 515.871 104.951 510.026 101.627C506.805 99.7948 504.31 99.1133 502.507 95.2617C499.534 88.9137 504.386 80.9408 507.52 75.3715C511.454 68.3786 519.426 62.6418 519.426 62.6418Z" fill="#13649D"/>
<path d="M520.679 60.2551C520.679 60.2551 522.51 62.3828 523.812 62.6419C525.522 62.9821 525.215 61.8463 526.946 61.8463C528.199 61.8463 528.199 61.8463 528.825 61.0507C529.212 60.5594 529.532 59.4595 530.079 59.4595C530.705 59.4595 530.812 60.4441 530.705 61.0507C530.268 63.5518 527.702 64.0033 525.692 64.2331C523.243 64.5132 519.485 63.0257 519.426 62.6419C519.367 62.2581 519.364 61.9828 519.426 61.8463C519.697 61.2431 520.679 60.2551 520.679 60.2551Z" fill="#212121"/>
<path d="M520.679 61.8464C520.679 61.8464 518.986 57.3111 517.546 54.6859C515.862 51.6156 512.533 47.5255 512.533 47.5255C512.533 47.5255 519.426 46.4003 519.426 47.5255C519.426 49.1167 517.462 50.8905 518.173 52.2991C518.265 52.4818 519.426 52.2991 520.679 51.5035C521.933 50.7079 525.066 50.7079 525.066 52.2991C525.066 53.2312 524.777 53.8292 525.066 54.6859C525.339 55.4937 525.714 55.0547 526.319 55.4815C527.389 56.236 529.346 55.913 530.706 55.4815C533.212 54.6859 535.719 53.0947 535.719 53.0947L528.826 61.8464C528.826 61.8464 526.319 62.642 525.066 62.642C523.048 62.642 520.679 61.8464 520.679 61.8464Z" fill="#13649D"/>
<path d="M518.8 48.321C518.679 47.3931 512.533 48.609 512.533 47.5254C512.533 46.7298 514.889 45.7698 516.92 45.1386C518.6 44.6162 521.933 43.5474 521.933 44.343C521.933 45.0377 522.012 45.9342 522.559 45.9342C523.186 45.9342 523.813 45.9342 525.066 45.9342C525.592 45.9342 525.751 45.4993 525.693 45.1386C525.669 44.9893 524.906 44.5455 525.066 44.343C525.693 43.5474 530.706 43.5474 532.586 43.5474C533.359 43.5474 536.367 43.9693 536.345 45.9342C536.333 47.0543 535.719 47.5254 535.092 47.5254C534.466 47.5254 533.839 48.013 533.839 48.321C533.839 48.7324 535.092 49.1166 535.092 49.1166C535.678 49.4667 536.265 50.1766 536.345 50.7078C536.758 53.4371 535.092 53.8902 533.212 54.6859C531.11 55.5756 528.826 56.2771 527.573 56.2771C526.69 56.2771 525.693 56.2771 525.066 54.6859C524.439 53.0946 524.934 53.0946 524.934 52.299C524.934 50.7455 522.49 51.0024 521.306 51.5034C519.426 52.299 518.173 53.0946 517.546 52.299C516.92 51.5034 518.827 48.5357 518.8 48.321Z" fill="#1979BE"/>
<path d="M515.666 77.7582C517.546 76.5648 520.988 76.7665 523.185 76.9626C526.155 77.2277 528.198 77.7582 530.078 78.5538C530.395 78.6878 529.222 80.145 528.825 80.145C527.572 80.145 526.025 79.5046 523.812 79.3494C521.613 79.1953 518.799 78.5538 517.546 79.3494C517.236 79.5459 517.051 79.7387 516.919 80.1451C516.583 81.1809 519.182 81.5521 520.052 81.7363C522.907 82.3404 526.319 81.7363 528.825 82.5319C529.681 82.8036 530.163 83.2388 530.705 84.1231C531.041 84.6715 531.242 85.029 531.332 85.7143C531.512 87.0849 531.479 87.1186 530.705 88.1011C530.512 88.3456 529.452 89.3977 528.198 89.6923C525.301 90.3736 521.698 90.3593 518.799 89.6923C516.813 89.2356 515.039 88.8967 513.786 88.1011C513.225 87.7453 513.865 86.409 514.412 85.7143C515.039 84.9187 517.415 87.0927 519.426 87.3055C526.945 88.1011 527.572 87.3055 528.198 86.5099C528.443 86.1992 528.746 85.1505 528.198 84.9187C526.319 84.1231 518.799 84.7596 517.546 84.1231C516.529 83.607 515.386 83.1197 515.039 82.5319C514.575 81.7458 514.334 81.1226 514.412 80.145C514.501 79.0305 514.877 78.2592 515.666 77.7582Z" fill="#07691D"/>
<path d="M520.053 74.5758C520.23 74.3503 521.551 74.75 521.306 75.3714C520.679 76.9626 520.561 78.0647 520.053 80.9407C519.3 85.1957 519.061 93.5779 518.8 93.6704C518.09 93.9213 516.293 94.0617 516.293 93.6704C516.293 90.39 516.598 86.7579 517.546 82.5319C518.268 79.3135 519.426 75.3714 520.053 74.5758Z" fill="#07691D"/>
<path d="M525.066 74.576C525.591 74.7705 526.319 74.6769 526.319 75.3716C526.319 76.1672 526.839 79.7218 526.946 82.5321C527.135 87.5072 526.946 95.2618 526.319 95.2618C525.692 95.2618 523.813 94.1799 523.812 93.6706C523.812 92.875 524.822 86.2992 525.066 82.5321C525.306 78.8162 524.54 74.3815 525.066 74.576Z" fill="#07691D"/>
<path d="M565.797 59.4592L576.45 58.6636C576.45 58.6636 582.09 63.4372 587.103 71.3933C589.61 75.3713 593.155 82.7165 592.743 85.7142C591.997 91.129 588.896 93.9423 585.223 96.8527C584.219 97.6483 577.716 100.276 572.69 100.831C566.31 101.534 562.243 101.768 556.398 98.4439C553.177 96.6122 550.682 95.9307 548.878 92.0791C545.905 85.7311 550.758 77.7581 553.891 72.1889C557.825 65.196 565.797 59.4592 565.797 59.4592Z" fill="#13649D"/>
<path d="M567.05 57.0725C567.05 57.0725 568.882 59.2002 570.183 59.4593C571.893 59.7995 571.586 58.6637 573.317 58.6637C574.57 58.6637 574.57 58.6637 575.197 57.8681C575.584 57.3768 575.903 56.2769 576.45 56.2769C577.076 56.2769 577.183 57.2615 577.076 57.8681C576.639 60.3692 574.073 60.8207 572.063 61.0505C569.614 61.3305 565.856 59.8431 565.797 59.4593C565.738 59.0755 565.736 58.8002 565.797 58.6637C566.069 58.0605 567.05 57.0725 567.05 57.0725Z" fill="#212121"/>
<path d="M567.051 58.6638C567.051 58.6638 565.358 54.1285 563.918 51.5033C562.234 48.433 558.905 44.3428 558.905 44.3428C558.905 44.3428 565.798 43.2177 565.798 44.3428C565.798 45.9341 563.833 47.7079 564.545 49.1165C564.637 49.2992 565.798 49.1165 567.051 48.3209C568.304 47.5253 571.438 47.5253 571.438 49.1165C571.438 50.0486 571.148 50.6466 571.438 51.5033C571.71 52.3111 572.086 51.8721 572.691 52.2989C573.76 53.0534 575.718 52.7304 577.077 52.2989C579.584 51.5033 582.09 49.9121 582.09 49.9121L575.197 58.6638C575.197 58.6638 572.691 59.4594 571.438 59.4594C569.42 59.4594 567.051 58.6638 567.051 58.6638Z" fill="#13649D"/>
<path d="M565.171 45.1384C565.051 44.2105 558.905 45.4264 558.905 44.3428C558.905 43.5472 561.26 42.5872 563.291 41.956C564.972 41.4336 568.304 40.3647 568.304 41.1603C568.304 41.8551 568.384 42.7516 568.931 42.7516C569.558 42.7516 570.184 42.7516 571.438 42.7516C571.963 42.7516 572.122 42.3167 572.064 41.956C572.04 41.8067 571.278 41.3629 571.438 41.1604C572.064 40.3647 577.077 40.3647 578.957 40.3647C579.731 40.3647 582.738 40.7867 582.717 42.7516C582.705 43.8717 582.09 44.3428 581.464 44.3428C580.837 44.3428 580.21 44.8304 580.21 45.1384C580.21 45.5498 581.464 45.934 581.464 45.934C582.05 46.284 582.637 46.994 582.717 47.5252C583.129 50.2545 581.464 50.7076 579.584 51.5032C577.482 52.393 575.197 53.0945 573.944 53.0945C573.062 53.0945 572.064 53.0945 571.438 51.5032C570.811 49.912 571.438 50.0479 571.438 49.2523C571.438 47.6987 568.861 47.8198 567.678 48.3208C565.798 49.1164 564.545 49.912 563.918 49.1164C563.291 48.3208 565.199 45.3531 565.171 45.1384Z" fill="#1979BE"/>
<path d="M562.037 74.5756C563.917 73.3822 567.36 73.5839 569.557 73.78C572.527 74.0451 574.57 74.5756 576.45 75.3712C576.767 75.5052 575.593 76.9624 575.197 76.9624C573.943 76.9624 572.396 76.3219 570.184 76.1668C567.984 76.0127 565.17 75.3712 563.917 76.1668C563.608 76.3633 563.422 76.5561 563.291 76.9624C562.955 77.9983 565.553 78.3695 566.424 78.5537C569.279 79.1578 572.69 78.5537 575.197 79.3492C576.053 79.6209 576.535 80.0562 577.077 80.9405C577.413 81.4889 577.613 81.8464 577.703 82.5317C577.883 83.9023 577.85 83.936 577.077 84.9185C576.884 85.163 575.823 86.215 574.57 86.5097C571.673 87.191 568.07 87.1767 565.17 86.5097C563.185 86.0529 561.411 85.7141 560.157 84.9185C559.597 84.5627 560.237 83.2264 560.784 82.5317C561.411 81.7361 563.786 83.9101 565.797 84.1229C573.317 84.9185 573.943 84.1229 574.57 83.3273C574.815 83.0166 575.118 81.9679 574.57 81.7361C572.69 80.9405 565.17 81.577 563.917 80.9405C562.901 80.4244 561.758 79.937 561.411 79.3492C560.946 78.5632 560.706 77.9399 560.784 76.9624C560.873 75.8479 561.248 75.0766 562.037 74.5756Z" fill="#07691D"/>
<path d="M566.424 71.3932C566.602 71.1677 567.922 71.5674 567.677 72.1888C567.051 73.78 566.933 74.8821 566.424 77.7581C565.671 82.0131 565.432 90.3953 565.171 90.4878C564.461 90.7387 562.664 90.8791 562.664 90.4878C562.664 87.2074 562.969 83.5753 563.917 79.3493C564.639 76.1308 565.797 72.1888 566.424 71.3932Z" fill="#07691D"/>
<path d="M571.438 71.3934C571.963 71.5879 572.691 71.4942 572.691 72.189C572.691 72.9846 573.211 76.5392 573.318 79.3495C573.507 84.3246 573.318 92.0792 572.691 92.0792C572.064 92.0792 570.185 90.9973 570.185 90.4879C570.185 89.6923 571.194 83.1166 571.438 79.3495C571.678 75.6335 570.913 71.1989 571.438 71.3934Z" fill="#07691D"/>
<path d="M13.0916 29.8346C15.2371 28.4 18.6083 27.9004 18.6083 27.9004V32.4135C18.6083 32.4135 15.919 32.7745 13.4594 35.6371C10.9998 38.4997 9.99976 43.9997 9.99976 47.9997C9.99976 51.9997 11.7353 65.9997 13.4594 71.4196C14.9118 75.9854 14.3111 79.2171 14.4998 83.9997C14.6239 87.1476 14.4998 91.7285 14.4998 91.7285C14.4998 91.7285 11.9001 92.0231 10.885 92.0509C9.585 92.0865 7.99976 92.0509 7.99976 92.0509C7.99976 92.0509 8.36763 85.5128 7.99976 80.9997C7.70222 77.3495 7.39822 76.6425 6.99976 72.9997C6.47438 68.1967 5.44527 63.9791 5.00051 59.1697C4.47819 53.5218 4.2647 50.7883 4.63264 44.9857C4.84724 41.6012 5.42569 39.2905 7.20718 36.2819C8.71592 33.7338 10.4876 31.5758 13.0916 29.8346Z" fill="#504A53"/>
<path d="M22.2865 35.9419C23.0221 35.8046 23.0218 32.4137 23.0218 32.4137L34.4229 32.0913C34.4229 32.0913 34.4225 35.7588 35.1579 35.9419C42.8807 37.8642 43.2485 38.8254 44.3518 41.3884V93.291C38.8124 96.2448 31.3507 96.3907 24.8609 96.1745C19.0491 95.9808 13.4605 93.291 13.4605 93.291V41.0681C13.4605 41.0681 13.0927 37.6582 22.2865 35.9419Z" fill="#EC3838"/>
<path d="M13.459 65.6172C13.459 65.6172 21.5501 67.5514 29.2734 67.5514C36.9967 67.5514 44.3523 65.6172 44.3523 65.6172V71.7421C44.3523 71.7421 37.7323 73.9987 28.5378 73.9987C19.3434 73.9987 13.459 71.7421 13.459 71.7421V65.6172Z" fill="#EC3838"/>
<path d="M13.459 65.6172C13.459 65.6172 21.5501 67.5514 29.2734 67.5514C36.9967 67.5514 44.3523 65.6172 44.3523 65.6172V71.7421C44.3523 71.7421 37.7323 73.9987 28.5378 73.9987C19.3434 73.9987 13.459 71.7421 13.459 71.7421V65.6172Z" fill="#EC3838"/>
<path d="M13.459 44.9858C13.459 44.9858 21.1823 46.2753 28.9056 46.2753C36.6289 46.2753 44.3523 44.9858 44.3523 44.9858V65.6172C44.3523 65.6172 38.4678 67.5513 29.2734 67.5513C20.079 67.5513 13.459 65.6172 13.459 65.6172V44.9858Z" fill="#D7D7D7"/>
<path d="M13.459 44.9858C13.459 44.9858 21.1823 46.2753 28.9056 46.2753C36.6289 46.2753 44.3523 44.9858 44.3523 44.9858V65.6172C44.3523 65.6172 38.4678 67.5513 29.2734 67.5513C20.079 67.5513 13.459 65.6172 13.459 65.6172V44.9858Z" fill="#D7D7D7"/>
<path d="M13.459 87.8604C13.459 87.8604 20.8145 89.7945 28.5378 89.7945C36.2612 89.7945 44.3523 87.8604 44.3523 87.8604V93.9853C44.3523 93.9853 38.4678 96.5642 28.9056 96.5642C19.3434 96.5642 13.459 93.9853 13.459 93.9853V87.8604Z" fill="#D7D7D7"/>
<path d="M13.459 87.8604C13.459 87.8604 20.8145 89.7945 28.5378 89.7945C36.2612 89.7945 44.3523 87.8604 44.3523 87.8604V93.9853C44.3523 93.9853 38.1 96.5642 28.9056 96.5642C19.7112 96.5642 13.459 93.9853 13.459 93.9853V87.8604Z" fill="#D7D7D7"/>
<path d="M13.459 71.7422C13.459 71.7422 20.8145 73.9987 28.5378 73.9987C36.2612 73.9987 44.3523 71.7422 44.3523 71.7422V79.1566C44.3523 79.1566 37.7323 81.4131 28.5378 81.4131C19.3434 81.4131 13.459 79.1566 13.459 79.1566V71.7422Z" fill="#D7D7D7"/>
<path d="M13.459 71.7422C13.459 71.7422 20.8145 73.9987 28.5378 73.9987C36.2612 73.9987 44.3523 71.7422 44.3523 71.7422V79.1566C44.3523 79.1566 37.7323 81.4131 28.5378 81.4131C19.3434 81.4131 13.459 79.1566 13.459 79.1566V71.7422Z" fill="#D7D7D7"/>
<ellipse cx="28.9059" cy="56.5908" rx="11.0333" ry="9.34857" fill="#EC1F1F"/>
<path d="M25.9642 58.525C26.1276 58.525 25.4448 56.5518 25.9642 54.979C26.587 53.0937 29.1295 50.1436 29.1295 50.1436C31.4809 53.6896 31.8487 55.6237 31.1131 57.5579C31.1131 57.5579 31.8594 57.242 32.2164 56.9132C33.2116 55.9968 32.5842 53.6896 32.5842 53.6896C32.5842 53.6896 35.2612 55.0921 35.1586 58.2027C35.0676 60.9625 32.7757 63.0807 29.642 63.3605C26.4694 63.6437 23.6208 61.9153 23.022 59.1698C22.3892 56.2685 24.4931 54.3343 24.4931 54.3343C24.4931 54.3343 24.861 58.525 25.9642 58.525Z" fill="#F1D106"/>
<path d="M30.3775 56.2688C30.3815 55.2248 30.0097 52.4004 30.0097 52.4004C30.0097 52.4004 30.6255 54.2738 30.7576 55.2255C30.8803 56.1092 30.9148 56.8028 30.3775 57.5582C30.1495 57.8787 29.6543 58.2029 29.6543 58.2029C29.6543 58.2029 30.3735 57.2832 30.3775 56.2688Z" fill="#F8881C"/>
<path d="M34.0673 57.8806C34.0713 56.8366 33.6871 55.624 33.6871 55.624C33.6871 55.624 34.6583 56.6065 34.7904 57.5582C34.9131 58.4419 34.5589 59.1341 34.4227 59.4924C34.3386 59.7133 33.3193 61.1042 33.3193 61.1042C33.3193 61.1042 34.0633 58.895 34.0673 57.8806Z" fill="#F9891B"/>
<path d="M24.4305 59.263C24.1084 58.2579 23.7569 56.9134 23.7569 56.9134C23.7569 56.9134 23.4726 58.1736 23.6353 59.1217C23.7864 60.002 24.3387 60.5861 24.5792 60.8995C24.7275 61.0927 26.1337 62.1944 26.1337 62.1944C26.1337 62.1944 24.7435 60.2397 24.4305 59.263Z" fill="#F9891B"/>
<path d="M30.377 24.6768L57.9602 28.5451L57.5925 32.7359L32.5836 29.5122L30.377 24.6768Z" fill="#ADADAD"/>
<path d="M25.5962 24.0321C25.5962 24.0321 34.9171 21.351 41.0428 20.1638C47.4295 18.926 57.5928 17.9072 57.5928 17.9072V22.098C57.5928 22.098 46.1917 23.7098 39.2039 24.9992C35.6484 25.6553 31.4806 27.2558 31.4806 27.2558L25.5962 26.9334V24.0321Z" fill="#C5C4C4"/>
<ellipse cx="30.0091" cy="24.3543" rx="1.10333" ry="0.967093" fill="#D9D9D9"/>
<rect x="18.6084" y="27.2559" width="8.0911" height="5.80256" fill="#ADADAD"/>
<rect x="4.63281" y="71.7422" width="8.82665" height="5.80256" fill="#ADADAD"/>
<ellipse cx="28.5383" cy="30.8018" rx="6.25221" ry="4.83547" fill="#919191"/>
<ellipse cx="28.5382" cy="30.8017" rx="4.04555" ry="2.90128" fill="#504A53"/>
<path d="M42.5194 86.3971C42.5194 86.3971 47.017 68.9315 64.6842 69.309C80.4719 69.6464 83.8181 88.7963 83.8181 88.7963C83.8181 88.7963 77.8756 96.0041 62.3095 94.9534C46.7435 93.9026 42.5194 86.3971 42.5194 86.3971Z" fill="#F4AE1B"/>
<path d="M43.5116 87.5408C43.5116 87.5408 47.9155 71.0447 64.1303 71.431C78.6201 71.7763 82.2798 90.3557 82.2798 90.3557C82.2798 90.3557 80.7582 93.0122 71.9783 94.6766C69.1896 95.2052 65.821 95.3293 61.9472 95.0125C58.7644 94.7522 56.0328 94.1076 53.7454 93.4032C46.4531 91.1577 43.5116 87.5408 43.5116 87.5408Z" fill="#D81012"/>
<path d="M59.7808 69.1307C60.4586 68.8007 62.1771 68.676 64.1867 68.7349C65.3161 68.768 67.3899 68.8141 69.2922 69.864C70.1403 70.3321 69.4746 72.7859 69.9913 81.8843C70.4895 90.6579 72.2537 93.9758 71.9104 94.3602C71.0044 95.3748 62.309 94.9535 62.309 94.9535C62.309 94.9535 54.4465 94.9332 53.7466 93.4082C53.6094 93.1092 55.8083 87.3364 56.7748 83.0715C58.1225 77.1243 58.7641 69.6256 59.7808 69.1307Z" fill="#E3C64C"/>
<path d="M42.5193 86.3968C42.5193 86.3968 43.232 87.3195 43.5132 87.5455C45.3647 89.0333 48.4321 91.7155 53.747 93.4078C56.214 94.1933 59.0003 94.7012 62.6716 94.8935C66.2797 95.0826 69.331 94.8063 71.9112 94.3597C80.6075 92.8542 83.8187 88.7959 83.8187 88.7959C83.8187 88.7959 91.2288 90.2024 91.8386 93.054C93.058 98.7573 74.2689 103.753 61.7672 102.914C49.2622 102.074 30.567 95.2477 34.1824 89.4062C35.8487 86.7138 42.5193 86.3968 42.5193 86.3968Z" fill="#CC0A0C"/>
<path d="M37.6992 91.4609C37.6992 91.4609 45.5779 98.9546 63.0313 100.082C78.2082 101.063 89.7361 93.7275 89.7361 93.7275" stroke="#AC0E0F"/>
<path d="M55.5999 79.3287C56.0955 78.9193 60.3962 77.8927 63.5525 78.0223C66.9537 78.1619 71.3959 79.7044 71.8889 80.2606C72.3819 80.8169 72.4885 86.0656 72.2272 87.0925C71.6176 89.4885 63.7224 94.3932 62.6021 94.5773C62.2414 94.6365 54.041 87.7842 54.0637 86.1406C54.0864 84.4969 55.1043 79.738 55.5999 79.3287Z" fill="#D7D7D7"/>
<path d="M58.073 85.6442C57.7708 85.2269 57.8237 84.6673 58.1962 84.3408L62.7878 80.3169C63.197 79.9582 63.8405 80.0099 64.2201 80.4318L68.3183 84.9867C68.6663 85.3735 68.6739 85.9431 68.3359 86.3087L63.6795 91.3451C63.2549 91.8043 62.4888 91.7393 62.1064 91.2115L58.073 85.6442Z" fill="#D81012"/>
</g>
<defs>
<clipPath id="clip0_456_935">
<rect width="595" height="155" fill="white"/>
</clipPath>
</defs>
</svg>
