<svg width="130" height="120" viewBox="0 0 130 120" fill="none" xmlns="http://www.w3.org/2000/svg">
<ellipse cx="66.582" cy="60" rx="62.5" ry="60" fill="#1B1B3B"/>
<circle cx="67.082" cy="68" r="45" fill="#3D729E"/>
<circle cx="66.582" cy="74.5" r="32.5" fill="#002642"/>
<ellipse cx="67.082" cy="77.5" rx="22" ry="21.5" fill="#F0AD15"/>
<path d="M59.53 85H57.37V73.432H59.53V85ZM65.88 79.248C66.2747 79.248 66.6187 79.2 66.912 79.104C67.2054 79.0027 67.448 78.8613 67.64 78.68C67.8374 78.4933 67.984 78.2693 68.08 78.008C68.176 77.7413 68.224 77.4453 68.224 77.12C68.224 76.8107 68.176 76.5307 68.08 76.28C67.984 76.0293 67.84 75.816 67.648 75.64C67.456 75.464 67.2134 75.3307 66.92 75.24C66.6267 75.144 66.28 75.096 65.88 75.096H64.272V79.248H65.88ZM65.88 73.432C66.6534 73.432 67.3227 73.5227 67.888 73.704C68.4534 73.8853 68.92 74.1387 69.288 74.464C69.656 74.7893 69.928 75.1787 70.104 75.632C70.2854 76.0853 70.376 76.5813 70.376 77.12C70.376 77.68 70.2827 78.1947 70.096 78.664C69.9094 79.128 69.6294 79.528 69.256 79.864C68.8827 80.2 68.4134 80.4613 67.848 80.648C67.288 80.8347 66.632 80.928 65.88 80.928H64.272V85H62.12V73.432H65.88ZM78.8023 83.224V85H72.0263V73.432H74.1783V83.224H78.8023Z" fill="white"/>
<path d="M46.577 15.105C46.7037 15.105 46.8137 15.0892 46.907 15.0575C47.002 15.0258 47.0795 14.9825 47.1395 14.9275C47.2012 14.8708 47.247 14.8042 47.277 14.7275C47.307 14.6508 47.322 14.5667 47.322 14.475C47.322 14.2917 47.2612 14.1508 47.1395 14.0525C47.0195 13.9542 46.8354 13.905 46.587 13.905H46.157V15.105H46.577ZM48.307 17H47.6995C47.5845 17 47.5012 16.955 47.4495 16.865L46.6895 15.7075C46.6612 15.6642 46.6295 15.6333 46.5945 15.615C46.5612 15.5967 46.5112 15.5875 46.4445 15.5875H46.157V17H45.4845V13.385H46.587C46.832 13.385 47.042 13.4108 47.217 13.4625C47.3937 13.5125 47.5379 13.5833 47.6495 13.675C47.7629 13.7667 47.8462 13.8767 47.8995 14.005C47.9529 14.1317 47.9795 14.2717 47.9795 14.425C47.9795 14.5467 47.9612 14.6617 47.9245 14.77C47.8895 14.8783 47.8379 14.9767 47.7695 15.065C47.7029 15.1533 47.6195 15.2308 47.5195 15.2975C47.4212 15.3642 47.3087 15.4167 47.182 15.455C47.2254 15.48 47.2654 15.51 47.302 15.545C47.3387 15.5783 47.372 15.6183 47.402 15.665L48.307 17ZM50.0864 15.4225C50.0864 15.3425 50.0747 15.2675 50.0514 15.1975C50.0297 15.1258 49.9964 15.0633 49.9514 15.01C49.9064 14.9567 49.8489 14.915 49.7789 14.885C49.7106 14.8533 49.6306 14.8375 49.5389 14.8375C49.3606 14.8375 49.2197 14.8883 49.1164 14.99C49.0147 15.0917 48.9497 15.2358 48.9214 15.4225H50.0864ZM48.9089 15.795C48.9189 15.9267 48.9422 16.0408 48.9789 16.1375C49.0156 16.2325 49.0639 16.3117 49.1239 16.375C49.1839 16.4367 49.2547 16.4833 49.3364 16.515C49.4197 16.545 49.5114 16.56 49.6114 16.56C49.7114 16.56 49.7972 16.5483 49.8689 16.525C49.9422 16.5017 50.0056 16.4758 50.0589 16.4475C50.1139 16.4192 50.1614 16.3933 50.2014 16.37C50.2431 16.3467 50.2831 16.335 50.3214 16.335C50.3731 16.335 50.4114 16.3542 50.4364 16.3925L50.6139 16.6175C50.5456 16.6975 50.4689 16.765 50.3839 16.82C50.2989 16.8733 50.2097 16.9167 50.1164 16.95C50.0247 16.9817 49.9306 17.0042 49.8339 17.0175C49.7389 17.0308 49.6464 17.0375 49.5564 17.0375C49.3781 17.0375 49.2122 17.0083 49.0589 16.95C48.9056 16.89 48.7722 16.8025 48.6589 16.6875C48.5456 16.5708 48.4564 16.4275 48.3914 16.2575C48.3264 16.0858 48.2939 15.8875 48.2939 15.6625C48.2939 15.4875 48.3222 15.3233 48.3789 15.17C48.4356 15.015 48.5164 14.8808 48.6214 14.7675C48.7281 14.6525 48.8572 14.5617 49.0089 14.495C49.1622 14.4283 49.3347 14.395 49.5264 14.395C49.6881 14.395 49.8372 14.4208 49.9739 14.4725C50.1106 14.5242 50.2281 14.6 50.3264 14.7C50.4247 14.7983 50.5014 14.92 50.5564 15.065C50.6131 15.2083 50.6414 15.3725 50.6414 15.5575C50.6414 15.6508 50.6314 15.7142 50.6114 15.7475C50.5914 15.7792 50.5531 15.795 50.4964 15.795H48.9089ZM51.7298 13.285V17H51.1123V13.285H51.7298ZM53.9975 15.4225C53.9975 15.3425 53.9859 15.2675 53.9625 15.1975C53.9409 15.1258 53.9075 15.0633 53.8625 15.01C53.8175 14.9567 53.76 14.915 53.69 14.885C53.6217 14.8533 53.5417 14.8375 53.45 14.8375C53.2717 14.8375 53.1309 14.8883 53.0275 14.99C52.9259 15.0917 52.8609 15.2358 52.8325 15.4225H53.9975ZM52.82 15.795C52.83 15.9267 52.8534 16.0408 52.89 16.1375C52.9267 16.2325 52.975 16.3117 53.035 16.375C53.095 16.4367 53.1659 16.4833 53.2475 16.515C53.3309 16.545 53.4225 16.56 53.5225 16.56C53.6225 16.56 53.7084 16.5483 53.78 16.525C53.8534 16.5017 53.9167 16.4758 53.97 16.4475C54.025 16.4192 54.0725 16.3933 54.1125 16.37C54.1542 16.3467 54.1942 16.335 54.2325 16.335C54.2842 16.335 54.3225 16.3542 54.3475 16.3925L54.525 16.6175C54.4567 16.6975 54.38 16.765 54.295 16.82C54.21 16.8733 54.1209 16.9167 54.0275 16.95C53.9359 16.9817 53.8417 17.0042 53.745 17.0175C53.65 17.0308 53.5575 17.0375 53.4675 17.0375C53.2892 17.0375 53.1234 17.0083 52.97 16.95C52.8167 16.89 52.6834 16.8025 52.57 16.6875C52.4567 16.5708 52.3675 16.4275 52.3025 16.2575C52.2375 16.0858 52.205 15.8875 52.205 15.6625C52.205 15.4875 52.2334 15.3233 52.29 15.17C52.3467 15.015 52.4275 14.8808 52.5325 14.7675C52.6392 14.6525 52.7684 14.5617 52.92 14.495C53.0734 14.4283 53.2459 14.395 53.4375 14.395C53.5992 14.395 53.7484 14.4208 53.885 14.4725C54.0217 14.5242 54.1392 14.6 54.2375 14.7C54.3359 14.7983 54.4125 14.92 54.4675 15.065C54.5242 15.2083 54.5525 15.3725 54.5525 15.5575C54.5525 15.6508 54.5425 15.7142 54.5225 15.7475C54.5025 15.7792 54.4642 15.795 54.4075 15.795H52.82ZM55.5934 14.75C55.6451 14.6983 55.6993 14.6508 55.7559 14.6075C55.8143 14.5625 55.8751 14.525 55.9384 14.495C56.0034 14.4633 56.0726 14.4392 56.1459 14.4225C56.2193 14.4042 56.2993 14.395 56.3859 14.395C56.5259 14.395 56.6501 14.4192 56.7584 14.4675C56.8668 14.5142 56.9568 14.5808 57.0284 14.6675C57.1018 14.7525 57.1568 14.855 57.1934 14.975C57.2318 15.0933 57.2509 15.2242 57.2509 15.3675V17H56.6334V15.3675C56.6334 15.2108 56.5976 15.09 56.5259 15.005C56.4543 14.9183 56.3451 14.875 56.1984 14.875C56.0918 14.875 55.9918 14.8992 55.8984 14.9475C55.8051 14.9958 55.7168 15.0617 55.6334 15.145V17H55.0159V14.435H55.3934C55.4734 14.435 55.5259 14.4725 55.5509 14.5475L55.5934 14.75ZM58.659 17.04C58.4357 17.04 58.264 16.9775 58.144 16.8525C58.0257 16.7258 57.9665 16.5517 57.9665 16.33V14.8975H57.704C57.6707 14.8975 57.6424 14.8867 57.619 14.865C57.5957 14.8433 57.584 14.8108 57.584 14.7675V14.5225L57.9965 14.455L58.1265 13.755C58.1349 13.7217 58.1507 13.6958 58.174 13.6775C58.1974 13.6592 58.2274 13.65 58.264 13.65H58.584V14.4575H59.269V14.8975H58.584V16.2875C58.584 16.3675 58.6032 16.43 58.6415 16.475C58.6815 16.52 58.7357 16.5425 58.804 16.5425C58.8424 16.5425 58.874 16.5383 58.899 16.53C58.9257 16.52 58.9482 16.51 58.9665 16.5C58.9865 16.49 59.004 16.4808 59.019 16.4725C59.034 16.4625 59.049 16.4575 59.064 16.4575C59.0824 16.4575 59.0974 16.4625 59.109 16.4725C59.1207 16.4808 59.1332 16.4942 59.1465 16.5125L59.3315 16.8125C59.2415 16.8875 59.1382 16.9442 59.0215 16.9825C58.9049 17.0208 58.784 17.04 58.659 17.04ZM60.2894 13.285V17H59.6719V13.285H60.2894ZM62.5571 15.4225C62.5571 15.3425 62.5454 15.2675 62.5221 15.1975C62.5004 15.1258 62.4671 15.0633 62.4221 15.01C62.3771 14.9567 62.3196 14.915 62.2496 14.885C62.1813 14.8533 62.1013 14.8375 62.0096 14.8375C61.8313 14.8375 61.6904 14.8883 61.5871 14.99C61.4854 15.0917 61.4204 15.2358 61.3921 15.4225H62.5571ZM61.3796 15.795C61.3896 15.9267 61.4129 16.0408 61.4496 16.1375C61.4863 16.2325 61.5346 16.3117 61.5946 16.375C61.6546 16.4367 61.7254 16.4833 61.8071 16.515C61.8904 16.545 61.9821 16.56 62.0821 16.56C62.1821 16.56 62.2679 16.5483 62.3396 16.525C62.4129 16.5017 62.4763 16.4758 62.5296 16.4475C62.5846 16.4192 62.6321 16.3933 62.6721 16.37C62.7138 16.3467 62.7538 16.335 62.7921 16.335C62.8438 16.335 62.8821 16.3542 62.9071 16.3925L63.0846 16.6175C63.0163 16.6975 62.9396 16.765 62.8546 16.82C62.7696 16.8733 62.6804 16.9167 62.5871 16.95C62.4954 16.9817 62.4013 17.0042 62.3046 17.0175C62.2096 17.0308 62.1171 17.0375 62.0271 17.0375C61.8488 17.0375 61.6829 17.0083 61.5296 16.95C61.3763 16.89 61.2429 16.8025 61.1296 16.6875C61.0163 16.5708 60.9271 16.4275 60.8621 16.2575C60.7971 16.0858 60.7646 15.8875 60.7646 15.6625C60.7646 15.4875 60.7929 15.3233 60.8496 15.17C60.9063 15.015 60.9871 14.8808 61.0921 14.7675C61.1988 14.6525 61.3279 14.5617 61.4796 14.495C61.6329 14.4283 61.8054 14.395 61.9971 14.395C62.1588 14.395 62.3079 14.4208 62.4446 14.4725C62.5813 14.5242 62.6988 14.6 62.7971 14.7C62.8954 14.7983 62.9721 14.92 63.0271 15.065C63.0838 15.2083 63.1121 15.3725 63.1121 15.5575C63.1121 15.6508 63.1021 15.7142 63.0821 15.7475C63.0621 15.7792 63.0238 15.795 62.9671 15.795H61.3796ZM65.1405 14.935C65.1238 14.9617 65.1063 14.9808 65.088 14.9925C65.0697 15.0025 65.0463 15.0075 65.018 15.0075C64.988 15.0075 64.9555 14.9992 64.9205 14.9825C64.8872 14.9658 64.848 14.9475 64.803 14.9275C64.758 14.9058 64.7063 14.8867 64.648 14.87C64.5913 14.8533 64.5238 14.845 64.4455 14.845C64.3238 14.845 64.228 14.8708 64.158 14.9225C64.0897 14.9742 64.0555 15.0417 64.0555 15.125C64.0555 15.18 64.073 15.2267 64.108 15.265C64.1447 15.3017 64.1922 15.3342 64.2505 15.3625C64.3105 15.3908 64.378 15.4167 64.453 15.44C64.528 15.4617 64.6038 15.4858 64.6805 15.5125C64.7588 15.5392 64.8355 15.57 64.9105 15.605C64.9855 15.6383 65.0522 15.6817 65.1105 15.735C65.1705 15.7867 65.218 15.8492 65.253 15.9225C65.2897 15.9958 65.308 16.0842 65.308 16.1875C65.308 16.3108 65.2855 16.425 65.2405 16.53C65.1972 16.6333 65.1322 16.7233 65.0455 16.8C64.9588 16.875 64.8513 16.9342 64.723 16.9775C64.5963 17.0192 64.4497 17.04 64.283 17.04C64.1947 17.04 64.108 17.0317 64.023 17.015C63.9397 17 63.8588 16.9783 63.7805 16.95C63.7038 16.9217 63.6322 16.8883 63.5655 16.85C63.5005 16.8117 63.443 16.77 63.393 16.725L63.5355 16.49C63.5538 16.4617 63.5755 16.44 63.6005 16.425C63.6255 16.41 63.6572 16.4025 63.6955 16.4025C63.7338 16.4025 63.7697 16.4133 63.803 16.435C63.838 16.4567 63.878 16.48 63.923 16.505C63.968 16.53 64.0205 16.5533 64.0805 16.575C64.1422 16.5967 64.2197 16.6075 64.313 16.6075C64.3863 16.6075 64.4488 16.5992 64.5005 16.5825C64.5538 16.5642 64.5972 16.5408 64.6305 16.5125C64.6655 16.4842 64.6905 16.4517 64.7055 16.415C64.7222 16.3767 64.7305 16.3375 64.7305 16.2975C64.7305 16.2375 64.7122 16.1883 64.6755 16.15C64.6405 16.1117 64.593 16.0783 64.533 16.05C64.4747 16.0217 64.4072 15.9967 64.3305 15.975C64.2555 15.9517 64.178 15.9267 64.098 15.9C64.0197 15.8733 63.9422 15.8425 63.8655 15.8075C63.7905 15.7708 63.723 15.725 63.663 15.67C63.6047 15.615 63.5572 15.5475 63.5205 15.4675C63.4855 15.3875 63.468 15.2908 63.468 15.1775C63.468 15.0725 63.4888 14.9725 63.5305 14.8775C63.5722 14.7825 63.633 14.7 63.713 14.63C63.7947 14.5583 63.8955 14.5017 64.0155 14.46C64.1372 14.4167 64.2772 14.395 64.4355 14.395C64.6122 14.395 64.773 14.4242 64.918 14.4825C65.063 14.5408 65.1838 14.6175 65.2805 14.7125L65.1405 14.935ZM67.3378 14.935C67.3211 14.9617 67.3036 14.9808 67.2853 14.9925C67.2669 15.0025 67.2436 15.0075 67.2153 15.0075C67.1853 15.0075 67.1528 14.9992 67.1178 14.9825C67.0844 14.9658 67.0453 14.9475 67.0003 14.9275C66.9553 14.9058 66.9036 14.8867 66.8453 14.87C66.7886 14.8533 66.7211 14.845 66.6428 14.845C66.5211 14.845 66.4253 14.8708 66.3553 14.9225C66.2869 14.9742 66.2528 15.0417 66.2528 15.125C66.2528 15.18 66.2703 15.2267 66.3053 15.265C66.3419 15.3017 66.3894 15.3342 66.4478 15.3625C66.5078 15.3908 66.5753 15.4167 66.6503 15.44C66.7253 15.4617 66.8011 15.4858 66.8778 15.5125C66.9561 15.5392 67.0328 15.57 67.1078 15.605C67.1828 15.6383 67.2494 15.6817 67.3078 15.735C67.3678 15.7867 67.4153 15.8492 67.4503 15.9225C67.4869 15.9958 67.5053 16.0842 67.5053 16.1875C67.5053 16.3108 67.4828 16.425 67.4378 16.53C67.3944 16.6333 67.3294 16.7233 67.2428 16.8C67.1561 16.875 67.0486 16.9342 66.9203 16.9775C66.7936 17.0192 66.6469 17.04 66.4803 17.04C66.3919 17.04 66.3053 17.0317 66.2203 17.015C66.1369 17 66.0561 16.9783 65.9778 16.95C65.9011 16.9217 65.8294 16.8883 65.7628 16.85C65.6978 16.8117 65.6403 16.77 65.5903 16.725L65.7328 16.49C65.7511 16.4617 65.7728 16.44 65.7978 16.425C65.8228 16.41 65.8544 16.4025 65.8928 16.4025C65.9311 16.4025 65.9669 16.4133 66.0003 16.435C66.0353 16.4567 66.0753 16.48 66.1203 16.505C66.1653 16.53 66.2178 16.5533 66.2778 16.575C66.3394 16.5967 66.4169 16.6075 66.5103 16.6075C66.5836 16.6075 66.6461 16.5992 66.6978 16.5825C66.7511 16.5642 66.7944 16.5408 66.8278 16.5125C66.8628 16.4842 66.8878 16.4517 66.9028 16.415C66.9194 16.3767 66.9278 16.3375 66.9278 16.2975C66.9278 16.2375 66.9094 16.1883 66.8728 16.15C66.8378 16.1117 66.7903 16.0783 66.7303 16.05C66.6719 16.0217 66.6044 15.9967 66.5278 15.975C66.4528 15.9517 66.3753 15.9267 66.2953 15.9C66.2169 15.8733 66.1394 15.8425 66.0628 15.8075C65.9878 15.7708 65.9203 15.725 65.8603 15.67C65.8019 15.615 65.7544 15.5475 65.7178 15.4675C65.6828 15.3875 65.6653 15.2908 65.6653 15.1775C65.6653 15.0725 65.6861 14.9725 65.7278 14.8775C65.7694 14.7825 65.8303 14.7 65.9103 14.63C65.9919 14.5583 66.0928 14.5017 66.2128 14.46C66.3344 14.4167 66.4744 14.395 66.6328 14.395C66.8094 14.395 66.9703 14.4242 67.1153 14.4825C67.2603 14.5408 67.3811 14.6175 67.4778 14.7125L67.3378 14.935ZM70.6359 16.475C70.7609 16.475 70.8659 16.46 70.9509 16.43C71.0359 16.4 71.1034 16.36 71.1534 16.31C71.205 16.26 71.2417 16.2017 71.2634 16.135C71.2867 16.0683 71.2984 15.9975 71.2984 15.9225C71.2984 15.8442 71.2859 15.7742 71.2609 15.7125C71.2359 15.6492 71.1967 15.5958 71.1434 15.5525C71.09 15.5075 71.0209 15.4733 70.9359 15.45C70.8525 15.4267 70.7517 15.415 70.6334 15.415H69.9559V16.475H70.6359ZM69.9559 13.905V14.95H70.4909C70.7209 14.95 70.8942 14.9083 71.0109 14.825C71.1292 14.7417 71.1884 14.6092 71.1884 14.4275C71.1884 14.2392 71.135 14.105 71.0284 14.025C70.9217 13.945 70.755 13.905 70.5284 13.905H69.9559ZM70.5284 13.385C70.765 13.385 70.9675 13.4075 71.1359 13.4525C71.3042 13.4975 71.4417 13.5617 71.5484 13.645C71.6567 13.7283 71.7359 13.8292 71.7859 13.9475C71.8359 14.0658 71.8609 14.1992 71.8609 14.3475C71.8609 14.4325 71.8484 14.5142 71.8234 14.5925C71.7984 14.6692 71.7592 14.7417 71.7059 14.81C71.6542 14.8767 71.5875 14.9375 71.5059 14.9925C71.4259 15.0475 71.33 15.0942 71.2184 15.1325C71.715 15.2442 71.9634 15.5125 71.9634 15.9375C71.9634 16.0908 71.9342 16.2325 71.8759 16.3625C71.8175 16.4925 71.7325 16.605 71.6209 16.7C71.5092 16.7933 71.3717 16.8667 71.2084 16.92C71.045 16.9733 70.8584 17 70.6484 17H69.2834V13.385H70.5284ZM73.0105 14.88C73.0905 14.7267 73.1855 14.6067 73.2955 14.52C73.4055 14.4317 73.5355 14.3875 73.6855 14.3875C73.8039 14.3875 73.8989 14.4133 73.9705 14.465L73.9305 14.9275C73.9222 14.9575 73.9097 14.9792 73.893 14.9925C73.878 15.0042 73.8572 15.01 73.8305 15.01C73.8055 15.01 73.768 15.0058 73.718 14.9975C73.6697 14.9892 73.6222 14.985 73.5755 14.985C73.5072 14.985 73.4464 14.995 73.393 15.015C73.3397 15.035 73.2914 15.0642 73.248 15.1025C73.2064 15.1392 73.1689 15.1842 73.1355 15.2375C73.1039 15.2908 73.0739 15.3517 73.0455 15.42V17H72.428V14.435H72.7905C72.8539 14.435 72.898 14.4467 72.923 14.47C72.948 14.4917 72.9647 14.5317 72.973 14.59L73.0105 14.88ZM75.6141 15.905C75.4358 15.9133 75.2858 15.9292 75.1641 15.9525C75.0424 15.9742 74.9449 16.0025 74.8716 16.0375C74.7983 16.0725 74.7458 16.1133 74.7141 16.16C74.6824 16.2067 74.6666 16.2575 74.6666 16.3125C74.6666 16.4208 74.6983 16.4983 74.7616 16.545C74.8266 16.5917 74.9108 16.615 75.0141 16.615C75.1408 16.615 75.2499 16.5925 75.3416 16.5475C75.4349 16.5008 75.5258 16.4308 75.6141 16.3375V15.905ZM74.1991 14.7925C74.4941 14.5225 74.8491 14.3875 75.2641 14.3875C75.4141 14.3875 75.5483 14.4125 75.6666 14.4625C75.7849 14.5108 75.8849 14.5792 75.9666 14.6675C76.0483 14.7542 76.1099 14.8583 76.1516 14.98C76.1949 15.1017 76.2166 15.235 76.2166 15.38V17H75.9366C75.8783 17 75.8333 16.9917 75.8016 16.975C75.7699 16.9567 75.7449 16.9208 75.7266 16.8675L75.6716 16.6825C75.6066 16.7408 75.5433 16.7925 75.4816 16.8375C75.4199 16.8808 75.3558 16.9175 75.2891 16.9475C75.2224 16.9775 75.1508 17 75.0741 17.015C74.9991 17.0317 74.9158 17.04 74.8241 17.04C74.7158 17.04 74.6158 17.0258 74.5241 16.9975C74.4324 16.9675 74.3533 16.9233 74.2866 16.865C74.2199 16.8067 74.1683 16.7342 74.1316 16.6475C74.0949 16.5608 74.0766 16.46 74.0766 16.345C74.0766 16.28 74.0874 16.2158 74.1091 16.1525C74.1308 16.0875 74.1658 16.0258 74.2141 15.9675C74.2641 15.9092 74.3283 15.8542 74.4066 15.8025C74.4849 15.7508 74.5808 15.7058 74.6941 15.6675C74.8091 15.6292 74.9424 15.5983 75.0941 15.575C75.2458 15.55 75.4191 15.535 75.6141 15.53V15.38C75.6141 15.2083 75.5774 15.0817 75.5041 15C75.4308 14.9167 75.3249 14.875 75.1866 14.875C75.0866 14.875 75.0033 14.8867 74.9366 14.91C74.8716 14.9333 74.8141 14.96 74.7641 14.99C74.7141 15.0183 74.6683 15.0442 74.6266 15.0675C74.5866 15.0908 74.5416 15.1025 74.4916 15.1025C74.4483 15.1025 74.4116 15.0917 74.3816 15.07C74.3516 15.0467 74.3274 15.02 74.3091 14.99L74.1991 14.7925ZM77.3757 14.75C77.4273 14.6983 77.4815 14.6508 77.5382 14.6075C77.5965 14.5625 77.6573 14.525 77.7207 14.495C77.7857 14.4633 77.8548 14.4392 77.9282 14.4225C78.0015 14.4042 78.0815 14.395 78.1682 14.395C78.3082 14.395 78.4323 14.4192 78.5407 14.4675C78.649 14.5142 78.739 14.5808 78.8107 14.6675C78.884 14.7525 78.939 14.855 78.9757 14.975C79.014 15.0933 79.0332 15.2242 79.0332 15.3675V17H78.4157V15.3675C78.4157 15.2108 78.3798 15.09 78.3082 15.005C78.2365 14.9183 78.1273 14.875 77.9807 14.875C77.874 14.875 77.774 14.8992 77.6807 14.9475C77.5873 14.9958 77.499 15.0617 77.4157 15.145V17H76.7982V14.435H77.1757C77.2557 14.435 77.3082 14.4725 77.3332 14.5475L77.3757 14.75ZM81.2304 15.09C81.1604 15.005 81.0838 14.945 81.0004 14.91C80.9188 14.875 80.8304 14.8575 80.7354 14.8575C80.6421 14.8575 80.5579 14.875 80.4829 14.91C80.4079 14.945 80.3438 14.9983 80.2904 15.07C80.2371 15.14 80.1963 15.23 80.1679 15.34C80.1396 15.4483 80.1254 15.5767 80.1254 15.725C80.1254 15.875 80.1371 16.0025 80.1604 16.1075C80.1854 16.2108 80.2204 16.2958 80.2654 16.3625C80.3104 16.4275 80.3654 16.475 80.4304 16.505C80.4954 16.5333 80.5679 16.5475 80.6479 16.5475C80.7763 16.5475 80.8854 16.5208 80.9754 16.4675C81.0654 16.4142 81.1504 16.3383 81.2304 16.24V15.09ZM81.8479 13.285V17H81.4704C81.3888 17 81.3371 16.9625 81.3154 16.8875L81.2629 16.64C81.1596 16.7583 81.0404 16.8542 80.9054 16.9275C80.7721 17.0008 80.6163 17.0375 80.4379 17.0375C80.2979 17.0375 80.1696 17.0083 80.0529 16.95C79.9363 16.8917 79.8354 16.8075 79.7504 16.6975C79.6671 16.5858 79.6021 16.4483 79.5554 16.285C79.5104 16.1217 79.4879 15.935 79.4879 15.725C79.4879 15.535 79.5138 15.3583 79.5654 15.195C79.6171 15.0317 79.6913 14.89 79.7879 14.77C79.8846 14.65 80.0004 14.5567 80.1354 14.49C80.2704 14.4217 80.4221 14.3875 80.5904 14.3875C80.7338 14.3875 80.8563 14.41 80.9579 14.455C81.0596 14.5 81.1504 14.5608 81.2304 14.6375V13.285H81.8479ZM83.0973 14.435V17H82.4773V14.435H83.0973ZM83.1823 13.6875C83.1823 13.7408 83.1715 13.7908 83.1498 13.8375C83.1282 13.8842 83.099 13.925 83.0623 13.96C83.0273 13.995 82.9857 14.0233 82.9373 14.045C82.889 14.065 82.8373 14.075 82.7823 14.075C82.729 14.075 82.6782 14.065 82.6298 14.045C82.5832 14.0233 82.5423 13.995 82.5073 13.96C82.4723 13.925 82.444 13.8842 82.4223 13.8375C82.4023 13.7908 82.3923 13.7408 82.3923 13.6875C82.3923 13.6325 82.4023 13.5808 82.4223 13.5325C82.444 13.4842 82.4723 13.4425 82.5073 13.4075C82.5423 13.3725 82.5832 13.345 82.6298 13.325C82.6782 13.3033 82.729 13.2925 82.7823 13.2925C82.8373 13.2925 82.889 13.3033 82.9373 13.325C82.9857 13.345 83.0273 13.3725 83.0623 13.4075C83.099 13.4425 83.1282 13.4842 83.1498 13.5325C83.1715 13.5808 83.1823 13.6325 83.1823 13.6875ZM84.3044 14.75C84.356 14.6983 84.4102 14.6508 84.4669 14.6075C84.5252 14.5625 84.586 14.525 84.6494 14.495C84.7144 14.4633 84.7835 14.4392 84.8569 14.4225C84.9302 14.4042 85.0102 14.395 85.0969 14.395C85.2369 14.395 85.361 14.4192 85.4694 14.4675C85.5777 14.5142 85.6677 14.5808 85.7394 14.6675C85.8127 14.7525 85.8677 14.855 85.9044 14.975C85.9427 15.0933 85.9619 15.2242 85.9619 15.3675V17H85.3444V15.3675C85.3444 15.2108 85.3085 15.09 85.2369 15.005C85.1652 14.9183 85.056 14.875 84.9094 14.875C84.8027 14.875 84.7027 14.8992 84.6094 14.9475C84.516 14.9958 84.4277 15.0617 84.3444 15.145V17H83.7269V14.435H84.1044C84.1844 14.435 84.2369 14.4725 84.2619 14.5475L84.3044 14.75ZM87.4866 15.655C87.5633 15.655 87.63 15.645 87.6866 15.625C87.7433 15.6033 87.79 15.5742 87.8266 15.5375C87.865 15.5008 87.8933 15.4567 87.9116 15.405C87.9316 15.3533 87.9416 15.2967 87.9416 15.235C87.9416 15.1083 87.9033 15.0083 87.8266 14.935C87.7516 14.86 87.6383 14.8225 87.4866 14.8225C87.335 14.8225 87.2208 14.86 87.1441 14.935C87.0691 15.0083 87.0316 15.1083 87.0316 15.235C87.0316 15.295 87.0408 15.3508 87.0591 15.4025C87.0791 15.4542 87.1075 15.4992 87.1441 15.5375C87.1825 15.5742 87.23 15.6033 87.2866 15.625C87.345 15.645 87.4116 15.655 87.4866 15.655ZM88.1841 17.115C88.1841 17.065 88.1691 17.0242 88.1391 16.9925C88.1091 16.9608 88.0683 16.9367 88.0166 16.92C87.965 16.9017 87.9041 16.8883 87.8341 16.88C87.7658 16.8717 87.6925 16.8658 87.6141 16.8625C87.5375 16.8575 87.4575 16.8533 87.3741 16.85C87.2925 16.8467 87.2125 16.84 87.1341 16.83C87.0658 16.8683 87.01 16.9133 86.9666 16.965C86.925 17.0167 86.9041 17.0767 86.9041 17.145C86.9041 17.19 86.915 17.2317 86.9366 17.27C86.96 17.31 86.9958 17.3442 87.0441 17.3725C87.0941 17.4008 87.1583 17.4225 87.2366 17.4375C87.315 17.4542 87.4108 17.4625 87.5241 17.4625C87.6391 17.4625 87.7383 17.4533 87.8216 17.435C87.905 17.4183 87.9733 17.3942 88.0266 17.3625C88.0816 17.3325 88.1216 17.2958 88.1466 17.2525C88.1716 17.2108 88.1841 17.165 88.1841 17.115ZM88.7991 14.5225V14.7525C88.7991 14.8258 88.755 14.8708 88.6666 14.8875L88.4366 14.93C88.4716 15.0183 88.4891 15.115 88.4891 15.22C88.4891 15.3467 88.4633 15.4617 88.4116 15.565C88.3616 15.6667 88.2916 15.7533 88.2016 15.825C88.1116 15.8967 88.005 15.9525 87.8816 15.9925C87.76 16.0308 87.6283 16.05 87.4866 16.05C87.4366 16.05 87.3883 16.0475 87.3416 16.0425C87.295 16.0375 87.2491 16.0308 87.2041 16.0225C87.1241 16.0708 87.0841 16.125 87.0841 16.185C87.0841 16.2367 87.1075 16.275 87.1541 16.3C87.2025 16.3233 87.2658 16.34 87.3441 16.35C87.4225 16.36 87.5116 16.3667 87.6116 16.37C87.7116 16.3717 87.8141 16.3767 87.9191 16.385C88.0241 16.3933 88.1266 16.4083 88.2266 16.43C88.3266 16.45 88.4158 16.4825 88.4941 16.5275C88.5725 16.5725 88.635 16.6342 88.6816 16.7125C88.73 16.7892 88.7541 16.8883 88.7541 17.01C88.7541 17.1233 88.7258 17.2333 88.6691 17.34C88.6141 17.4467 88.5333 17.5417 88.4266 17.625C88.3216 17.7083 88.1916 17.775 88.0366 17.825C87.8833 17.8767 87.7083 17.9025 87.5116 17.9025C87.3183 17.9025 87.15 17.8833 87.0066 17.845C86.8633 17.8083 86.7441 17.7583 86.6491 17.695C86.5541 17.6333 86.4833 17.5617 86.4366 17.48C86.39 17.3983 86.3666 17.3133 86.3666 17.225C86.3666 17.105 86.4025 17.005 86.4741 16.925C86.5475 16.8433 86.6475 16.7783 86.7741 16.73C86.7058 16.695 86.6516 16.6483 86.6116 16.59C86.5716 16.5317 86.5516 16.455 86.5516 16.36C86.5516 16.3217 86.5583 16.2825 86.5716 16.2425C86.5866 16.2008 86.6075 16.16 86.6341 16.12C86.6625 16.08 86.6975 16.0425 86.7391 16.0075C86.7808 15.9708 86.83 15.9383 86.8866 15.91C86.7566 15.84 86.6541 15.7467 86.5791 15.63C86.5058 15.5133 86.4691 15.3767 86.4691 15.22C86.4691 15.0933 86.4941 14.9792 86.5441 14.8775C86.5958 14.7742 86.6666 14.6867 86.7566 14.615C86.8483 14.5417 86.9558 14.4858 87.0791 14.4475C87.2041 14.4092 87.34 14.39 87.4866 14.39C87.5966 14.39 87.7 14.4017 87.7966 14.425C87.8933 14.4467 87.9816 14.4792 88.0616 14.5225H88.7991Z" fill="white"/>
<path d="M46.1595 32.92V33.9225H47.4245V34.44H46.1595V35.4625H47.7645V36H45.4845V32.385H47.7645V32.92H46.1595ZM49.7938 33.935C49.7772 33.9617 49.7597 33.9808 49.7413 33.9925C49.723 34.0025 49.6997 34.0075 49.6713 34.0075C49.6413 34.0075 49.6088 33.9992 49.5738 33.9825C49.5405 33.9658 49.5013 33.9475 49.4563 33.9275C49.4113 33.9058 49.3597 33.8867 49.3013 33.87C49.2447 33.8533 49.1772 33.845 49.0988 33.845C48.9772 33.845 48.8813 33.8708 48.8113 33.9225C48.743 33.9742 48.7088 34.0417 48.7088 34.125C48.7088 34.18 48.7263 34.2267 48.7613 34.265C48.798 34.3017 48.8455 34.3342 48.9038 34.3625C48.9638 34.3908 49.0313 34.4167 49.1063 34.44C49.1813 34.4617 49.2572 34.4858 49.3338 34.5125C49.4122 34.5392 49.4888 34.57 49.5638 34.605C49.6388 34.6383 49.7055 34.6817 49.7638 34.735C49.8238 34.7867 49.8713 34.8492 49.9063 34.9225C49.943 34.9958 49.9613 35.0842 49.9613 35.1875C49.9613 35.3108 49.9388 35.425 49.8938 35.53C49.8505 35.6333 49.7855 35.7233 49.6988 35.8C49.6122 35.875 49.5047 35.9342 49.3763 35.9775C49.2497 36.0192 49.103 36.04 48.9363 36.04C48.848 36.04 48.7613 36.0317 48.6763 36.015C48.593 36 48.5122 35.9783 48.4338 35.95C48.3572 35.9217 48.2855 35.8883 48.2188 35.85C48.1538 35.8117 48.0963 35.77 48.0463 35.725L48.1888 35.49C48.2072 35.4617 48.2288 35.44 48.2538 35.425C48.2788 35.41 48.3105 35.4025 48.3488 35.4025C48.3872 35.4025 48.423 35.4133 48.4563 35.435C48.4913 35.4567 48.5313 35.48 48.5763 35.505C48.6213 35.53 48.6738 35.5533 48.7338 35.575C48.7955 35.5967 48.873 35.6075 48.9663 35.6075C49.0397 35.6075 49.1022 35.5992 49.1538 35.5825C49.2072 35.5642 49.2505 35.5408 49.2838 35.5125C49.3188 35.4842 49.3438 35.4517 49.3588 35.415C49.3755 35.3767 49.3838 35.3375 49.3838 35.2975C49.3838 35.2375 49.3655 35.1883 49.3288 35.15C49.2938 35.1117 49.2463 35.0783 49.1863 35.05C49.128 35.0217 49.0605 34.9967 48.9838 34.975C48.9088 34.9517 48.8313 34.9267 48.7513 34.9C48.673 34.8733 48.5955 34.8425 48.5188 34.8075C48.4438 34.7708 48.3763 34.725 48.3163 34.67C48.258 34.615 48.2105 34.5475 48.1738 34.4675C48.1388 34.3875 48.1213 34.2908 48.1213 34.1775C48.1213 34.0725 48.1422 33.9725 48.1838 33.8775C48.2255 33.7825 48.2863 33.7 48.3663 33.63C48.448 33.5583 48.5488 33.5017 48.6688 33.46C48.7905 33.4167 48.9305 33.395 49.0888 33.395C49.2655 33.395 49.4263 33.4242 49.5713 33.4825C49.7163 33.5408 49.8372 33.6175 49.9338 33.7125L49.7938 33.935ZM52.2636 33.9775C52.2453 34.0008 52.2269 34.0192 52.2086 34.0325C52.1919 34.0458 52.1669 34.0525 52.1336 34.0525C52.1019 34.0525 52.0711 34.0433 52.0411 34.025C52.0111 34.005 51.9753 33.9833 51.9336 33.96C51.8919 33.935 51.8419 33.9133 51.7836 33.895C51.7269 33.875 51.6561 33.865 51.5711 33.865C51.4628 33.865 51.3678 33.885 51.2861 33.925C51.2044 33.9633 51.1361 34.0192 51.0811 34.0925C51.0278 34.1658 50.9878 34.255 50.9611 34.36C50.9344 34.4633 50.9211 34.5808 50.9211 34.7125C50.9211 34.8492 50.9353 34.9708 50.9636 35.0775C50.9936 35.1842 51.0361 35.2742 51.0911 35.3475C51.1461 35.4192 51.2128 35.4742 51.2911 35.5125C51.3694 35.5492 51.4578 35.5675 51.5561 35.5675C51.6544 35.5675 51.7336 35.5558 51.7936 35.5325C51.8553 35.5075 51.9069 35.4808 51.9486 35.4525C51.9903 35.4225 52.0261 35.3958 52.0561 35.3725C52.0878 35.3475 52.1228 35.335 52.1611 35.335C52.2111 35.335 52.2486 35.3542 52.2736 35.3925L52.4511 35.6175C52.3828 35.6975 52.3086 35.765 52.2286 35.82C52.1486 35.8733 52.0653 35.9167 51.9786 35.95C51.8936 35.9817 51.8053 36.0042 51.7136 36.0175C51.6236 36.0308 51.5336 36.0375 51.4436 36.0375C51.2853 36.0375 51.1361 36.0083 50.9961 35.95C50.8561 35.89 50.7336 35.8033 50.6286 35.69C50.5236 35.5767 50.4403 35.4383 50.3786 35.275C50.3186 35.11 50.2886 34.9225 50.2886 34.7125C50.2886 34.5242 50.3153 34.35 50.3686 34.19C50.4236 34.0283 50.5036 33.8892 50.6086 33.7725C50.7136 33.6542 50.8436 33.5617 50.9986 33.495C51.1536 33.4283 51.3319 33.395 51.5336 33.395C51.7253 33.395 51.8928 33.4258 52.0361 33.4875C52.1811 33.5492 52.3111 33.6375 52.4261 33.7525L52.2636 33.9775ZM54.1932 34.905C54.0149 34.9133 53.8649 34.9292 53.7432 34.9525C53.6215 34.9742 53.524 35.0025 53.4507 35.0375C53.3774 35.0725 53.3249 35.1133 53.2932 35.16C53.2615 35.2067 53.2457 35.2575 53.2457 35.3125C53.2457 35.4208 53.2774 35.4983 53.3407 35.545C53.4057 35.5917 53.4899 35.615 53.5932 35.615C53.7199 35.615 53.829 35.5925 53.9207 35.5475C54.014 35.5008 54.1049 35.4308 54.1932 35.3375V34.905ZM52.7782 33.7925C53.0732 33.5225 53.4282 33.3875 53.8432 33.3875C53.9932 33.3875 54.1274 33.4125 54.2457 33.4625C54.364 33.5108 54.464 33.5792 54.5457 33.6675C54.6274 33.7542 54.689 33.8583 54.7307 33.98C54.774 34.1017 54.7957 34.235 54.7957 34.38V36H54.5157C54.4574 36 54.4124 35.9917 54.3807 35.975C54.349 35.9567 54.324 35.9208 54.3057 35.8675L54.2507 35.6825C54.1857 35.7408 54.1224 35.7925 54.0607 35.8375C53.999 35.8808 53.9349 35.9175 53.8682 35.9475C53.8015 35.9775 53.7299 36 53.6532 36.015C53.5782 36.0317 53.4949 36.04 53.4032 36.04C53.2949 36.04 53.1949 36.0258 53.1032 35.9975C53.0115 35.9675 52.9324 35.9233 52.8657 35.865C52.799 35.8067 52.7474 35.7342 52.7107 35.6475C52.674 35.5608 52.6557 35.46 52.6557 35.345C52.6557 35.28 52.6665 35.2158 52.6882 35.1525C52.7099 35.0875 52.7449 35.0258 52.7932 34.9675C52.8432 34.9092 52.9074 34.8542 52.9857 34.8025C53.064 34.7508 53.1599 34.7058 53.2732 34.6675C53.3882 34.6292 53.5215 34.5983 53.6732 34.575C53.8249 34.55 53.9982 34.535 54.1932 34.53V34.38C54.1932 34.2083 54.1565 34.0817 54.0832 34C54.0099 33.9167 53.904 33.875 53.7657 33.875C53.6657 33.875 53.5824 33.8867 53.5157 33.91C53.4507 33.9333 53.3932 33.96 53.3432 33.99C53.2932 34.0183 53.2474 34.0442 53.2057 34.0675C53.1657 34.0908 53.1207 34.1025 53.0707 34.1025C53.0274 34.1025 52.9907 34.0917 52.9607 34.07C52.9307 34.0467 52.9065 34.02 52.8882 33.99L52.7782 33.7925ZM56.0023 32.285V36H55.3848V32.285H56.0023ZM57.9725 34.905C57.7942 34.9133 57.6442 34.9292 57.5225 34.9525C57.4008 34.9742 57.3033 35.0025 57.23 35.0375C57.1567 35.0725 57.1042 35.1133 57.0725 35.16C57.0408 35.2067 57.025 35.2575 57.025 35.3125C57.025 35.4208 57.0567 35.4983 57.12 35.545C57.185 35.5917 57.2692 35.615 57.3725 35.615C57.4992 35.615 57.6083 35.5925 57.7 35.5475C57.7933 35.5008 57.8842 35.4308 57.9725 35.3375V34.905ZM56.5575 33.7925C56.8525 33.5225 57.2075 33.3875 57.6225 33.3875C57.7725 33.3875 57.9067 33.4125 58.025 33.4625C58.1433 33.5108 58.2433 33.5792 58.325 33.6675C58.4067 33.7542 58.4683 33.8583 58.51 33.98C58.5533 34.1017 58.575 34.235 58.575 34.38V36H58.295C58.2367 36 58.1917 35.9917 58.16 35.975C58.1283 35.9567 58.1033 35.9208 58.085 35.8675L58.03 35.6825C57.965 35.7408 57.9017 35.7925 57.84 35.8375C57.7783 35.8808 57.7142 35.9175 57.6475 35.9475C57.5808 35.9775 57.5092 36 57.4325 36.015C57.3575 36.0317 57.2742 36.04 57.1825 36.04C57.0742 36.04 56.9742 36.0258 56.8825 35.9975C56.7908 35.9675 56.7117 35.9233 56.645 35.865C56.5783 35.8067 56.5267 35.7342 56.49 35.6475C56.4533 35.5608 56.435 35.46 56.435 35.345C56.435 35.28 56.4458 35.2158 56.4675 35.1525C56.4892 35.0875 56.5242 35.0258 56.5725 34.9675C56.6225 34.9092 56.6867 34.8542 56.765 34.8025C56.8433 34.7508 56.9392 34.7058 57.0525 34.6675C57.1675 34.6292 57.3008 34.5983 57.4525 34.575C57.6042 34.55 57.7775 34.535 57.9725 34.53V34.38C57.9725 34.2083 57.9358 34.0817 57.8625 34C57.7892 33.9167 57.6833 33.875 57.545 33.875C57.445 33.875 57.3617 33.8867 57.295 33.91C57.23 33.9333 57.1725 33.96 57.1225 33.99C57.0725 34.0183 57.0267 34.0442 56.985 34.0675C56.945 34.0908 56.9 34.1025 56.85 34.1025C56.8067 34.1025 56.77 34.0917 56.74 34.07C56.71 34.0467 56.6858 34.02 56.6675 33.99L56.5575 33.7925ZM61.7099 36H61.0924V33.8975H59.9024V35.2875C59.9024 35.3675 59.9215 35.43 59.9599 35.475C59.9999 35.52 60.054 35.5425 60.1224 35.5425C60.1607 35.5425 60.1924 35.5383 60.2174 35.53C60.244 35.52 60.2665 35.51 60.2849 35.5C60.3049 35.49 60.3224 35.4808 60.3374 35.4725C60.3524 35.4625 60.3674 35.4575 60.3824 35.4575C60.4007 35.4575 60.4157 35.4625 60.4274 35.4725C60.439 35.4808 60.4515 35.4942 60.4649 35.5125L60.6499 35.8125C60.5599 35.8875 60.4565 35.9442 60.3399 35.9825C60.2232 36.0208 60.1024 36.04 59.9774 36.04C59.754 36.04 59.5824 35.9775 59.4624 35.8525C59.344 35.7258 59.2849 35.5517 59.2849 35.33V33.8975H59.0224C58.989 33.8975 58.9607 33.8867 58.9374 33.865C58.914 33.8433 58.9024 33.8108 58.9024 33.7675V33.5225L59.3149 33.4525L59.4449 32.755C59.4532 32.7217 59.469 32.6958 59.4924 32.6775C59.5157 32.6592 59.5457 32.65 59.5824 32.65H59.9024V33.4575H61.7099V36ZM61.8174 32.6775C61.8174 32.7308 61.8065 32.7817 61.7849 32.83C61.7632 32.8767 61.734 32.9175 61.6974 32.9525C61.6624 32.9875 61.6199 33.0158 61.5699 33.0375C61.5215 33.0575 61.4699 33.0675 61.4149 33.0675C61.3615 33.0675 61.3115 33.0575 61.2649 33.0375C61.2182 33.0158 61.1774 32.9875 61.1424 32.9525C61.1074 32.9175 61.079 32.8767 61.0574 32.83C61.0374 32.7817 61.0274 32.7308 61.0274 32.6775C61.0274 32.6225 61.0374 32.5717 61.0574 32.525C61.079 32.4767 61.1074 32.435 61.1424 32.4C61.1774 32.3633 61.2182 32.335 61.2649 32.315C61.3115 32.2933 61.3615 32.2825 61.4149 32.2825C61.4699 32.2825 61.5215 32.2933 61.5699 32.315C61.6199 32.335 61.6624 32.3633 61.6974 32.4C61.734 32.435 61.7632 32.4767 61.7849 32.525C61.8065 32.5717 61.8174 32.6225 61.8174 32.6775ZM62.9177 33.75C62.9693 33.6983 63.0235 33.6508 63.0802 33.6075C63.1385 33.5625 63.1993 33.525 63.2627 33.495C63.3277 33.4633 63.3968 33.4392 63.4702 33.4225C63.5435 33.4042 63.6235 33.395 63.7102 33.395C63.8502 33.395 63.9743 33.4192 64.0827 33.4675C64.191 33.5142 64.281 33.5808 64.3527 33.6675C64.426 33.7525 64.481 33.855 64.5177 33.975C64.556 34.0933 64.5752 34.2242 64.5752 34.3675V36H63.9577V34.3675C63.9577 34.2108 63.9218 34.09 63.8502 34.005C63.7785 33.9183 63.6693 33.875 63.5227 33.875C63.416 33.875 63.316 33.8992 63.2227 33.9475C63.1293 33.9958 63.041 34.0617 62.9577 34.145V36H62.3402V33.435H62.7177C62.7977 33.435 62.8502 33.4725 62.8752 33.5475L62.9177 33.75ZM66.0999 34.655C66.1766 34.655 66.2433 34.645 66.2999 34.625C66.3566 34.6033 66.4033 34.5742 66.4399 34.5375C66.4783 34.5008 66.5066 34.4567 66.5249 34.405C66.5449 34.3533 66.5549 34.2967 66.5549 34.235C66.5549 34.1083 66.5166 34.0083 66.4399 33.935C66.3649 33.86 66.2516 33.8225 66.0999 33.8225C65.9483 33.8225 65.8341 33.86 65.7574 33.935C65.6824 34.0083 65.6449 34.1083 65.6449 34.235C65.6449 34.295 65.6541 34.3508 65.6724 34.4025C65.6924 34.4542 65.7208 34.4992 65.7574 34.5375C65.7958 34.5742 65.8433 34.6033 65.8999 34.625C65.9583 34.645 66.0249 34.655 66.0999 34.655ZM66.7974 36.115C66.7974 36.065 66.7824 36.0242 66.7524 35.9925C66.7224 35.9608 66.6816 35.9367 66.6299 35.92C66.5783 35.9017 66.5174 35.8883 66.4474 35.88C66.3791 35.8717 66.3058 35.8658 66.2274 35.8625C66.1508 35.8575 66.0708 35.8533 65.9874 35.85C65.9058 35.8467 65.8258 35.84 65.7474 35.83C65.6791 35.8683 65.6233 35.9133 65.5799 35.965C65.5383 36.0167 65.5174 36.0767 65.5174 36.145C65.5174 36.19 65.5283 36.2317 65.5499 36.27C65.5733 36.31 65.6091 36.3442 65.6574 36.3725C65.7074 36.4008 65.7716 36.4225 65.8499 36.4375C65.9283 36.4542 66.0241 36.4625 66.1374 36.4625C66.2524 36.4625 66.3516 36.4533 66.4349 36.435C66.5183 36.4183 66.5866 36.3942 66.6399 36.3625C66.6949 36.3325 66.7349 36.2958 66.7599 36.2525C66.7849 36.2108 66.7974 36.165 66.7974 36.115ZM67.4124 33.5225V33.7525C67.4124 33.8258 67.3683 33.8708 67.2799 33.8875L67.0499 33.93C67.0849 34.0183 67.1024 34.115 67.1024 34.22C67.1024 34.3467 67.0766 34.4617 67.0249 34.565C66.9749 34.6667 66.9049 34.7533 66.8149 34.825C66.7249 34.8967 66.6183 34.9525 66.4949 34.9925C66.3733 35.0308 66.2416 35.05 66.0999 35.05C66.0499 35.05 66.0016 35.0475 65.9549 35.0425C65.9083 35.0375 65.8624 35.0308 65.8174 35.0225C65.7374 35.0708 65.6974 35.125 65.6974 35.185C65.6974 35.2367 65.7208 35.275 65.7674 35.3C65.8158 35.3233 65.8791 35.34 65.9574 35.35C66.0358 35.36 66.1249 35.3667 66.2249 35.37C66.3249 35.3717 66.4274 35.3767 66.5324 35.385C66.6374 35.3933 66.7399 35.4083 66.8399 35.43C66.9399 35.45 67.0291 35.4825 67.1074 35.5275C67.1858 35.5725 67.2483 35.6342 67.2949 35.7125C67.3433 35.7892 67.3674 35.8883 67.3674 36.01C67.3674 36.1233 67.3391 36.2333 67.2824 36.34C67.2274 36.4467 67.1466 36.5417 67.0399 36.625C66.9349 36.7083 66.8049 36.775 66.6499 36.825C66.4966 36.8767 66.3216 36.9025 66.1249 36.9025C65.9316 36.9025 65.7633 36.8833 65.6199 36.845C65.4766 36.8083 65.3574 36.7583 65.2624 36.695C65.1674 36.6333 65.0966 36.5617 65.0499 36.48C65.0033 36.3983 64.9799 36.3133 64.9799 36.225C64.9799 36.105 65.0158 36.005 65.0874 35.925C65.1608 35.8433 65.2608 35.7783 65.3874 35.73C65.3191 35.695 65.2649 35.6483 65.2249 35.59C65.1849 35.5317 65.1649 35.455 65.1649 35.36C65.1649 35.3217 65.1716 35.2825 65.1849 35.2425C65.1999 35.2008 65.2208 35.16 65.2474 35.12C65.2758 35.08 65.3108 35.0425 65.3524 35.0075C65.3941 34.9708 65.4433 34.9383 65.4999 34.91C65.3699 34.84 65.2674 34.7467 65.1924 34.63C65.1191 34.5133 65.0824 34.3767 65.0824 34.22C65.0824 34.0933 65.1074 33.9792 65.1574 33.8775C65.2091 33.7742 65.2799 33.6867 65.3699 33.615C65.4616 33.5417 65.5691 33.4858 65.6924 33.4475C65.8174 33.4092 65.9533 33.39 66.0999 33.39C66.2099 33.39 66.3133 33.4017 66.4099 33.425C66.5066 33.4467 66.5949 33.4792 66.6749 33.5225H67.4124ZM71.0423 33.0425C71.0223 33.0775 71.0007 33.1033 70.9773 33.12C70.9557 33.135 70.9282 33.1425 70.8948 33.1425C70.8598 33.1425 70.8215 33.13 70.7798 33.105C70.7398 33.0783 70.6915 33.0492 70.6348 33.0175C70.5782 32.9858 70.5115 32.9575 70.4348 32.9325C70.3598 32.9058 70.2707 32.8925 70.1673 32.8925C70.074 32.8925 69.9923 32.9042 69.9223 32.9275C69.8523 32.9492 69.7932 32.98 69.7448 33.02C69.6982 33.06 69.6632 33.1083 69.6398 33.165C69.6165 33.22 69.6048 33.2808 69.6048 33.3475C69.6048 33.4325 69.6282 33.5033 69.6748 33.56C69.7232 33.6167 69.7865 33.665 69.8648 33.705C69.9432 33.745 70.0323 33.7808 70.1323 33.8125C70.2323 33.8442 70.3348 33.8783 70.4398 33.915C70.5448 33.95 70.6473 33.9917 70.7473 34.04C70.8473 34.0867 70.9365 34.1467 71.0148 34.22C71.0932 34.2917 71.1557 34.38 71.2023 34.485C71.2507 34.59 71.2748 34.7175 71.2748 34.8675C71.2748 35.0308 71.2465 35.1842 71.1898 35.3275C71.1348 35.4692 71.0532 35.5933 70.9448 35.7C70.8382 35.805 70.7073 35.8883 70.5523 35.95C70.3973 36.01 70.2198 36.04 70.0198 36.04C69.9048 36.04 69.7915 36.0283 69.6798 36.005C69.5682 35.9833 69.4607 35.9517 69.3573 35.91C69.2557 35.8683 69.1598 35.8183 69.0698 35.76C68.9798 35.7017 68.8998 35.6367 68.8298 35.565L69.0273 35.2425C69.044 35.2192 69.0657 35.2 69.0923 35.185C69.119 35.1683 69.1473 35.16 69.1773 35.16C69.219 35.16 69.264 35.1775 69.3123 35.2125C69.3607 35.2458 69.4182 35.2833 69.4848 35.325C69.5515 35.3667 69.629 35.405 69.7173 35.44C69.8073 35.4733 69.9148 35.49 70.0398 35.49C70.2315 35.49 70.3798 35.445 70.4848 35.355C70.5898 35.2633 70.6423 35.1325 70.6423 34.9625C70.6423 34.8675 70.6182 34.79 70.5698 34.73C70.5232 34.67 70.4607 34.62 70.3823 34.58C70.304 34.5383 70.2148 34.5033 70.1148 34.475C70.0148 34.4467 69.9132 34.4158 69.8098 34.3825C69.7065 34.3492 69.6048 34.3092 69.5048 34.2625C69.4048 34.2158 69.3157 34.155 69.2373 34.08C69.159 34.005 69.0957 33.9117 69.0473 33.8C69.0007 33.6867 68.9773 33.5475 68.9773 33.3825C68.9773 33.2508 69.0032 33.1225 69.0548 32.9975C69.1082 32.8725 69.1848 32.7617 69.2848 32.665C69.3848 32.5683 69.5082 32.4908 69.6548 32.4325C69.8015 32.3742 69.9698 32.345 70.1598 32.345C70.3732 32.345 70.5698 32.3783 70.7498 32.445C70.9298 32.5117 71.0832 32.605 71.2098 32.725L71.0423 33.0425ZM73.0848 34.905C72.9065 34.9133 72.7565 34.9292 72.6348 34.9525C72.5131 34.9742 72.4156 35.0025 72.3423 35.0375C72.269 35.0725 72.2165 35.1133 72.1848 35.16C72.1531 35.2067 72.1373 35.2575 72.1373 35.3125C72.1373 35.4208 72.169 35.4983 72.2323 35.545C72.2973 35.5917 72.3815 35.615 72.4848 35.615C72.6115 35.615 72.7206 35.5925 72.8123 35.5475C72.9056 35.5008 72.9965 35.4308 73.0848 35.3375V34.905ZM71.6698 33.7925C71.9648 33.5225 72.3198 33.3875 72.7348 33.3875C72.8848 33.3875 73.019 33.4125 73.1373 33.4625C73.2556 33.5108 73.3556 33.5792 73.4373 33.6675C73.519 33.7542 73.5806 33.8583 73.6223 33.98C73.6656 34.1017 73.6873 34.235 73.6873 34.38V36H73.4073C73.349 36 73.304 35.9917 73.2723 35.975C73.2406 35.9567 73.2156 35.9208 73.1973 35.8675L73.1423 35.6825C73.0773 35.7408 73.014 35.7925 72.9523 35.8375C72.8906 35.8808 72.8265 35.9175 72.7598 35.9475C72.6931 35.9775 72.6215 36 72.5448 36.015C72.4698 36.0317 72.3865 36.04 72.2948 36.04C72.1865 36.04 72.0865 36.0258 71.9948 35.9975C71.9031 35.9675 71.824 35.9233 71.7573 35.865C71.6906 35.8067 71.639 35.7342 71.6023 35.6475C71.5656 35.5608 71.5473 35.46 71.5473 35.345C71.5473 35.28 71.5581 35.2158 71.5798 35.1525C71.6015 35.0875 71.6365 35.0258 71.6848 34.9675C71.7348 34.9092 71.799 34.8542 71.8773 34.8025C71.9556 34.7508 72.0515 34.7058 72.1648 34.6675C72.2798 34.6292 72.4131 34.5983 72.5648 34.575C72.7165 34.55 72.8898 34.535 73.0848 34.53V34.38C73.0848 34.2083 73.0481 34.0817 72.9748 34C72.9015 33.9167 72.7956 33.875 72.6573 33.875C72.5573 33.875 72.474 33.8867 72.4073 33.91C72.3423 33.9333 72.2848 33.96 72.2348 33.99C72.1848 34.0183 72.139 34.0442 72.0973 34.0675C72.0573 34.0908 72.0123 34.1025 71.9623 34.1025C71.919 34.1025 71.8823 34.0917 71.8523 34.07C71.8223 34.0467 71.7981 34.02 71.7798 33.99L71.6698 33.7925ZM74.8939 32.285V36H74.2764V32.285H74.8939ZM76.8641 34.905C76.6858 34.9133 76.5358 34.9292 76.4141 34.9525C76.2924 34.9742 76.1949 35.0025 76.1216 35.0375C76.0483 35.0725 75.9958 35.1133 75.9641 35.16C75.9324 35.2067 75.9166 35.2575 75.9166 35.3125C75.9166 35.4208 75.9483 35.4983 76.0116 35.545C76.0766 35.5917 76.1608 35.615 76.2641 35.615C76.3908 35.615 76.4999 35.5925 76.5916 35.5475C76.6849 35.5008 76.7758 35.4308 76.8641 35.3375V34.905ZM75.4491 33.7925C75.7441 33.5225 76.0991 33.3875 76.5141 33.3875C76.6641 33.3875 76.7983 33.4125 76.9166 33.4625C77.0349 33.5108 77.1349 33.5792 77.2166 33.6675C77.2983 33.7542 77.3599 33.8583 77.4016 33.98C77.4449 34.1017 77.4666 34.235 77.4666 34.38V36H77.1866C77.1283 36 77.0833 35.9917 77.0516 35.975C77.0199 35.9567 76.9949 35.9208 76.9766 35.8675L76.9216 35.6825C76.8566 35.7408 76.7933 35.7925 76.7316 35.8375C76.6699 35.8808 76.6058 35.9175 76.5391 35.9475C76.4724 35.9775 76.4008 36 76.3241 36.015C76.2491 36.0317 76.1658 36.04 76.0741 36.04C75.9658 36.04 75.8658 36.0258 75.7741 35.9975C75.6824 35.9675 75.6033 35.9233 75.5366 35.865C75.4699 35.8067 75.4183 35.7342 75.3816 35.6475C75.3449 35.5608 75.3266 35.46 75.3266 35.345C75.3266 35.28 75.3374 35.2158 75.3591 35.1525C75.3808 35.0875 75.4158 35.0258 75.4641 34.9675C75.5141 34.9092 75.5783 34.8542 75.6566 34.8025C75.7349 34.7508 75.8308 34.7058 75.9441 34.6675C76.0591 34.6292 76.1924 34.5983 76.3441 34.575C76.4958 34.55 76.6691 34.535 76.8641 34.53V34.38C76.8641 34.2083 76.8274 34.0817 76.7541 34C76.6808 33.9167 76.5749 33.875 76.4366 33.875C76.3366 33.875 76.2533 33.8867 76.1866 33.91C76.1216 33.9333 76.0641 33.96 76.0141 33.99C75.9641 34.0183 75.9183 34.0442 75.8766 34.0675C75.8366 34.0908 75.7916 34.1025 75.7416 34.1025C75.6983 34.1025 75.6616 34.0917 75.6316 34.07C75.6016 34.0467 75.5774 34.02 75.5591 33.99L75.4491 33.7925ZM78.6307 33.88C78.7107 33.7267 78.8057 33.6067 78.9157 33.52C79.0257 33.4317 79.1557 33.3875 79.3057 33.3875C79.424 33.3875 79.519 33.4133 79.5907 33.465L79.5507 33.9275C79.5423 33.9575 79.5298 33.9792 79.5132 33.9925C79.4982 34.0042 79.4773 34.01 79.4507 34.01C79.4257 34.01 79.3882 34.0058 79.3382 33.9975C79.2898 33.9892 79.2423 33.985 79.1957 33.985C79.1273 33.985 79.0665 33.995 79.0132 34.015C78.9598 34.035 78.9115 34.0642 78.8682 34.1025C78.8265 34.1392 78.789 34.1842 78.7557 34.2375C78.724 34.2908 78.694 34.3517 78.6657 34.42V36H78.0482V33.435H78.4107C78.474 33.435 78.5182 33.4467 78.5432 33.47C78.5682 33.4917 78.5848 33.5317 78.5932 33.59L78.6307 33.88ZM80.5534 33.435V36H79.9334V33.435H80.5534ZM80.6384 32.6875C80.6384 32.7408 80.6276 32.7908 80.6059 32.8375C80.5842 32.8842 80.5551 32.925 80.5184 32.96C80.4834 32.995 80.4417 33.0233 80.3934 33.045C80.3451 33.065 80.2934 33.075 80.2384 33.075C80.1851 33.075 80.1342 33.065 80.0859 33.045C80.0392 33.0233 79.9984 32.995 79.9634 32.96C79.9284 32.925 79.9001 32.8842 79.8784 32.8375C79.8584 32.7908 79.8484 32.7408 79.8484 32.6875C79.8484 32.6325 79.8584 32.5808 79.8784 32.5325C79.9001 32.4842 79.9284 32.4425 79.9634 32.4075C79.9984 32.3725 80.0392 32.345 80.0859 32.325C80.1342 32.3033 80.1851 32.2925 80.2384 32.2925C80.2934 32.2925 80.3451 32.3033 80.3934 32.325C80.4417 32.345 80.4834 32.3725 80.5184 32.4075C80.5551 32.4425 80.5842 32.4842 80.6059 32.5325C80.6276 32.5808 80.6384 32.6325 80.6384 32.6875ZM82.8354 34.4225C82.8354 34.3425 82.8238 34.2675 82.8004 34.1975C82.7788 34.1258 82.7454 34.0633 82.7004 34.01C82.6554 33.9567 82.5979 33.915 82.5279 33.885C82.4596 33.8533 82.3796 33.8375 82.2879 33.8375C82.1096 33.8375 81.9688 33.8883 81.8654 33.99C81.7638 34.0917 81.6988 34.2358 81.6704 34.4225H82.8354ZM81.6579 34.795C81.6679 34.9267 81.6913 35.0408 81.7279 35.1375C81.7646 35.2325 81.8129 35.3117 81.8729 35.375C81.9329 35.4367 82.0038 35.4833 82.0854 35.515C82.1688 35.545 82.2604 35.56 82.3604 35.56C82.4604 35.56 82.5463 35.5483 82.6179 35.525C82.6913 35.5017 82.7546 35.4758 82.8079 35.4475C82.8629 35.4192 82.9104 35.3933 82.9504 35.37C82.9921 35.3467 83.0321 35.335 83.0704 35.335C83.1221 35.335 83.1604 35.3542 83.1854 35.3925L83.3629 35.6175C83.2946 35.6975 83.2179 35.765 83.1329 35.82C83.0479 35.8733 82.9588 35.9167 82.8654 35.95C82.7738 35.9817 82.6796 36.0042 82.5829 36.0175C82.4879 36.0308 82.3954 36.0375 82.3054 36.0375C82.1271 36.0375 81.9613 36.0083 81.8079 35.95C81.6546 35.89 81.5213 35.8025 81.4079 35.6875C81.2946 35.5708 81.2054 35.4275 81.1404 35.2575C81.0754 35.0858 81.0429 34.8875 81.0429 34.6625C81.0429 34.4875 81.0713 34.3233 81.1279 34.17C81.1846 34.015 81.2654 33.8808 81.3704 33.7675C81.4771 33.6525 81.6063 33.5617 81.7579 33.495C81.9113 33.4283 82.0838 33.395 82.2754 33.395C82.4371 33.395 82.5863 33.4208 82.7229 33.4725C82.8596 33.5242 82.9771 33.6 83.0754 33.7C83.1738 33.7983 83.2504 33.92 83.3054 34.065C83.3621 34.2083 83.3904 34.3725 83.3904 34.5575C83.3904 34.6508 83.3804 34.7142 83.3604 34.7475C83.3404 34.7792 83.3021 34.795 83.2454 34.795H81.6579ZM85.4188 33.935C85.4022 33.9617 85.3847 33.9808 85.3663 33.9925C85.348 34.0025 85.3247 34.0075 85.2963 34.0075C85.2663 34.0075 85.2338 33.9992 85.1988 33.9825C85.1655 33.9658 85.1263 33.9475 85.0813 33.9275C85.0363 33.9058 84.9847 33.8867 84.9263 33.87C84.8697 33.8533 84.8022 33.845 84.7238 33.845C84.6022 33.845 84.5063 33.8708 84.4363 33.9225C84.368 33.9742 84.3338 34.0417 84.3338 34.125C84.3338 34.18 84.3513 34.2267 84.3863 34.265C84.423 34.3017 84.4705 34.3342 84.5288 34.3625C84.5888 34.3908 84.6563 34.4167 84.7313 34.44C84.8063 34.4617 84.8822 34.4858 84.9588 34.5125C85.0372 34.5392 85.1138 34.57 85.1888 34.605C85.2638 34.6383 85.3305 34.6817 85.3888 34.735C85.4488 34.7867 85.4963 34.8492 85.5313 34.9225C85.568 34.9958 85.5863 35.0842 85.5863 35.1875C85.5863 35.3108 85.5638 35.425 85.5188 35.53C85.4755 35.6333 85.4105 35.7233 85.3238 35.8C85.2372 35.875 85.1297 35.9342 85.0013 35.9775C84.8747 36.0192 84.728 36.04 84.5613 36.04C84.473 36.04 84.3863 36.0317 84.3013 36.015C84.218 36 84.1372 35.9783 84.0588 35.95C83.9822 35.9217 83.9105 35.8883 83.8438 35.85C83.7788 35.8117 83.7213 35.77 83.6713 35.725L83.8138 35.49C83.8322 35.4617 83.8538 35.44 83.8788 35.425C83.9038 35.41 83.9355 35.4025 83.9738 35.4025C84.0122 35.4025 84.048 35.4133 84.0813 35.435C84.1163 35.4567 84.1563 35.48 84.2013 35.505C84.2463 35.53 84.2988 35.5533 84.3588 35.575C84.4205 35.5967 84.498 35.6075 84.5913 35.6075C84.6647 35.6075 84.7272 35.5992 84.7788 35.5825C84.8322 35.5642 84.8755 35.5408 84.9088 35.5125C84.9438 35.4842 84.9688 35.4517 84.9838 35.415C85.0005 35.3767 85.0088 35.3375 85.0088 35.2975C85.0088 35.2375 84.9905 35.1883 84.9538 35.15C84.9188 35.1117 84.8713 35.0783 84.8113 35.05C84.753 35.0217 84.6855 34.9967 84.6088 34.975C84.5338 34.9517 84.4563 34.9267 84.3763 34.9C84.298 34.8733 84.2205 34.8425 84.1438 34.8075C84.0688 34.7708 84.0013 34.725 83.9413 34.67C83.883 34.615 83.8355 34.5475 83.7988 34.4675C83.7638 34.3875 83.7463 34.2908 83.7463 34.1775C83.7463 34.0725 83.7672 33.9725 83.8088 33.8775C83.8505 33.7825 83.9113 33.7 83.9913 33.63C84.073 33.5583 84.1738 33.5017 84.2938 33.46C84.4155 33.4167 84.5555 33.395 84.7138 33.395C84.8905 33.395 85.0513 33.4242 85.1963 33.4825C85.3413 33.5408 85.4622 33.6175 85.5588 33.7125L85.4188 33.935Z" fill="white"/>
<path d="M50.602 52.445V53H48.4845V49.385H49.157V52.445H50.602ZM51.9879 50.395C52.1779 50.395 52.3504 50.4258 52.5054 50.4875C52.662 50.5492 52.7954 50.6367 52.9054 50.75C53.017 50.8633 53.1029 51.0017 53.1629 51.165C53.2229 51.3283 53.2529 51.5108 53.2529 51.7125C53.2529 51.9158 53.2229 52.0992 53.1629 52.2625C53.1029 52.4258 53.017 52.565 52.9054 52.68C52.7954 52.795 52.662 52.8833 52.5054 52.945C52.3504 53.0067 52.1779 53.0375 51.9879 53.0375C51.7962 53.0375 51.622 53.0067 51.4654 52.945C51.3087 52.8833 51.1745 52.795 51.0629 52.68C50.9529 52.565 50.867 52.4258 50.8054 52.2625C50.7454 52.0992 50.7154 51.9158 50.7154 51.7125C50.7154 51.5108 50.7454 51.3283 50.8054 51.165C50.867 51.0017 50.9529 50.8633 51.0629 50.75C51.1745 50.6367 51.3087 50.5492 51.4654 50.4875C51.622 50.4258 51.7962 50.395 51.9879 50.395ZM51.9879 52.5625C52.2012 52.5625 52.3587 52.4908 52.4604 52.3475C52.5637 52.2042 52.6154 51.9942 52.6154 51.7175C52.6154 51.4408 52.5637 51.23 52.4604 51.085C52.3587 50.94 52.2012 50.8675 51.9879 50.8675C51.7712 50.8675 51.6104 50.9408 51.5054 51.0875C51.402 51.2325 51.3504 51.4425 51.3504 51.7175C51.3504 51.9925 51.402 52.2025 51.5054 52.3475C51.6104 52.4908 51.7712 52.5625 51.9879 52.5625ZM54.3014 50.75C54.3531 50.6983 54.4073 50.6508 54.4639 50.6075C54.5223 50.5625 54.5831 50.525 54.6464 50.495C54.7114 50.4633 54.7806 50.4392 54.8539 50.4225C54.9273 50.4042 55.0073 50.395 55.0939 50.395C55.2339 50.395 55.3581 50.4192 55.4664 50.4675C55.5748 50.5142 55.6648 50.5808 55.7364 50.6675C55.8098 50.7525 55.8648 50.855 55.9014 50.975C55.9398 51.0933 55.9589 51.2242 55.9589 51.3675V53H55.3414V51.3675C55.3414 51.2108 55.3056 51.09 55.2339 51.005C55.1623 50.9183 55.0531 50.875 54.9064 50.875C54.7998 50.875 54.6998 50.8992 54.6064 50.9475C54.5131 50.9958 54.4248 51.0617 54.3414 51.145V53H53.7239V50.435H54.1014C54.1814 50.435 54.2339 50.4725 54.2589 50.5475L54.3014 50.75ZM57.4837 51.655C57.5604 51.655 57.627 51.645 57.6837 51.625C57.7404 51.6033 57.787 51.5742 57.8237 51.5375C57.862 51.5008 57.8904 51.4567 57.9087 51.405C57.9287 51.3533 57.9387 51.2967 57.9387 51.235C57.9387 51.1083 57.9004 51.0083 57.8237 50.935C57.7487 50.86 57.6354 50.8225 57.4837 50.8225C57.332 50.8225 57.2179 50.86 57.1412 50.935C57.0662 51.0083 57.0287 51.1083 57.0287 51.235C57.0287 51.295 57.0379 51.3508 57.0562 51.4025C57.0762 51.4542 57.1045 51.4992 57.1412 51.5375C57.1795 51.5742 57.227 51.6033 57.2837 51.625C57.342 51.645 57.4087 51.655 57.4837 51.655ZM58.1812 53.115C58.1812 53.065 58.1662 53.0242 58.1362 52.9925C58.1062 52.9608 58.0654 52.9367 58.0137 52.92C57.962 52.9017 57.9012 52.8883 57.8312 52.88C57.7629 52.8717 57.6895 52.8658 57.6112 52.8625C57.5345 52.8575 57.4545 52.8533 57.3712 52.85C57.2895 52.8467 57.2095 52.84 57.1312 52.83C57.0629 52.8683 57.007 52.9133 56.9637 52.965C56.922 53.0167 56.9012 53.0767 56.9012 53.145C56.9012 53.19 56.912 53.2317 56.9337 53.27C56.957 53.31 56.9929 53.3442 57.0412 53.3725C57.0912 53.4008 57.1554 53.4225 57.2337 53.4375C57.312 53.4542 57.4079 53.4625 57.5212 53.4625C57.6362 53.4625 57.7354 53.4533 57.8187 53.435C57.902 53.4183 57.9704 53.3942 58.0237 53.3625C58.0787 53.3325 58.1187 53.2958 58.1437 53.2525C58.1687 53.2108 58.1812 53.165 58.1812 53.115ZM58.7962 50.5225V50.7525C58.7962 50.8258 58.752 50.8708 58.6637 50.8875L58.4337 50.93C58.4687 51.0183 58.4862 51.115 58.4862 51.22C58.4862 51.3467 58.4604 51.4617 58.4087 51.565C58.3587 51.6667 58.2887 51.7533 58.1987 51.825C58.1087 51.8967 58.002 51.9525 57.8787 51.9925C57.757 52.0308 57.6254 52.05 57.4837 52.05C57.4337 52.05 57.3854 52.0475 57.3387 52.0425C57.292 52.0375 57.2462 52.0308 57.2012 52.0225C57.1212 52.0708 57.0812 52.125 57.0812 52.185C57.0812 52.2367 57.1045 52.275 57.1512 52.3C57.1995 52.3233 57.2629 52.34 57.3412 52.35C57.4195 52.36 57.5087 52.3667 57.6087 52.37C57.7087 52.3717 57.8112 52.3767 57.9162 52.385C58.0212 52.3933 58.1237 52.4083 58.2237 52.43C58.3237 52.45 58.4129 52.4825 58.4912 52.5275C58.5695 52.5725 58.632 52.6342 58.6787 52.7125C58.727 52.7892 58.7512 52.8883 58.7512 53.01C58.7512 53.1233 58.7229 53.2333 58.6662 53.34C58.6112 53.4467 58.5304 53.5417 58.4237 53.625C58.3187 53.7083 58.1887 53.775 58.0337 53.825C57.8804 53.8767 57.7054 53.9025 57.5087 53.9025C57.3154 53.9025 57.147 53.8833 57.0037 53.845C56.8604 53.8083 56.7412 53.7583 56.6462 53.695C56.5512 53.6333 56.4804 53.5617 56.4337 53.48C56.387 53.3983 56.3637 53.3133 56.3637 53.225C56.3637 53.105 56.3995 53.005 56.4712 52.925C56.5445 52.8433 56.6445 52.7783 56.7712 52.73C56.7029 52.695 56.6487 52.6483 56.6087 52.59C56.5687 52.5317 56.5487 52.455 56.5487 52.36C56.5487 52.3217 56.5554 52.2825 56.5687 52.2425C56.5837 52.2008 56.6045 52.16 56.6312 52.12C56.6595 52.08 56.6945 52.0425 56.7362 52.0075C56.7779 51.9708 56.827 51.9383 56.8837 51.91C56.7537 51.84 56.6512 51.7467 56.5762 51.63C56.5029 51.5133 56.4662 51.3767 56.4662 51.22C56.4662 51.0933 56.4912 50.9792 56.5412 50.8775C56.5929 50.7742 56.6637 50.6867 56.7537 50.615C56.8454 50.5417 56.9529 50.4858 57.0762 50.4475C57.2012 50.4092 57.337 50.39 57.4837 50.39C57.5937 50.39 57.697 50.4017 57.7937 50.425C57.8904 50.4467 57.9787 50.4792 58.0587 50.5225H58.7962ZM60.7964 51.4225C60.7964 51.3425 60.7847 51.2675 60.7614 51.1975C60.7397 51.1258 60.7064 51.0633 60.6614 51.01C60.6164 50.9567 60.5589 50.915 60.4889 50.885C60.4205 50.8533 60.3405 50.8375 60.2489 50.8375C60.0705 50.8375 59.9297 50.8883 59.8264 50.99C59.7247 51.0917 59.6597 51.2358 59.6314 51.4225H60.7964ZM59.6189 51.795C59.6289 51.9267 59.6522 52.0408 59.6889 52.1375C59.7255 52.2325 59.7739 52.3117 59.8339 52.375C59.8939 52.4367 59.9647 52.4833 60.0464 52.515C60.1297 52.545 60.2214 52.56 60.3214 52.56C60.4214 52.56 60.5072 52.5483 60.5789 52.525C60.6522 52.5017 60.7155 52.4758 60.7689 52.4475C60.8239 52.4192 60.8714 52.3933 60.9114 52.37C60.953 52.3467 60.993 52.335 61.0314 52.335C61.083 52.335 61.1214 52.3542 61.1464 52.3925L61.3239 52.6175C61.2555 52.6975 61.1789 52.765 61.0939 52.82C61.0089 52.8733 60.9197 52.9167 60.8264 52.95C60.7347 52.9817 60.6405 53.0042 60.5439 53.0175C60.4489 53.0308 60.3564 53.0375 60.2664 53.0375C60.088 53.0375 59.9222 53.0083 59.7689 52.95C59.6155 52.89 59.4822 52.8025 59.3689 52.6875C59.2555 52.5708 59.1664 52.4275 59.1014 52.2575C59.0364 52.0858 59.0039 51.8875 59.0039 51.6625C59.0039 51.4875 59.0322 51.3233 59.0889 51.17C59.1455 51.015 59.2264 50.8808 59.3314 50.7675C59.438 50.6525 59.5672 50.5617 59.7189 50.495C59.8722 50.4283 60.0447 50.395 60.2364 50.395C60.398 50.395 60.5472 50.4208 60.6839 50.4725C60.8205 50.5242 60.938 50.6 61.0364 50.7C61.1347 50.7983 61.2114 50.92 61.2664 51.065C61.323 51.2083 61.3514 51.3725 61.3514 51.5575C61.3514 51.6508 61.3414 51.7142 61.3214 51.7475C61.3014 51.7792 61.263 51.795 61.2064 51.795H59.6189ZM62.3973 50.88C62.4773 50.7267 62.5723 50.6067 62.6823 50.52C62.7923 50.4317 62.9223 50.3875 63.0723 50.3875C63.1906 50.3875 63.2856 50.4133 63.3573 50.465L63.3173 50.9275C63.3089 50.9575 63.2964 50.9792 63.2798 50.9925C63.2648 51.0042 63.2439 51.01 63.2173 51.01C63.1923 51.01 63.1548 51.0058 63.1048 50.9975C63.0564 50.9892 63.0089 50.985 62.9623 50.985C62.8939 50.985 62.8331 50.995 62.7798 51.015C62.7264 51.035 62.6781 51.0642 62.6348 51.1025C62.5931 51.1392 62.5556 51.1842 62.5223 51.2375C62.4906 51.2908 62.4606 51.3517 62.4323 51.42V53H61.8148V50.435H62.1773C62.2406 50.435 62.2848 50.4467 62.3098 50.47C62.3348 50.4917 62.3514 50.5317 62.3598 50.59L62.3973 50.88ZM66.8109 50.0425C66.7909 50.0775 66.7692 50.1033 66.7459 50.12C66.7242 50.135 66.6967 50.1425 66.6634 50.1425C66.6284 50.1425 66.5901 50.13 66.5484 50.105C66.5084 50.0783 66.4601 50.0492 66.4034 50.0175C66.3467 49.9858 66.2801 49.9575 66.2034 49.9325C66.1284 49.9058 66.0392 49.8925 65.9359 49.8925C65.8426 49.8925 65.7609 49.9042 65.6909 49.9275C65.6209 49.9492 65.5617 49.98 65.5134 50.02C65.4667 50.06 65.4317 50.1083 65.4084 50.165C65.3851 50.22 65.3734 50.2808 65.3734 50.3475C65.3734 50.4325 65.3967 50.5033 65.4434 50.56C65.4917 50.6167 65.5551 50.665 65.6334 50.705C65.7117 50.745 65.8009 50.7808 65.9009 50.8125C66.0009 50.8442 66.1034 50.8783 66.2084 50.915C66.3134 50.95 66.4159 50.9917 66.5159 51.04C66.6159 51.0867 66.7051 51.1467 66.7834 51.22C66.8617 51.2917 66.9242 51.38 66.9709 51.485C67.0192 51.59 67.0434 51.7175 67.0434 51.8675C67.0434 52.0308 67.0151 52.1842 66.9584 52.3275C66.9034 52.4692 66.8217 52.5933 66.7134 52.7C66.6067 52.805 66.4759 52.8883 66.3209 52.95C66.1659 53.01 65.9884 53.04 65.7884 53.04C65.6734 53.04 65.5601 53.0283 65.4484 53.005C65.3367 52.9833 65.2292 52.9517 65.1259 52.91C65.0242 52.8683 64.9284 52.8183 64.8384 52.76C64.7484 52.7017 64.6684 52.6367 64.5984 52.565L64.7959 52.2425C64.8126 52.2192 64.8342 52.2 64.8609 52.185C64.8876 52.1683 64.9159 52.16 64.9459 52.16C64.9876 52.16 65.0326 52.1775 65.0809 52.2125C65.1292 52.2458 65.1867 52.2833 65.2534 52.325C65.3201 52.3667 65.3976 52.405 65.4859 52.44C65.5759 52.4733 65.6834 52.49 65.8084 52.49C66.0001 52.49 66.1484 52.445 66.2534 52.355C66.3584 52.2633 66.4109 52.1325 66.4109 51.9625C66.4109 51.8675 66.3867 51.79 66.3384 51.73C66.2917 51.67 66.2292 51.62 66.1509 51.58C66.0726 51.5383 65.9834 51.5033 65.8834 51.475C65.7834 51.4467 65.6817 51.4158 65.5784 51.3825C65.4751 51.3492 65.3734 51.3092 65.2734 51.2625C65.1734 51.2158 65.0842 51.155 65.0059 51.08C64.9276 51.005 64.8642 50.9117 64.8159 50.8C64.7692 50.6867 64.7459 50.5475 64.7459 50.3825C64.7459 50.2508 64.7717 50.1225 64.8234 49.9975C64.8767 49.8725 64.9534 49.7617 65.0534 49.665C65.1534 49.5683 65.2767 49.4908 65.4234 49.4325C65.5701 49.3742 65.7384 49.345 65.9284 49.345C66.1417 49.345 66.3384 49.3783 66.5184 49.445C66.6984 49.5117 66.8517 49.605 66.9784 49.725L66.8109 50.0425ZM69.1753 51.4225C69.1753 51.3425 69.1636 51.2675 69.1403 51.1975C69.1186 51.1258 69.0853 51.0633 69.0403 51.01C68.9953 50.9567 68.9378 50.915 68.8678 50.885C68.7994 50.8533 68.7194 50.8375 68.6278 50.8375C68.4494 50.8375 68.3086 50.8883 68.2053 50.99C68.1036 51.0917 68.0386 51.2358 68.0103 51.4225H69.1753ZM67.9978 51.795C68.0078 51.9267 68.0311 52.0408 68.0678 52.1375C68.1044 52.2325 68.1528 52.3117 68.2128 52.375C68.2728 52.4367 68.3436 52.4833 68.4253 52.515C68.5086 52.545 68.6003 52.56 68.7003 52.56C68.8003 52.56 68.8861 52.5483 68.9578 52.525C69.0311 52.5017 69.0944 52.4758 69.1478 52.4475C69.2028 52.4192 69.2503 52.3933 69.2903 52.37C69.3319 52.3467 69.3719 52.335 69.4103 52.335C69.4619 52.335 69.5003 52.3542 69.5253 52.3925L69.7028 52.6175C69.6344 52.6975 69.5578 52.765 69.4728 52.82C69.3878 52.8733 69.2986 52.9167 69.2053 52.95C69.1136 52.9817 69.0194 53.0042 68.9228 53.0175C68.8278 53.0308 68.7353 53.0375 68.6453 53.0375C68.4669 53.0375 68.3011 53.0083 68.1478 52.95C67.9944 52.89 67.8611 52.8025 67.7478 52.6875C67.6344 52.5708 67.5453 52.4275 67.4803 52.2575C67.4153 52.0858 67.3828 51.8875 67.3828 51.6625C67.3828 51.4875 67.4111 51.3233 67.4678 51.17C67.5244 51.015 67.6053 50.8808 67.7103 50.7675C67.8169 50.6525 67.9461 50.5617 68.0978 50.495C68.2511 50.4283 68.4236 50.395 68.6153 50.395C68.7769 50.395 68.9261 50.4208 69.0628 50.4725C69.1994 50.5242 69.3169 50.6 69.4153 50.7C69.5136 50.7983 69.5903 50.92 69.6453 51.065C69.7019 51.2083 69.7303 51.3725 69.7303 51.5575C69.7303 51.6508 69.7203 51.7142 69.7003 51.7475C69.6803 51.7792 69.6419 51.795 69.5853 51.795H67.9978ZM71.5487 51.905C71.3703 51.9133 71.2203 51.9292 71.0987 51.9525C70.977 51.9742 70.8795 52.0025 70.8062 52.0375C70.7328 52.0725 70.6803 52.1133 70.6487 52.16C70.617 52.2067 70.6012 52.2575 70.6012 52.3125C70.6012 52.4208 70.6328 52.4983 70.6962 52.545C70.7612 52.5917 70.8453 52.615 70.9487 52.615C71.0753 52.615 71.1845 52.5925 71.2762 52.5475C71.3695 52.5008 71.4603 52.4308 71.5487 52.3375V51.905ZM70.1337 50.7925C70.4287 50.5225 70.7837 50.3875 71.1987 50.3875C71.3487 50.3875 71.4828 50.4125 71.6012 50.4625C71.7195 50.5108 71.8195 50.5792 71.9012 50.6675C71.9828 50.7542 72.0445 50.8583 72.0862 50.98C72.1295 51.1017 72.1512 51.235 72.1512 51.38V53H71.8712C71.8128 53 71.7678 52.9917 71.7362 52.975C71.7045 52.9567 71.6795 52.9208 71.6612 52.8675L71.6062 52.6825C71.5412 52.7408 71.4778 52.7925 71.4162 52.8375C71.3545 52.8808 71.2903 52.9175 71.2237 52.9475C71.157 52.9775 71.0853 53 71.0087 53.015C70.9337 53.0317 70.8503 53.04 70.7587 53.04C70.6503 53.04 70.5503 53.0258 70.4587 52.9975C70.367 52.9675 70.2878 52.9233 70.2212 52.865C70.1545 52.8067 70.1028 52.7342 70.0662 52.6475C70.0295 52.5608 70.0112 52.46 70.0112 52.345C70.0112 52.28 70.022 52.2158 70.0437 52.1525C70.0653 52.0875 70.1003 52.0258 70.1487 51.9675C70.1987 51.9092 70.2628 51.8542 70.3412 51.8025C70.4195 51.7508 70.5153 51.7058 70.6287 51.6675C70.7437 51.6292 70.877 51.5983 71.0287 51.575C71.1803 51.55 71.3537 51.535 71.5487 51.53V51.38C71.5487 51.2083 71.512 51.0817 71.4387 51C71.3653 50.9167 71.2595 50.875 71.1212 50.875C71.0212 50.875 70.9378 50.8867 70.8712 50.91C70.8062 50.9333 70.7487 50.96 70.6987 50.99C70.6487 51.0183 70.6028 51.0442 70.5612 51.0675C70.5212 51.0908 70.4762 51.1025 70.4262 51.1025C70.3828 51.1025 70.3462 51.0917 70.3162 51.07C70.2862 51.0467 70.262 51.02 70.2437 50.99L70.1337 50.7925ZM74.2977 50.935C74.2811 50.9617 74.2636 50.9808 74.2452 50.9925C74.2269 51.0025 74.2036 51.0075 74.1752 51.0075C74.1452 51.0075 74.1127 50.9992 74.0777 50.9825C74.0444 50.9658 74.0052 50.9475 73.9602 50.9275C73.9152 50.9058 73.8636 50.8867 73.8052 50.87C73.7486 50.8533 73.6811 50.845 73.6027 50.845C73.4811 50.845 73.3852 50.8708 73.3152 50.9225C73.2469 50.9742 73.2127 51.0417 73.2127 51.125C73.2127 51.18 73.2302 51.2267 73.2652 51.265C73.3019 51.3017 73.3494 51.3342 73.4077 51.3625C73.4677 51.3908 73.5352 51.4167 73.6102 51.44C73.6852 51.4617 73.7611 51.4858 73.8377 51.5125C73.9161 51.5392 73.9927 51.57 74.0677 51.605C74.1427 51.6383 74.2094 51.6817 74.2677 51.735C74.3277 51.7867 74.3752 51.8492 74.4102 51.9225C74.4469 51.9958 74.4652 52.0842 74.4652 52.1875C74.4652 52.3108 74.4427 52.425 74.3977 52.53C74.3544 52.6333 74.2894 52.7233 74.2027 52.8C74.1161 52.875 74.0086 52.9342 73.8802 52.9775C73.7536 53.0192 73.6069 53.04 73.4402 53.04C73.3519 53.04 73.2652 53.0317 73.1802 53.015C73.0969 53 73.0161 52.9783 72.9377 52.95C72.8611 52.9217 72.7894 52.8883 72.7227 52.85C72.6577 52.8117 72.6002 52.77 72.5502 52.725L72.6927 52.49C72.7111 52.4617 72.7327 52.44 72.7577 52.425C72.7827 52.41 72.8144 52.4025 72.8527 52.4025C72.8911 52.4025 72.9269 52.4133 72.9602 52.435C72.9952 52.4567 73.0352 52.48 73.0802 52.505C73.1252 52.53 73.1777 52.5533 73.2377 52.575C73.2994 52.5967 73.3769 52.6075 73.4702 52.6075C73.5436 52.6075 73.6061 52.5992 73.6577 52.5825C73.7111 52.5642 73.7544 52.5408 73.7877 52.5125C73.8227 52.4842 73.8477 52.4517 73.8627 52.415C73.8794 52.3767 73.8877 52.3375 73.8877 52.2975C73.8877 52.2375 73.8694 52.1883 73.8327 52.15C73.7977 52.1117 73.7502 52.0783 73.6902 52.05C73.6319 52.0217 73.5644 51.9967 73.4877 51.975C73.4127 51.9517 73.3352 51.9267 73.2552 51.9C73.1769 51.8733 73.0994 51.8425 73.0227 51.8075C72.9477 51.7708 72.8802 51.725 72.8202 51.67C72.7619 51.615 72.7144 51.5475 72.6777 51.4675C72.6427 51.3875 72.6252 51.2908 72.6252 51.1775C72.6252 51.0725 72.6461 50.9725 72.6877 50.8775C72.7294 50.7825 72.7902 50.7 72.8702 50.63C72.9519 50.5583 73.0527 50.5017 73.1727 50.46C73.2944 50.4167 73.4344 50.395 73.5927 50.395C73.7694 50.395 73.9302 50.4242 74.0752 50.4825C74.2202 50.5408 74.3411 50.6175 74.4377 50.7125L74.2977 50.935ZM76.065 50.395C76.255 50.395 76.4275 50.4258 76.5825 50.4875C76.7392 50.5492 76.8725 50.6367 76.9825 50.75C77.0942 50.8633 77.18 51.0017 77.24 51.165C77.3 51.3283 77.33 51.5108 77.33 51.7125C77.33 51.9158 77.3 52.0992 77.24 52.2625C77.18 52.4258 77.0942 52.565 76.9825 52.68C76.8725 52.795 76.7392 52.8833 76.5825 52.945C76.4275 53.0067 76.255 53.0375 76.065 53.0375C75.8733 53.0375 75.6992 53.0067 75.5425 52.945C75.3858 52.8833 75.2517 52.795 75.14 52.68C75.03 52.565 74.9442 52.4258 74.8825 52.2625C74.8225 52.0992 74.7925 51.9158 74.7925 51.7125C74.7925 51.5108 74.8225 51.3283 74.8825 51.165C74.9442 51.0017 75.03 50.8633 75.14 50.75C75.2517 50.6367 75.3858 50.5492 75.5425 50.4875C75.6992 50.4258 75.8733 50.395 76.065 50.395ZM76.065 52.5625C76.2783 52.5625 76.4358 52.4908 76.5375 52.3475C76.6408 52.2042 76.6925 51.9942 76.6925 51.7175C76.6925 51.4408 76.6408 51.23 76.5375 51.085C76.4358 50.94 76.2783 50.8675 76.065 50.8675C75.8483 50.8675 75.6875 50.9408 75.5825 51.0875C75.4792 51.2325 75.4275 51.4425 75.4275 51.7175C75.4275 51.9925 75.4792 52.2025 75.5825 52.3475C75.6875 52.4908 75.8483 52.5625 76.065 52.5625ZM78.3786 50.75C78.4303 50.6983 78.4844 50.6508 78.5411 50.6075C78.5994 50.5625 78.6603 50.525 78.7236 50.495C78.7886 50.4633 78.8578 50.4392 78.9311 50.4225C79.0044 50.4042 79.0844 50.395 79.1711 50.395C79.3111 50.395 79.4353 50.4192 79.5436 50.4675C79.6519 50.5142 79.7419 50.5808 79.8136 50.6675C79.8869 50.7525 79.9419 50.855 79.9786 50.975C80.0169 51.0933 80.0361 51.2242 80.0361 51.3675V53H79.4186V51.3675C79.4186 51.2108 79.3828 51.09 79.3111 51.005C79.2394 50.9183 79.1303 50.875 78.9836 50.875C78.8769 50.875 78.7769 50.8992 78.6836 50.9475C78.5903 50.9958 78.5019 51.0617 78.4186 51.145V53H77.8011V50.435H78.1786C78.2586 50.435 78.3111 50.4725 78.3361 50.5475L78.3786 50.75ZM82.1884 50.935C82.1717 50.9617 82.1542 50.9808 82.1359 50.9925C82.1175 51.0025 82.0942 51.0075 82.0659 51.0075C82.0359 51.0075 82.0034 50.9992 81.9684 50.9825C81.935 50.9658 81.8959 50.9475 81.8509 50.9275C81.8059 50.9058 81.7542 50.8867 81.6959 50.87C81.6392 50.8533 81.5717 50.845 81.4934 50.845C81.3717 50.845 81.2759 50.8708 81.2059 50.9225C81.1375 50.9742 81.1034 51.0417 81.1034 51.125C81.1034 51.18 81.1209 51.2267 81.1559 51.265C81.1925 51.3017 81.24 51.3342 81.2984 51.3625C81.3584 51.3908 81.4259 51.4167 81.5009 51.44C81.5759 51.4617 81.6517 51.4858 81.7284 51.5125C81.8067 51.5392 81.8834 51.57 81.9584 51.605C82.0334 51.6383 82.1 51.6817 82.1584 51.735C82.2184 51.7867 82.2659 51.8492 82.3009 51.9225C82.3375 51.9958 82.3559 52.0842 82.3559 52.1875C82.3559 52.3108 82.3334 52.425 82.2884 52.53C82.245 52.6333 82.18 52.7233 82.0934 52.8C82.0067 52.875 81.8992 52.9342 81.7709 52.9775C81.6442 53.0192 81.4975 53.04 81.3309 53.04C81.2425 53.04 81.1559 53.0317 81.0709 53.015C80.9875 53 80.9067 52.9783 80.8284 52.95C80.7517 52.9217 80.68 52.8883 80.6134 52.85C80.5484 52.8117 80.4909 52.77 80.4409 52.725L80.5834 52.49C80.6017 52.4617 80.6234 52.44 80.6484 52.425C80.6734 52.41 80.705 52.4025 80.7434 52.4025C80.7817 52.4025 80.8175 52.4133 80.8509 52.435C80.8859 52.4567 80.9259 52.48 80.9709 52.505C81.0159 52.53 81.0684 52.5533 81.1284 52.575C81.19 52.5967 81.2675 52.6075 81.3609 52.6075C81.4342 52.6075 81.4967 52.5992 81.5484 52.5825C81.6017 52.5642 81.645 52.5408 81.6784 52.5125C81.7134 52.4842 81.7384 52.4517 81.7534 52.415C81.77 52.3767 81.7784 52.3375 81.7784 52.2975C81.7784 52.2375 81.76 52.1883 81.7234 52.15C81.6884 52.1117 81.6409 52.0783 81.5809 52.05C81.5225 52.0217 81.455 51.9967 81.3784 51.975C81.3034 51.9517 81.2259 51.9267 81.1459 51.9C81.0675 51.8733 80.99 51.8425 80.9134 51.8075C80.8384 51.7708 80.7709 51.725 80.7109 51.67C80.6525 51.615 80.605 51.5475 80.5684 51.4675C80.5334 51.3875 80.5159 51.2908 80.5159 51.1775C80.5159 51.0725 80.5367 50.9725 80.5784 50.8775C80.62 50.7825 80.6809 50.7 80.7609 50.63C80.8425 50.5583 80.9434 50.5017 81.0634 50.46C81.185 50.4167 81.325 50.395 81.4834 50.395C81.66 50.395 81.8209 50.4242 81.9659 50.4825C82.1109 50.5408 82.2317 50.6175 82.3284 50.7125L82.1884 50.935Z" fill="white"/>
<path d="M30.4904 67.5125L28.6065 65.3125L20.7611 65.9653L12.8562 60.6852L20.5895 65.0001L26.2666 64.0457L27.9682 63.7914L31.1074 66.0553L30.8501 64.6076L30.1935 63.7134L30.2479 57.0212L36.353 56.3755L33.9344 47.6986L40.0361 38.6361L51.3936 45.144L51.6458 33.9667L57.0366 30.7023L52.502 34.5841L52.4213 46.7265L40.5789 40.2897L35.1898 47.7624L37.6758 57.5488L31.8744 57.7735L31.9436 63.0913L43.3835 61.665L39.7067 70.3726L51.544 64.1844L54.6552 67.6902L51.8014 65.6321L38.3095 72.3099L41.6151 62.914L32.2867 65.0216L33.5438 69.2938L25.6984 69.9466L24.9926 88.3696L17.7757 91.1585L23.7373 88.3057L24.1857 68.435L30.4904 67.5125Z" fill="#212121"/>
</svg>
