<svg width="246" height="215" viewBox="0 0 246 215" fill="none" xmlns="http://www.w3.org/2000/svg">
<g clip-path="url(#clip0_525_345)">
<rect width="245" height="215" transform="translate(0.0820312)" fill="white"/>
<path d="M222.989 164.556L228.456 167.068L220.357 173.529L214.486 170.657L222.989 164.556Z" fill="#3D729E"/>
<path d="M31.46 178.029L34.5865 176.964L37.7131 175.899L40.8397 174.967L44.3137 173.902L47.614 173.104L51.7828 172.039L55.083 171.24L57.5148 170.708L60.1203 170.175L64.1154 169.376L70.5423 168.178L75.5795 167.247L79.5746 166.581L84.0908 166.049L88.9544 165.516L94.5127 164.984L100.418 164.451L106.672 163.919L116.051 163.12H125.952H134.637L145.233 163.919L152.876 164.584L159.129 165.117L164.513 165.782L169.898 166.448L175.457 167.247L178.93 167.779L183.273 168.578L189.005 169.643L194.39 170.841L198.732 171.906L203.422 172.971L206.722 173.902L209.675 174.701L213.149 175.766L216.971 176.964L219.75 178.029L214.191 183.087L204.638 179.626L194.737 176.565L188.31 174.967L182.231 173.636L176.499 172.571L167.987 171.24L160.345 170.175L151.66 169.243L145.233 168.578L134.637 168.178H127.168H116.051L106.672 168.844L101.287 169.243L96.4234 169.604L94.5127 169.776L87.9122 170.574L83.396 171.24L80.0957 171.772L76.7954 172.305L73.8425 172.837L70.1949 173.503L66.1998 174.302L60.4677 175.633L56.2989 176.698L52.6512 177.763L47.9614 179.227L43.9663 180.558L40.8397 181.756L37.3657 183.22L31.46 178.029Z" fill="#495587"/>
<path d="M4.33008 145.859L8.33076 144.748L12.3314 143.637L16.3321 142.665L20.7773 141.554L25.0003 140.721L30.3345 139.61L34.5575 138.776L37.6691 138.221L41.003 137.665L46.115 136.832L54.3386 135.582L60.7841 134.61L65.8961 133.916L71.6749 133.36L77.8982 132.805L85.0105 132.249L92.5673 131.694L100.569 131.138L112.613 130.816H127.164H136.977L149.91 131.138L159.69 131.833L167.691 132.388L174.581 133.082L181.471 133.777L188.584 134.61L193.029 135.166L198.585 135.999L205.92 137.11L212.81 138.36L218.367 139.471L224.368 140.582L228.591 141.554L232.369 142.387L236.814 143.498L241.704 144.748L245.26 145.859L238.148 151.137L225.923 147.526L213.255 144.332L205.031 142.665L197.252 141.276L189.917 140.165L179.027 138.776L169.247 137.665L158.134 136.693L149.91 135.999L138.33 135.582H126.318L112.613 135.42L100.569 136.277L93.6786 136.693L87.4554 137.069L85.0105 137.249L76.5646 138.082L70.7858 138.776L66.5629 139.332L62.34 139.887L58.5615 140.443L53.8941 141.137L48.7821 141.971L41.4475 143.359L36.1133 144.47L31.4458 145.581L25.4448 147.109L20.3328 148.498L16.3321 149.748L11.8869 151.275L4.33008 145.859Z" fill="#495587"/>
<path d="M44.0305 125.977L76.7358 121.93L77.7113 130.086L61.4667 131.85L45.2221 133.614L44.0305 125.977Z" fill="#1E1E1E"/>
<path d="M44.0305 125.977L76.7358 121.93L77.7113 130.086L61.4667 131.85L45.2221 133.614L44.0305 125.977Z" fill="#1E1E1E"/>
<path d="M3.08203 134.717L34.6928 127.455L36.909 135.035L5.29816 142.297L3.08203 134.717Z" fill="#1E1E1E"/>
<path d="M173.386 121.663L205.334 125.912L203.936 133.711L169.944 128.924L173.386 121.663Z" fill="#1E1E1E"/>
<path d="M216.288 128.004L245.324 134.564L243.124 142.216L214.088 135.656L216.288 128.004Z" fill="#1E1E1E"/>
<line y1="-1" x2="3.97905" y2="-1" transform="matrix(-0.188985 0.98198 -0.988759 -0.149516 176.77 129.38)" stroke="#1E1E1E" stroke-width="2"/>
<line y1="-1" x2="4.02961" y2="-1" transform="matrix(-0.200933 0.979605 -0.98726 -0.159113 195.859 131.893)" stroke="#1E1E1E" stroke-width="2"/>
<path d="M219.748 134.506L218.13 139.531" stroke="#1E1E1E" stroke-width="2"/>
<line y1="-1" x2="4.4752" y2="-1" transform="matrix(-0.271446 0.962454 -0.976315 -0.216355 236.352 138.713)" stroke="#1E1E1E" stroke-width="2"/>
<line y1="-1" x2="5.76991" y2="-1" transform="matrix(0.163741 0.986503 -0.991603 0.129322 51.3013 130.458)" stroke="#1E1E1E" stroke-width="2"/>
<line y1="-1" x2="6.5108" y2="-1" transform="matrix(0.124376 0.992235 -0.995185 0.0980163 71.5474 126.868)" stroke="#1E1E1E" stroke-width="2"/>
<line y1="-1" x2="5.86568" y2="-1" transform="matrix(0.351333 0.936251 -0.959175 0.282813 11.2139 137.995)" stroke="#1E1E1E" stroke-width="2"/>
<line y1="-1" x2="7.00596" y2="-1" transform="matrix(0.312837 0.949807 -0.968106 0.250542 28.2207 132.97)" stroke="#1E1E1E" stroke-width="2"/>
<path d="M21.5391 161.685L28.0179 159.531L35.509 157.198L44.0124 154.686L49.4789 153.25L55.9577 151.814L64.4611 150.019L71.7498 148.584L77.2162 147.686L81.6704 146.968L88.3517 146.071L97.6649 145.174L102.929 144.815L109.61 144.635L116.899 144.635L124.997 144.635L133.906 144.635L143.624 144.815L151.115 145.353L157.594 145.892L165.085 146.789L174.398 148.045L182.699 149.481L191.81 151.276L199.908 153.25L206.387 155.044L213.473 157.019L221.369 159.711L227.848 161.864L231.897 163.3" stroke="#3D729A" stroke-width="6"/>
<path d="M14.401 156.145L21.2499 153.975L29.1686 151.622L38.1568 149.088L43.9344 147.638L50.7811 146.186L59.767 144.369L67.4689 142.915L73.2448 142.004L77.951 141.274L85.0097 140.36L94.848 139.439L100.408 139.066L107.465 138.87L115.162 138.852L123.715 138.831L133.122 138.808L143.385 138.963L151.294 139.483L158.134 140.005L166.043 140.883L175.874 142.116L184.636 143.531L194.251 145.303L202.798 147.257L209.634 149.035L217.111 150.991L225.441 153.664L232.276 155.801L236.548 157.227" stroke="#3D729A" stroke-width="6"/>
<path d="M29.6377 163.838L44.1176 159.172L52.111 165.453L37.7362 170.119L29.6377 163.838Z" fill="#495182"/>
<path d="M46.6445 158.633L67.0932 153.967L72.1548 160.608L54.1356 164.915L46.6445 158.633Z" fill="#3D729E"/>
<path d="M69.3203 153.429L88.7567 150.199L91.9961 157.018L74.5843 160.069L69.3203 153.429Z" fill="#495182"/>
<path d="M91.1533 149.84L112.445 148.583L113.659 155.762L93.8182 156.659L91.1533 149.84Z" fill="#3D729E"/>
<path d="M114.082 148.5H135.582V155.5H114.582L114.082 148.5Z" fill="#495182"/>
<path d="M136.538 148.583L147.066 149.122L157.999 150.199L154.962 156.839L136.943 155.583L136.538 148.583Z" fill="#3D729E"/>
<path d="M160.024 150.199L180.472 153.25L174.803 160.069L156.987 157.198L160.024 150.199Z" fill="#495182"/>
<path d="M35.5088 170.657L30.6504 172.272L22.7539 166.351L27.0059 164.556L35.5088 170.657Z" fill="#3D729E"/>
<path d="M35.5088 170.657L30.6504 172.272L22.7539 166.351L27.0059 164.556L35.5088 170.657Z" stroke="black"/>
<path d="M182.497 153.788L203.148 158.275L196.062 164.735L177.435 160.428L182.497 153.788Z" fill="#3D729E"/>
<path d="M205.578 159.172L220.762 163.838L212.259 170.119L198.289 165.633L205.578 159.172Z" fill="#495182"/>
<path d="M30.4478 174.247L36.7241 172.093L42.393 170.119L49.4792 167.966L54.7432 166.53L59.1974 165.274L64.0565 164.017L69.5229 162.761L78.4313 161.146L85.5175 160.069L94.0209 158.992L100.905 158.274L105.966 157.915L111.838 157.736L131.881 157.377L141.599 157.736L146.256 158.095L152.937 158.633L161.643 159.71L171.361 161.146L177.233 162.223L183.307 163.479L189.785 164.915L195.859 166.53L201.933 168.324L207.4 170.119L212.259 171.734L219.952 174.426L217.118 173.17L214.081 171.914L208.817 169.94L203.755 168.055L197.681 166.171L191 164.376L187.255 163.389L183.712 162.582L177.435 161.146L165.49 158.992L157.392 157.915L148.888 157.018L144.434 156.659L139.777 156.48L119.088 156.3L105.156 156.659L97.4627 157.198L92.1987 157.915L84.9101 158.992L78.2288 160.069L73.7747 160.966L69.3205 161.864L63.0442 163.299L54.7432 165.453L50.4915 166.709L46.2398 168.145L43.2029 169.222L38.3438 171.016L30.4478 174.247Z" fill="#CDE458"/>
<path d="M15.668 159.35L22.8965 157.175L29.4254 155.181L37.5867 153.006L43.6493 151.556L48.7792 150.288L54.3754 149.019L60.6712 147.75L70.9311 146.119L79.0923 145.032L88.8857 143.944L96.8138 143.219L102.643 142.857L109.405 142.676L132.49 142.313L143.682 142.676L149.046 143.038L156.74 143.582L166.767 144.669L177.96 146.119L184.722 147.207L191.717 148.475L199.179 149.925L206.174 151.556L213.169 153.369L219.465 155.181L225.061 156.812L233.922 159.531L230.658 158.262L227.16 156.994L221.097 155L215.268 153.097L208.273 151.194L200.578 149.381L196.264 148.385L192.183 147.569L184.955 146.119L171.197 143.944L161.87 142.857L152.077 141.951L146.947 141.588L141.584 141.407L117.756 141.226L101.71 141.588L92.8497 142.132L86.7871 142.857L78.3927 143.944L70.6979 145.032L65.568 145.938L60.4381 146.844L53.2096 148.294L43.6493 150.469L38.7525 151.738L33.8558 153.188L30.3582 154.275L24.7619 156.087L15.668 159.35Z" fill="#CDE458"/>
<path d="M24.7788 109.999L24.7788 130.817" stroke="black" stroke-opacity="0.25" stroke-width="7"/>
<line x1="225.679" y1="109.64" x2="225.679" y2="129.74" stroke="black" stroke-opacity="0.25" stroke-width="7"/>
<path d="M212.461 96H215.7L216.105 98.8714H212.866L212.461 96Z" fill="#D9D9D9"/>
<path d="M216.51 96H219.75L220.155 98.8714H216.915L216.51 96Z" fill="#D9D9D9"/>
<path d="M220.56 96H223.799L224.204 98.8714H220.964L220.56 96Z" fill="#D9D9D9"/>
<path d="M224.609 96H227.848L228.253 98.8714H225.014L224.609 96Z" fill="#D9D9D9"/>
<path d="M228.861 96H232.1L232.505 98.8714H229.266L228.861 96Z" fill="#D9D9D9"/>
<path d="M213.271 99.5894H216.51L216.915 102.461H213.676L213.271 99.5894Z" fill="#D9D9D9"/>
<path d="M217.27 99.5894H220.509L220.914 102.461H217.674L217.27 99.5894Z" fill="#D9D9D9"/>
<path d="M221.37 99.5894H224.609L225.014 102.461H221.775L221.37 99.5894Z" fill="#D9D9D9"/>
<path d="M225.419 99.5894H228.658L229.063 102.461H225.824L225.419 99.5894Z" fill="#D9D9D9"/>
<path d="M229.671 99.5894H232.91L233.315 102.461H230.076L229.671 99.5894Z" fill="#D9D9D9"/>
<path d="M218.13 103.179H221.37L221.775 106.05H218.535L218.13 103.179Z" fill="#D9D9D9"/>
<path d="M214.005 103.358H217.244L217.649 106.229H214.41L214.005 103.358Z" fill="#D9D9D9"/>
<path d="M226.229 103.179H229.468L229.873 106.05H226.633L226.229 103.179Z" fill="#D9D9D9"/>
<path d="M230.48 103.179H233.72L234.125 106.05H230.885L230.48 103.179Z" fill="#D9D9D9"/>
<path d="M222.179 103.179H225.419L225.824 106.05H222.584L222.179 103.179Z" fill="#D9D9D9"/>
<path d="M218.94 106.768H222.179L222.584 109.64H219.345L218.94 106.768Z" fill="#D9D9D9"/>
<path d="M214.764 106.947H218.004L218.408 109.819H215.169L214.764 106.947Z" fill="#D9D9D9"/>
<path d="M222.989 106.768H226.229L226.634 109.64H223.394L222.989 106.768Z" fill="#D9D9D9"/>
<path d="M227.039 106.768H230.278L230.683 109.64H227.443L227.039 106.768Z" fill="#D9D9D9"/>
<path d="M231.29 106.768H234.53L234.935 109.64H231.695L231.29 106.768Z" fill="#D9D9D9"/>
<path d="M20.9318 96.7178H23.9687L23.5638 99.4098H20.5269L20.9318 96.7178Z" fill="#D9D9D9"/>
<path d="M28.2204 96.7178H31.2573L30.8524 99.4098H27.8154L28.2204 96.7178Z" fill="#D9D9D9"/>
<path d="M31.8649 96.7178H34.9018L34.4969 99.4098H31.46L31.8649 96.7178Z" fill="#D9D9D9"/>
<path d="M17.2877 96.7178H20.3247L19.9197 99.4098H16.8828L17.2877 96.7178Z" fill="#D9D9D9"/>
<path d="M24.5763 96.7178H27.6132L27.2083 99.4098H24.1714L24.5763 96.7178Z" fill="#D9D9D9"/>
<path d="M19.7174 106.409H22.7544L22.3494 109.101H19.3125L19.7174 106.409Z" fill="#D9D9D9"/>
<path d="M27.006 106.409H30.0429L29.638 109.101H26.6011L27.006 106.409Z" fill="#D9D9D9"/>
<path d="M30.65 106.409H33.687L33.282 109.101H30.2451L30.65 106.409Z" fill="#D9D9D9"/>
<path d="M16.0729 106.409H19.1098L18.7049 109.101H15.668L16.0729 106.409Z" fill="#D9D9D9"/>
<path d="M23.3615 106.409H26.3984L25.9935 109.101H22.9565L23.3615 106.409Z" fill="#D9D9D9"/>
<path d="M20.1222 103.179H23.1591L22.7542 105.871H19.7173L20.1222 103.179Z" fill="#D9D9D9"/>
<path d="M31.0553 103.179H34.0922L33.6873 105.871H30.6504L31.0553 103.179Z" fill="#D9D9D9"/>
<path d="M27.4108 103.179H30.4477L30.0428 105.871H27.0059L27.4108 103.179Z" fill="#D9D9D9"/>
<path d="M16.4777 103.179H19.5146L19.1097 105.871H16.0728L16.4777 103.179Z" fill="#D9D9D9"/>
<path d="M23.7667 103.179H26.8037L26.3987 105.871H23.3618L23.7667 103.179Z" fill="#D9D9D9"/>
<path d="M20.527 99.9482H23.5639L23.159 102.64H20.1221L20.527 99.9482Z" fill="#D9D9D9"/>
<path d="M27.8156 99.9482H30.8525L30.4476 102.64H27.4106L27.8156 99.9482Z" fill="#D9D9D9"/>
<path d="M31.4601 99.9482H34.497L34.0921 102.64H31.0552L31.4601 99.9482Z" fill="#D9D9D9"/>
<path d="M16.883 99.9482H19.9199L19.515 102.64H16.478L16.883 99.9482Z" fill="#D9D9D9"/>
<path d="M24.1715 99.9482H27.2085L26.8035 102.64H23.7666L24.1715 99.9482Z" fill="#D9D9D9"/>
<path d="M49.8684 39.9553L48.1596 45.7308L53.8143 48.9575L47.1036 49.3002L45.3949 55.0756L42.9562 49.512L36.2455 49.8547L41.449 46.0735L39.0103 40.5099L44.6649 43.7366L49.8684 39.9553Z" fill="#CDE458"/>
<path d="M57.4694 19.502L59.2142 24.1697L64.8607 24.1697L60.2926 27.0545L62.0374 31.7223L57.4694 28.8375L52.9013 31.7223L54.6462 27.0545L50.0781 24.1697L55.7246 24.1697L57.4694 19.502Z" fill="#A11C20"/>
<path d="M63.2165 95.6367L64.4874 99.5179H68.6003L65.2729 101.917L66.5439 105.798L63.2165 103.399L59.8891 105.798L61.1601 101.917L57.8327 99.5179H61.9456L63.2165 95.6367Z" fill="#FF256A"/>
<path d="M171.453 50.0259L172.151 51.7547H174.41L172.583 52.8231L173.281 54.5519L171.453 53.4835L169.626 54.5519L170.324 52.8231L168.497 51.7547H170.755L171.453 50.0259Z" fill="#FFC200"/>
<path d="M202.817 109L204.33 112.976H209.223L205.264 115.434L206.776 119.41L202.817 116.952L198.858 119.41L200.371 115.434L196.412 112.976H201.305L202.817 109Z" fill="#FF5912"/>
<path d="M110.316 17.5005L111.363 20.0937H114.751L112.01 21.6964L113.057 24.2896L110.316 22.6869L107.575 24.2896L108.622 21.6964L105.882 20.0937H109.269L110.316 17.5005Z" fill="#00D9FF"/>
<path d="M55.7175 51.8841L137.352 23.434L153.672 67.6483L71.2521 95.1917L55.7175 51.8841Z" fill="#3D3D3D"/>
<path d="M59.8274 53.3934L135.175 27.3L149.592 66.4406L73.1561 91.5676L59.8274 53.3934Z" fill="#009AD7"/>
<path d="M83.8041 62.6129C83.1225 62.845 82.5415 62.9881 82.0611 63.0422C81.5838 63.1036 81.1891 63.0948 80.877 63.0157C80.565 62.9366 80.3153 62.811 80.1281 62.6389C79.9453 62.4568 79.8032 62.2483 79.7017 62.0132C79.6066 61.7929 79.5456 61.5609 79.5186 61.3174C79.4993 61.0712 79.5297 60.7997 79.61 60.5028C79.808 60.6797 80.0709 60.826 80.3989 60.9418C80.7268 61.0576 81.0692 61.1264 81.426 61.1481C81.7904 61.1672 82.1202 61.1265 82.4156 61.0259C82.8094 60.8919 83.1096 60.7222 83.3164 60.517C83.5276 60.3019 83.6345 60.0465 83.6371 59.7507C82.2768 60.0201 81.1622 60.0037 80.2934 59.7014C79.4215 59.3917 78.8317 58.8807 78.5242 58.1682C78.3435 57.7495 78.2721 57.3526 78.31 56.9775C78.3554 56.5998 78.4798 56.2541 78.6832 55.9405C78.8835 55.6196 79.1292 55.3337 79.4205 55.0829C79.7087 54.8247 80.0104 54.6082 80.3258 54.4334C80.6381 54.2513 80.9268 54.1151 81.1918 54.0248C82.1536 53.6973 82.9395 53.5561 83.5496 53.6011C84.164 53.6362 84.5886 53.9255 84.8232 54.469C84.9595 54.7848 84.9979 55.075 84.9384 55.3396C84.8864 55.6016 84.763 55.829 84.5683 56.0217C84.3779 56.2044 84.1426 56.3435 83.8624 56.4389C83.5292 56.5524 83.1639 56.5715 82.7666 56.4962C82.3661 56.4135 82.0286 56.2251 81.754 55.9311C81.4889 56.0214 81.2657 56.1985 81.0843 56.4624C80.8998 56.719 80.8346 57.0108 80.8888 57.3378C81.9975 57.2298 82.9204 57.2147 83.6574 57.2922C84.402 57.3672 84.9921 57.537 85.4277 57.8015C85.8632 58.066 86.1808 58.4296 86.3806 58.8923C86.612 59.4285 86.6441 59.9357 86.477 60.4138C86.3099 60.892 85.9911 61.3206 85.5207 61.6999C85.0579 62.0765 84.4857 62.3809 83.8041 62.6129ZM89.9484 60.5333C89.441 60.7061 89.0211 60.6891 88.6885 60.4821C88.3604 60.2653 88.0727 59.8704 87.8255 59.2975C87.667 58.9303 87.4898 58.3588 87.2939 57.583C87.1025 56.7973 86.8572 55.7562 86.5581 54.4595L85.4473 53.4856C85.7081 53.1441 86.0059 52.8279 86.3407 52.5369C86.6723 52.2387 87.0388 52.0212 87.4402 51.8845C87.6447 51.8149 87.8763 51.7781 88.1352 51.7742C88.4017 51.7677 88.6016 51.7881 88.7349 51.8354C88.9751 51.6272 89.2129 51.4536 89.4482 51.3145C89.691 51.1728 89.9261 51.0633 90.1533 50.986C90.6531 50.8158 91.1241 50.7902 91.5663 50.9092C92.0054 51.0208 92.3929 51.2343 92.7287 51.5496C93.0721 51.8623 93.3374 52.2353 93.5244 52.6687C93.6893 53.0506 93.78 53.462 93.7965 53.9029C93.8099 54.3364 93.7295 54.7639 93.5554 55.1855C93.3812 55.6071 93.0968 55.9946 92.7021 56.348C92.3074 56.7014 91.7844 56.989 91.1332 57.2108C90.9438 57.2753 90.746 57.33 90.5396 57.375C90.3376 57.4101 90.1308 57.4342 89.9193 57.4472C89.988 57.7271 90.0524 57.9369 90.1127 58.0764C90.2744 58.451 90.4372 58.7578 90.6011 58.9968C90.7727 59.2333 90.9533 59.4203 91.143 59.5579C90.8313 60.0432 90.4331 60.3683 89.9484 60.5333ZM89.9367 56.0386C90.2472 55.9329 90.5108 55.7589 90.7276 55.5166C90.9488 55.2643 91.0948 54.9787 91.1656 54.6598C91.2364 54.3408 91.2005 54.016 91.0578 53.6855C90.9215 53.3697 90.7064 53.1228 90.4124 52.9449C90.1153 52.7596 89.7737 52.7327 89.3874 52.8643C89.236 52.9158 89.0745 53.0045 88.9029 53.1303C88.9678 53.361 89.0396 53.6482 89.1185 53.992C89.2018 54.3259 89.2839 54.6771 89.3648 55.0455C89.4532 55.4114 89.5293 55.7688 89.593 56.1177C89.7085 56.1037 89.8231 56.0773 89.9367 56.0386ZM98.0908 57.7607C97.5834 57.9335 97.1635 57.9164 96.831 57.7095C96.5029 57.4927 96.2152 57.0978 95.9679 56.5249C95.8094 56.1577 95.6322 55.5861 95.4364 54.8104C95.2449 54.0247 94.9997 52.9835 94.7006 51.6869L93.5897 50.713C93.8505 50.3715 94.1484 50.0552 94.4831 49.7643C94.8148 49.466 95.1813 49.2486 95.5826 49.1119C95.8401 49.0242 96.0548 49.0185 96.2267 49.0948C96.4062 49.1685 96.5567 49.2857 96.6782 49.4465C96.9401 49.3489 97.2379 49.2138 97.5716 49.0412C97.9053 48.8686 98.2517 48.6748 98.6106 48.4599C98.9695 48.2451 99.3123 48.023 99.639 47.7938C99.7371 47.9205 99.8153 48.0413 99.8736 48.1562C99.9395 48.2686 99.9946 48.3762 100.039 48.479C100.22 48.8977 100.269 49.2728 100.186 49.6042C100.103 49.9357 99.9221 50.2206 99.6428 50.4589C99.371 50.6947 99.0382 50.8796 98.6445 51.0137C98.2204 51.1581 97.7582 51.2144 97.2581 51.1825C97.3204 51.4477 97.3853 51.7289 97.4528 52.026C97.5171 52.3159 97.5791 52.6106 97.639 52.9104C97.7697 52.8912 97.895 52.8696 98.015 52.8456C98.1425 52.819 98.2668 52.7851 98.388 52.7438C98.5267 52.6629 98.6813 52.5681 98.8516 52.4596C99.0263 52.3411 99.1761 52.2354 99.3009 52.1423C99.3725 52.2275 99.4304 52.3215 99.4748 52.4243C99.5236 52.5172 99.5606 52.593 99.586 52.6518C99.7382 53.0044 99.7242 53.304 99.544 53.5507C99.3714 53.7948 99.1185 53.9736 98.7853 54.087C98.6414 54.136 98.5019 54.1751 98.3669 54.2042C98.2286 54.226 98.0888 54.2442 97.9473 54.2586C98.0046 54.4919 98.0646 54.7115 98.1275 54.9176C98.1904 55.1236 98.2773 55.3552 98.3883 55.6123L100.229 54.9856C100.769 54.7089 101.287 54.3684 101.781 53.9641C101.846 54.0346 101.902 54.1127 101.947 54.1982C101.993 54.2838 102.038 54.378 102.082 54.4808C102.193 54.7379 102.251 55.013 102.256 55.3062C102.261 55.5994 102.19 55.8678 102.043 56.1115C101.897 56.3553 101.657 56.5338 101.324 56.6473C101.149 56.7066 100.965 56.7525 100.771 56.785C100.576 56.8175 100.373 56.849 100.16 56.8793C100.003 56.8989 99.8354 56.9224 99.6561 56.9497C99.4844 56.9745 99.2953 57.0094 99.0889 57.0544C98.8173 57.3912 98.4846 57.6266 98.0908 57.7607ZM105.124 55.3658C104.617 55.5386 104.197 55.5215 103.864 55.3146C103.536 55.0978 103.248 54.7029 103.001 54.13C102.843 53.7628 102.665 53.1913 102.469 52.4155C102.278 51.6298 102.033 50.5886 101.734 49.292L100.623 48.3181C100.884 47.9766 101.181 47.6603 101.516 47.3694C101.848 47.0712 102.214 46.8537 102.616 46.717C102.873 46.6293 103.088 46.6236 103.26 46.6999C103.439 46.7736 103.59 46.8908 103.711 47.0516C103.973 46.954 104.271 46.8189 104.605 46.6463C104.938 46.4737 105.285 46.28 105.644 46.0651C106.003 45.8502 106.345 45.6281 106.672 45.3989C106.77 45.5256 106.848 45.6464 106.907 45.7614C106.973 45.8737 107.028 45.9813 107.072 46.0841C107.253 46.5028 107.302 46.8779 107.219 47.2093C107.136 47.5408 106.955 47.8257 106.676 48.064C106.404 48.2998 106.071 48.4847 105.678 48.6188C105.253 48.7632 104.791 48.8195 104.291 48.7876C104.354 49.0528 104.418 49.334 104.486 49.6312C104.55 49.921 104.612 50.2158 104.672 50.5155C104.803 50.4963 104.928 50.4747 105.048 50.4507C105.176 50.4241 105.3 50.3902 105.421 50.3489C105.56 50.268 105.714 50.1732 105.885 50.0647C106.059 49.9462 106.209 49.8405 106.334 49.7474C106.406 49.8326 106.464 49.9266 106.508 50.0294C106.557 50.1223 106.594 50.1982 106.619 50.2569C106.771 50.6095 106.757 50.9091 106.577 51.1558C106.405 51.3999 106.152 51.5787 105.818 51.6921C105.675 51.7411 105.535 51.7802 105.4 51.8094C105.262 51.8312 105.122 51.8493 104.98 51.8638C105.038 52.097 105.098 52.3166 105.161 52.5227C105.224 52.7288 105.31 52.9603 105.421 53.2174L107.262 52.5908C107.802 52.314 108.32 51.9735 108.814 51.5693C108.879 51.6397 108.935 51.7178 108.98 51.8033C109.026 51.8889 109.071 51.9831 109.115 52.0859C109.226 52.343 109.284 52.6181 109.289 52.9113C109.294 53.2045 109.223 53.4729 109.077 53.7166C108.93 53.9604 108.69 54.139 108.357 54.2524C108.182 54.3117 107.998 54.3576 107.804 54.3902C107.609 54.4227 107.406 54.4541 107.193 54.4844C107.036 54.504 106.868 54.5275 106.689 54.5548C106.517 54.5796 106.328 54.6145 106.122 54.6595C105.85 54.9963 105.518 55.2317 105.124 55.3658ZM113.3 52.5693C112.815 52.7343 112.346 52.8055 111.893 52.7827C111.448 52.7574 111.051 52.6316 110.701 52.4052C110.348 52.1715 110.072 51.8233 109.872 51.3605C109.752 51.0814 109.629 50.7062 109.504 50.235C109.386 49.7612 109.265 49.2381 109.139 48.6658C109.011 48.0862 108.875 47.5005 108.733 46.9087L107.622 45.9349C107.945 45.5554 108.267 45.2265 108.59 44.9481C108.92 44.6671 109.301 44.4531 109.733 44.3061C109.915 44.2442 110.079 44.222 110.226 44.2395C110.372 44.257 110.505 44.3043 110.626 44.3813C110.904 44.1603 111.175 43.975 111.441 43.8256C111.707 43.6762 111.968 43.5577 112.226 43.47C112.915 43.2353 113.555 43.1899 114.147 43.3338C114.739 43.4776 115.255 43.7569 115.695 44.1717C116.142 44.5838 116.49 45.0801 116.741 45.6603C116.941 46.1231 117.066 46.6153 117.118 47.1369C117.177 47.656 117.148 48.1838 117.032 48.7203C116.924 49.2542 116.719 49.7662 116.418 50.2562C116.117 50.7462 115.711 51.1923 115.198 51.5943C114.682 51.989 114.049 52.314 113.3 52.5693ZM113.014 50.8214C113.59 50.6255 114.01 50.3222 114.276 49.9115C114.55 49.4983 114.686 49.0305 114.687 48.5081C114.687 47.9856 114.573 47.46 114.345 46.9311C114.06 46.2701 113.673 45.7868 113.185 45.4812C112.694 45.1682 112.141 45.1162 111.528 45.3251C111.46 45.3483 111.389 45.3765 111.317 45.4096C111.244 45.4427 111.17 45.4808 111.093 45.5239C111.174 45.8331 111.272 46.221 111.386 46.6875C111.508 47.1514 111.632 47.6486 111.757 48.179C111.886 48.6995 112.01 49.2089 112.13 49.7074C112.254 50.1959 112.364 50.6132 112.461 50.9592C112.559 50.9429 112.654 50.923 112.748 50.8994C112.842 50.8758 112.931 50.8498 113.014 50.8214ZM121.376 51.7399C121.194 51.8018 120.99 51.8504 120.762 51.8859C120.534 51.9214 120.305 51.9236 120.074 51.8926C119.844 51.8616 119.631 51.7823 119.437 51.6546C119.243 51.5269 119.087 51.3272 118.97 51.0554C118.888 50.8644 118.84 50.6323 118.826 50.359C118.809 50.0783 118.841 49.7808 118.923 49.4666C119.202 49.6497 119.508 49.756 119.842 49.7854C120.176 49.8149 120.495 49.778 120.798 49.6749C121.146 49.5563 121.435 49.3609 121.665 49.0888C121.9 48.8068 122.005 48.4676 121.982 48.0712C121.769 48.2026 121.599 48.3025 121.473 48.3709C121.346 48.4394 121.195 48.5033 121.021 48.5626C120.65 48.6889 120.321 48.7124 120.035 48.6329C119.753 48.5435 119.513 48.3093 119.315 47.9304C119.14 47.5856 118.956 47.2101 118.764 46.8039C118.571 46.3977 118.36 45.9894 118.131 45.5788C117.909 45.1657 117.663 44.7776 117.394 44.4145C117.124 44.0514 116.83 43.7428 116.512 43.4889C116.191 43.2276 115.836 43.0494 115.447 42.9542C115.674 42.6748 115.884 42.456 116.076 42.2978C116.273 42.1297 116.5 42.0019 116.757 41.9142C117.174 41.7724 117.56 41.7505 117.915 41.8487C118.274 41.9369 118.605 42.1105 118.908 42.3696C119.219 42.6262 119.501 42.9386 119.756 43.3068C120.018 43.6725 120.26 44.0619 120.482 44.475C120.703 44.8882 120.905 45.2954 121.087 45.6968C121.277 46.0956 121.45 46.4577 121.608 46.7831L121.767 46.7289C121.767 46.3667 121.75 45.964 121.715 45.521C121.687 45.0754 121.642 44.6275 121.578 44.1775C121.511 43.7202 121.43 43.2926 121.337 42.8948C121.248 42.4871 121.145 42.1473 121.027 41.8756C120.958 41.714 120.88 41.5845 120.795 41.4873C120.714 41.38 120.631 41.2901 120.548 41.2174C120.967 40.6788 121.419 40.327 121.903 40.162C122.32 40.0201 122.671 40.0395 122.958 40.22C123.248 40.3905 123.475 40.6631 123.636 41.0377C123.731 41.2581 123.816 41.5747 123.89 41.9876C123.961 42.3931 124.02 42.8617 124.067 43.3933C124.114 43.9248 124.142 44.4838 124.152 45.0702C124.166 45.6466 124.163 46.2122 124.142 46.767C124.099 47.6745 123.994 48.4561 123.825 49.1117C123.656 49.7672 123.377 50.3087 122.988 50.736C122.61 51.168 122.073 51.5026 121.376 51.7399ZM93.5432 76.1584C93.0358 76.3311 92.6159 76.3141 92.2834 76.1072C91.9553 75.8903 91.6676 75.4955 91.4203 74.9225C91.2618 74.5553 91.0846 73.9838 90.8888 73.208C90.6973 72.4223 90.452 71.3812 90.153 70.0845L89.0421 69.1107C89.3029 68.7691 89.6007 68.4529 89.9355 68.1619C90.2672 67.8637 90.6337 67.6462 91.035 67.5095C91.391 67.3883 91.6701 67.4112 91.8725 67.5782C92.0748 67.7452 92.2362 67.9682 92.3567 68.2474C92.4106 68.3722 92.4729 68.5869 92.5435 68.8914C92.6185 69.186 92.6974 69.5298 92.7802 69.9229C92.8706 70.3133 92.9603 70.7124 93.0494 71.1201L93.3979 70.5087C93.6937 69.9867 93.9205 69.4756 94.0781 68.9754C94.2357 68.4753 94.2321 68.0342 94.0672 67.6523C93.9848 67.4613 93.88 67.299 93.7529 67.1654C94.1706 66.644 94.6294 66.2982 95.1292 66.1281C95.5306 65.9914 95.8589 65.9975 96.1143 66.1464C96.3741 66.2854 96.5753 66.5202 96.718 66.8507C96.8733 67.2106 96.8687 67.6629 96.7042 68.2076C96.5473 68.7496 96.1582 69.3876 95.5369 70.1215C95.8368 70.4743 96.1566 70.8329 96.4964 71.1974C96.8405 71.552 97.1919 71.8831 97.5505 72.1907C97.909 72.4982 98.2615 72.7615 98.608 72.9805C98.9512 73.1922 99.2719 73.3315 99.5701 73.3985C99.5116 73.5447 99.4045 73.6991 99.2489 73.8617C99.0976 74.0143 98.927 74.1524 98.7372 74.276C98.5581 74.4044 98.3814 74.4983 98.2072 74.5576C97.8816 74.6684 97.5716 74.715 97.2773 74.6973C96.983 74.6796 96.682 74.5757 96.3741 74.3856C96.0707 74.1857 95.7288 73.8767 95.3486 73.4585L93.9146 71.887L93.3672 72.4904C93.4328 72.763 93.4948 73.0072 93.5532 73.2232C93.6085 73.4318 93.66 73.5912 93.7075 73.7014C93.8692 74.076 94.032 74.3828 94.196 74.6219C94.3675 74.8583 94.5481 75.0453 94.7378 75.1829C94.4261 75.6682 94.0279 75.9933 93.5432 76.1584ZM101.776 73.3551C101.268 73.5278 100.848 73.5108 100.516 73.3039C100.188 73.087 99.9001 72.6922 99.6528 72.1192C99.4943 71.752 99.3171 71.1805 99.1213 70.4047C98.9298 69.619 98.6846 68.5779 98.3855 67.2812L97.2746 66.3074C97.5355 65.9658 97.8333 65.6496 98.1681 65.3586C98.4997 65.0604 98.8662 64.8429 99.2676 64.7062C99.6235 64.585 99.9026 64.6079 100.105 64.7749C100.307 64.9419 100.469 65.1649 100.589 65.4441C100.64 65.5616 100.7 65.7603 100.768 66.0402C100.841 66.3102 100.918 66.6293 100.999 66.9978C101.077 67.3589 101.159 67.7396 101.245 68.14C101.335 68.5304 101.422 68.9135 101.506 69.2893C101.587 69.6577 101.663 69.9856 101.735 70.2728C101.812 70.5501 101.88 70.7586 101.94 70.8981C102.102 71.2727 102.265 71.5795 102.429 71.8186C102.6 72.055 102.781 72.242 102.97 72.3796C102.659 72.8649 102.26 73.19 101.776 73.3551ZM107.834 71.2797C107.182 71.5014 106.54 71.5728 105.906 71.4936C105.277 71.4045 104.694 71.1398 104.156 70.6994C103.619 70.259 103.171 69.6239 102.813 68.7939C102.638 68.3899 102.531 67.9504 102.491 67.4754C102.451 67.0004 102.482 66.5181 102.583 66.0287C102.689 65.5293 102.879 65.052 103.151 64.597C103.428 64.1319 103.8 63.7148 104.266 63.3455C104.729 62.9689 105.293 62.6671 105.96 62.4401C106.369 62.3009 106.76 62.2309 107.133 62.2302C107.514 62.2269 107.846 62.3032 108.131 62.4591C108.412 62.6076 108.622 62.8435 108.762 63.1667C108.898 63.4825 108.936 63.7727 108.877 64.0373C108.825 64.2993 108.702 64.5267 108.507 64.7194C108.316 64.9021 108.081 65.0412 107.801 65.1366C107.468 65.2501 107.107 65.2802 106.719 65.2269C106.332 65.1736 105.971 65.0226 105.638 64.7738C105.427 64.9889 105.269 65.287 105.164 65.6681C105.064 66.0393 105.031 66.4464 105.066 66.8894C105.101 67.3325 105.21 67.767 105.394 68.193C105.524 68.4942 105.684 68.764 105.874 69.0027C106.068 69.2314 106.283 69.3982 106.519 69.503C106.756 69.6079 107.003 69.6165 107.26 69.5288C107.472 69.4566 107.643 69.3099 107.774 69.0886C107.901 68.8599 107.972 68.5915 107.986 68.2832C108.001 67.975 107.937 67.6556 107.794 67.325C108.256 67.1677 108.652 67.0583 108.982 66.9966C109.315 66.925 109.594 66.927 109.818 67.0024C110.042 67.0779 110.214 67.2552 110.334 67.5343C110.455 67.8134 110.495 68.1283 110.455 68.4788C110.415 68.8293 110.292 69.1873 110.085 69.5527C109.882 69.9081 109.591 70.2391 109.21 70.5455C108.838 70.8493 108.379 71.094 107.834 71.2797ZM113.877 69.2344C113.37 69.4071 112.95 69.3901 112.617 69.1832C112.289 68.9663 112.002 68.5714 111.754 67.9985C111.596 67.6313 111.419 67.0598 111.223 66.284C111.031 65.4983 110.786 64.4572 110.487 63.1605L109.376 62.1866C109.637 61.8451 109.935 61.5289 110.269 61.2379C110.601 60.9397 110.968 60.7222 111.369 60.5855C111.725 60.4643 112.004 60.4872 112.206 60.6542C112.409 60.8212 112.57 61.0442 112.691 61.3233C112.745 61.4482 112.807 61.6629 112.877 61.9674C112.952 62.262 113.031 62.6058 113.114 62.9988C113.204 63.3893 113.294 63.7884 113.383 64.1961L113.732 63.5846C114.028 63.0627 114.254 62.5516 114.412 62.0514C114.57 61.5513 114.566 61.1102 114.401 60.7283C114.319 60.5373 114.214 60.375 114.087 60.2414C114.505 59.72 114.963 59.3742 115.463 59.204C115.864 59.0674 116.193 59.0735 116.448 59.2224C116.708 59.3614 116.909 59.5962 117.052 59.9267C117.207 60.2866 117.203 60.7389 117.038 61.2835C116.881 61.8256 116.492 62.4636 115.871 63.1975C116.171 63.5503 116.491 63.9089 116.83 64.2734C117.174 64.628 117.526 64.9591 117.884 65.2666C118.243 65.5742 118.595 65.8375 118.942 66.0565C119.285 66.2682 119.606 66.4075 119.904 66.4745C119.846 66.6207 119.738 66.7751 119.583 66.9377C119.432 67.0903 119.261 67.2284 119.071 67.352C118.892 67.4804 118.715 67.5742 118.541 67.6336C118.216 67.7444 117.906 67.791 117.611 67.7733C117.317 67.7556 117.016 67.6517 116.708 67.4616C116.405 67.2617 116.063 66.9527 115.682 66.5345L114.249 64.963L113.701 65.5664C113.767 65.839 113.829 66.0832 113.887 66.2992C113.942 66.5078 113.994 66.6672 114.041 66.7774C114.203 67.152 114.366 67.4588 114.53 67.6979C114.701 67.9343 114.882 68.1213 115.072 68.2589C114.76 68.7442 114.362 69.0693 113.877 69.2344ZM123.729 65.8669C123.048 66.099 122.467 66.2421 121.986 66.2962C121.509 66.3576 121.114 66.3488 120.802 66.2697C120.49 66.1906 120.241 66.065 120.053 65.8929C119.871 65.7108 119.728 65.5023 119.627 65.2672C119.532 65.0469 119.471 64.8149 119.444 64.5713C119.424 64.3252 119.455 64.0537 119.535 63.7567C119.733 63.9336 119.996 64.08 120.324 64.1958C120.652 64.3116 120.994 64.3803 121.351 64.4021C121.716 64.4212 122.045 64.3805 122.341 64.2799C122.735 64.1458 123.035 63.9762 123.242 63.771C123.453 63.5559 123.56 63.3004 123.562 63.0047C122.202 63.2741 121.087 63.2577 120.219 62.9554C119.347 62.6457 118.757 62.1347 118.449 61.4222C118.269 61.0035 118.197 60.6066 118.235 60.2315C118.281 59.8537 118.405 59.5081 118.608 59.1945C118.809 58.8736 119.054 58.5877 119.346 58.3369C119.634 58.0787 119.936 57.8622 120.251 57.6874C120.563 57.5053 120.852 57.3691 121.117 57.2788C122.079 56.9513 122.865 56.8101 123.475 56.8551C124.089 56.8901 124.514 57.1794 124.748 57.723C124.885 58.0388 124.923 58.329 124.864 58.5936C124.812 58.8556 124.688 59.0829 124.494 59.2756C124.303 59.4584 124.068 59.5975 123.788 59.6929C123.454 59.8064 123.089 59.8255 122.692 59.7501C122.291 59.6675 121.954 59.4791 121.679 59.1851C121.414 59.2753 121.191 59.4524 121.01 59.7164C120.825 59.973 120.76 60.2648 120.814 60.5917C121.923 60.4838 122.846 60.4686 123.583 60.5462C124.327 60.6212 124.917 60.791 125.353 61.0554C125.788 61.3199 126.106 61.6836 126.306 62.1463C126.537 62.6825 126.569 63.1897 126.402 63.6678C126.235 64.1459 125.916 64.5746 125.446 64.9538C124.983 65.3305 124.411 65.6348 123.729 65.8669Z" fill="#FBDC3F"/>
<ellipse cx="193.732" cy="60.0337" rx="5.6992" ry="5.00389" fill="#D079FF"/>
<ellipse cx="155.205" cy="30.5741" rx="5.1891" ry="5.14883" fill="#FCB040"/>
<ellipse cx="126.04" cy="113.754" rx="5.95826" ry="4.75369" fill="#60A947"/>
<path d="M127.015 58.2255L204.811 80.4535L190.666 119.353L109.878 95.675L127.015 58.2255Z" fill="#3D3D3D"/>
<path d="M129.405 61.2216L200.176 82.1748L188.974 114.544L114.988 93.114L129.405 61.2216Z" fill="#91DFFF"/>
<path d="M141.451 80.5103C141.022 80.388 140.76 80.1822 140.666 79.8928C140.582 79.599 140.627 79.2075 140.804 78.7183C140.917 78.4048 141.138 77.949 141.467 77.3511C141.804 76.7487 142.257 75.9544 142.825 74.9682L142.678 73.8166C143.047 73.7142 143.425 73.6455 143.813 73.6105C144.202 73.5693 144.567 73.597 144.907 73.6937C145.215 73.7813 145.467 73.905 145.664 74.0648C145.87 74.2201 146.013 74.4509 146.093 74.7573C146.176 75.0574 146.186 75.4685 146.125 75.9905C146.073 76.508 145.943 77.1728 145.735 77.9849L145.85 78.0177C146.16 77.6288 146.509 77.2508 146.895 76.8838C147.282 76.5168 147.701 76.2002 148.15 75.934C148.6 75.6678 149.075 75.4883 149.575 75.3955C150.083 75.2982 150.61 75.3272 151.155 75.4823C151.457 75.568 151.624 75.7124 151.657 75.9154C151.692 76.1121 151.666 76.3296 151.58 76.5679C151.544 76.6682 151.466 76.8258 151.346 77.0406C151.235 77.251 151.097 77.4953 150.933 77.7736C150.772 78.0457 150.601 78.3325 150.421 78.6341C150.251 78.9312 150.082 79.2221 149.916 79.5067C149.752 79.785 149.609 80.0347 149.487 80.2558C149.373 80.4724 149.295 80.6403 149.252 80.7595C149.136 81.0793 149.062 81.3553 149.027 81.5876C148.999 81.8217 149.006 82.0277 149.048 82.2055C148.562 82.3783 148.113 82.4062 147.703 82.2894C147.273 82.1672 147.012 81.9614 146.918 81.672C146.833 81.3781 146.879 80.9866 147.056 80.4975C147.153 80.2278 147.33 79.8531 147.588 79.3733C147.853 78.8953 148.198 78.2813 148.624 77.5313L148.47 77.4875C148.065 77.7665 147.68 78.0994 147.314 78.4863C146.951 78.8669 146.629 79.2593 146.349 79.6636C146.077 80.0635 145.861 80.4273 145.701 80.755C145.488 80.8536 145.272 80.9131 145.053 80.9337C144.842 80.9497 144.644 80.9313 144.458 80.8784C144.304 80.8346 144.18 80.7371 144.086 80.5859C143.994 80.4284 143.944 80.1859 143.935 79.8583C143.926 79.5307 143.972 79.0876 144.075 78.529C144.186 77.966 144.369 77.2539 144.623 76.3927L144.469 76.3489C144.257 76.6826 144.047 77.0276 143.841 77.3838C143.637 77.7337 143.458 78.0528 143.305 78.341C143.151 78.6292 143.05 78.8424 143 78.9803C142.885 79.3001 142.81 79.5762 142.776 79.8085C142.748 80.0425 142.755 80.2485 142.797 80.4264C142.31 80.5991 141.862 80.6271 141.451 80.5103ZM151.417 83.3463C150.987 83.2241 150.726 83.0183 150.632 82.7289C150.547 82.435 150.593 82.0435 150.769 81.5544C150.883 81.2408 151.103 80.7851 151.432 80.1872C151.77 79.5848 152.222 78.7905 152.79 77.8042L152.644 76.6526C153.013 76.5502 153.391 76.4816 153.778 76.4466C154.168 76.4053 154.533 76.4331 154.873 76.5298C155.091 76.5918 155.233 76.6876 155.299 76.8171C155.372 76.9485 155.401 77.0949 155.385 77.2564C155.611 77.314 155.883 77.3637 156.201 77.4056C156.518 77.4474 156.856 77.4813 157.214 77.5072C157.572 77.5331 157.924 77.5469 158.27 77.5485C158.259 77.6768 158.239 77.792 158.209 77.8942C158.186 77.9981 158.158 78.094 158.126 78.1818C157.998 78.5393 157.809 78.8072 157.561 78.9855C157.313 79.1638 157.028 79.2661 156.708 79.2924C156.394 79.3206 156.07 79.2872 155.736 79.1923C155.377 79.0901 155.045 78.9127 154.741 78.66C154.625 78.8623 154.502 79.0762 154.371 79.3017C154.243 79.521 154.11 79.7425 153.972 79.9662C154.068 80.0142 154.162 80.0581 154.254 80.098C154.352 80.1398 154.452 80.1753 154.555 80.2044C154.692 80.2159 154.848 80.2256 155.021 80.2336C155.204 80.2371 155.363 80.2374 155.498 80.2344C155.495 80.3233 155.477 80.4116 155.445 80.4994C155.422 80.5827 155.402 80.6495 155.384 80.6996C155.275 81.0007 155.09 81.19 154.829 81.2678C154.574 81.3474 154.305 81.347 154.023 81.2667C153.901 81.232 153.788 81.1929 153.684 81.1494C153.581 81.0995 153.48 81.0466 153.38 80.9905C153.28 81.1695 153.19 81.3409 153.11 81.5047C153.03 81.6686 152.95 81.8603 152.871 82.0797L154.429 82.5232C154.941 82.5929 155.476 82.6102 156.033 82.5751C156.033 82.6514 156.024 82.728 156.003 82.8051C155.982 82.8822 155.956 82.9646 155.924 83.0524C155.845 83.2719 155.721 83.4786 155.552 83.6726C155.383 83.8665 155.18 84.0092 154.942 84.1005C154.704 84.1918 154.444 84.1973 154.161 84.117C154.014 84.0751 153.868 84.0196 153.723 83.9508C153.578 83.8819 153.428 83.808 153.273 83.7292C153.16 83.6695 153.037 83.607 152.905 83.5418C152.78 83.4784 152.637 83.4135 152.477 83.3473C152.104 83.4415 151.75 83.4412 151.417 83.3463ZM160.523 87.3899C160.1 87.2694 159.86 87.0525 159.803 86.739C159.746 86.4256 159.798 86.0462 159.959 85.601C159.783 85.5993 159.601 85.5854 159.412 85.5594C159.221 85.5396 159.026 85.5015 158.828 85.4449C158.276 85.288 157.819 85.0368 157.456 84.6914C157.101 84.3416 156.879 83.8981 156.79 83.3611C156.701 82.824 156.784 82.2012 157.04 81.4925C157.164 81.1476 157.353 80.8106 157.606 80.4816C157.859 80.1525 158.162 79.8515 158.515 79.5786C158.877 79.3012 159.279 79.0769 159.723 78.9058C160.175 78.7302 160.66 78.6297 161.178 78.6043C161.699 78.5727 162.241 78.6371 162.806 78.7977C163.152 78.8962 163.446 79.0318 163.688 79.2043C163.936 79.3787 164.106 79.5827 164.199 79.8165C164.293 80.044 164.291 80.2957 164.191 80.5716C164.094 80.8413 163.948 81.0488 163.755 81.1941C163.567 81.3413 163.354 81.4328 163.115 81.4684C162.884 81.4997 162.651 81.4815 162.413 81.414C162.131 81.3337 161.88 81.1863 161.661 80.9717C161.441 80.7571 161.297 80.4912 161.227 80.1741C160.964 80.2169 160.687 80.3385 160.396 80.539C160.113 80.7351 159.853 80.9861 159.615 81.2919C159.378 81.5977 159.193 81.9325 159.062 82.2962C158.872 82.823 158.841 83.2428 158.968 83.5557C159.098 83.8623 159.31 84.0576 159.605 84.1415C159.81 84.1999 160.039 84.2028 160.292 84.1501C160.55 84.0993 160.805 83.9919 161.055 83.8279C161.037 83.643 161.012 83.4562 160.981 83.2676C160.959 83.0746 160.939 82.8856 160.92 82.7006C161.262 82.5972 161.616 82.5253 161.985 82.4848C162.359 82.4462 162.703 82.4716 163.018 82.561C163.293 82.6395 163.45 82.7636 163.488 82.9334C163.532 83.105 163.515 83.3005 163.435 83.52C163.386 83.658 163.29 83.8348 163.149 84.0504C163.014 84.2678 162.86 84.5076 162.688 84.7697C162.524 85.0274 162.36 85.2954 162.196 85.5737C162.038 85.8539 161.912 86.1257 161.817 86.389C161.754 86.5646 161.717 86.7341 161.708 86.8974C161.699 87.0606 161.719 87.2012 161.768 87.319C161.543 87.3933 161.32 87.4335 161.099 87.4397C160.882 87.4539 160.69 87.4373 160.523 87.3899ZM163.361 86.7454C163.047 86.656 162.858 86.5021 162.796 86.2837C162.735 86.0591 162.76 85.7931 162.871 85.4859C162.955 85.2538 163.094 85.0063 163.288 84.7434C163.488 84.4823 163.718 84.216 163.979 83.9444C164.242 83.6665 164.514 83.3914 164.796 83.119C165.078 82.8466 165.349 82.585 165.61 82.334C165.876 82.0849 166.107 81.8567 166.302 81.6494C166.327 81.4835 166.348 81.3064 166.366 81.118C166.385 80.9296 166.403 80.7516 166.421 80.5839C166.78 80.4716 167.14 80.3943 167.502 80.352C167.863 80.3097 168.266 80.3515 168.708 80.4774C168.875 80.5249 169.008 80.587 169.107 80.6637C169.207 80.7405 169.276 80.8225 169.316 80.9097C169.507 80.8881 169.691 80.8782 169.867 80.88C170.043 80.8817 170.221 80.9081 170.401 80.9592C170.644 81.0285 170.799 81.1486 170.865 81.3194C170.933 81.4839 170.944 81.6774 170.899 81.8997C170.863 82.1176 170.803 82.3426 170.72 82.5746C170.591 82.9321 170.448 83.289 170.291 83.6454C170.134 84.0019 169.982 84.3839 169.835 84.7915C169.679 85.2242 169.55 85.6508 169.448 86.0712C169.345 86.4916 169.305 86.8777 169.327 87.2296C169.348 87.5815 169.463 87.8701 169.672 88.0954C169.406 88.1651 169.159 88.2052 168.929 88.2158C168.705 88.2282 168.455 88.1952 168.18 88.1167C167.865 88.0273 167.639 87.8696 167.502 87.6437C167.364 87.4179 167.289 87.1442 167.278 86.8229C167.273 86.5034 167.308 86.1608 167.384 85.795L165.422 85.2366C165.294 85.4146 165.184 85.5806 165.094 85.7345C165.005 85.8822 164.938 86.0187 164.893 86.1441C164.82 86.3448 164.786 86.5183 164.79 86.6646C164.501 86.7413 164.24 86.7881 164.008 86.8049C163.775 86.8218 163.56 86.802 163.361 86.7454ZM166.182 84.3639L167.673 84.7881C167.799 84.437 167.917 84.1212 168.025 83.8408C168.14 83.5623 168.25 83.2962 168.355 83.0428C168.47 82.7849 168.587 82.5175 168.708 82.2408L168.4 82.1532C168.031 82.5113 167.649 82.8833 167.256 83.2692C166.862 83.655 166.504 84.0199 166.182 84.3639ZM147.147 95.6048C146.595 95.4478 146.138 95.1967 145.774 94.8513C145.42 94.5014 145.198 94.058 145.109 93.5209C145.02 92.9839 145.103 92.361 145.359 91.6524C145.483 91.3075 145.672 90.9705 145.925 90.6414C146.178 90.3124 146.481 90.0114 146.834 89.7384C147.196 89.461 147.598 89.2368 148.042 89.0656C148.494 88.8901 148.979 88.7896 149.497 88.7642C150.018 88.7325 150.56 88.797 151.125 88.9576C151.471 89.0561 151.765 89.1916 152.007 89.3642C152.255 89.5385 152.425 89.7426 152.518 89.9763C152.612 90.2038 152.61 90.4555 152.51 90.7315C152.413 91.0011 152.267 91.2086 152.074 91.354C151.886 91.5012 151.673 91.5926 151.434 91.6283C151.203 91.6595 150.969 91.6414 150.732 91.5739C150.45 91.4936 150.199 91.3461 149.98 91.1315C149.76 90.9169 149.616 90.6511 149.546 90.334C149.283 90.3767 149.006 90.4983 148.715 90.6989C148.432 90.895 148.172 91.1459 147.934 91.4517C147.696 91.7575 147.512 92.0923 147.381 92.456C147.288 92.7131 147.233 92.9637 147.216 93.2077C147.207 93.4473 147.248 93.6561 147.34 93.8342C147.431 94.0123 147.586 94.1324 147.804 94.1945C147.983 94.2456 148.18 94.229 148.394 94.1447C148.611 94.0542 148.814 93.9116 149.005 93.7168C149.195 93.5221 149.341 93.2836 149.443 93.0014C149.834 93.1127 150.154 93.2246 150.404 93.337C150.662 93.445 150.841 93.5756 150.941 93.7286C151.042 93.8816 151.049 94.0773 150.963 94.3156C150.877 94.5539 150.718 94.7784 150.487 94.9891C150.255 95.1998 149.965 95.3766 149.617 95.5194C149.277 95.6578 148.894 95.739 148.468 95.7631C148.049 95.7889 147.608 95.7362 147.147 95.6048ZM154.078 97.5772C153.385 97.3801 152.836 97.0787 152.431 96.673C152.032 96.2691 151.783 95.7937 151.684 95.2467C151.59 94.7016 151.653 94.1248 151.873 93.5165C152.158 92.7264 152.557 92.0794 153.071 91.5757C153.592 91.0738 154.193 90.7401 154.875 90.5746C155.565 90.4046 156.308 90.4327 157.103 90.659C157.488 90.7685 157.732 90.9244 157.836 91.1268C157.942 91.323 157.942 91.5684 157.836 91.8631C157.82 91.907 157.802 91.9469 157.782 91.9827C157.768 92.0203 157.749 92.0633 157.725 92.1117C158.036 91.9929 158.333 91.9736 158.615 92.0539C158.852 92.1214 159.054 92.2583 159.22 92.4646C159.388 92.6646 159.487 92.9311 159.515 93.2642C159.55 93.5991 159.486 93.9923 159.323 94.4438C159.081 95.1148 158.76 95.6805 158.361 96.1408C157.968 96.6029 157.527 96.9616 157.039 97.2168C156.558 97.4739 156.062 97.6336 155.551 97.6958C155.043 97.7518 154.552 97.7122 154.078 97.5772ZM154.65 96.2257C154.964 96.3151 155.292 96.2772 155.635 96.1119C155.986 95.9421 156.279 95.6796 156.513 95.3245C156.386 94.991 156.323 94.6757 156.324 94.3786C156.333 94.0772 156.387 93.7916 156.484 93.5219C156.586 93.2397 156.712 92.9989 156.861 92.7995C157.011 92.6001 157.172 92.4384 157.344 92.3145C157.235 92.2628 157.123 92.2206 157.008 92.1877C156.649 92.0855 156.307 92.0714 155.984 92.1452C155.667 92.2209 155.373 92.3587 155.103 92.5584C154.842 92.7537 154.613 92.986 154.417 93.2552C154.23 93.5199 154.085 93.7934 153.983 94.0756C153.868 94.3954 153.81 94.7039 153.808 95.0009C153.814 95.2997 153.883 95.5581 154.017 95.7759C154.157 95.9955 154.368 96.1454 154.65 96.2257ZM159.705 99.189C159.275 99.0667 159.014 98.8609 158.92 98.5715C158.835 98.2776 158.881 97.8862 159.057 97.397C159.17 97.0834 159.391 96.6277 159.72 96.0298C160.058 95.4274 160.51 94.6331 161.078 93.6468L160.931 92.4952C161.301 92.3929 161.679 92.3242 162.066 92.2892C162.456 92.248 162.821 92.2757 163.16 92.3724C163.462 92.4582 163.629 92.6025 163.662 92.8055C163.695 93.0085 163.668 93.2291 163.582 93.4674C163.546 93.5677 163.468 93.7253 163.348 93.9401C163.237 94.1505 163.098 94.398 162.932 94.6826C162.768 94.9609 162.595 95.254 162.413 95.5618C162.238 95.8715 162.063 96.178 161.89 96.4814C161.72 96.7786 161.567 97.0534 161.434 97.3058C161.309 97.5538 161.217 97.7593 161.158 97.9224L162.197 98.218C162.709 98.2877 163.244 98.305 163.801 98.2699C163.802 98.3462 163.792 98.4229 163.771 98.4999C163.75 98.577 163.724 98.6595 163.693 98.7473C163.613 98.9668 163.489 99.1735 163.32 99.3674C163.151 99.5614 162.948 99.704 162.71 99.7953C162.472 99.8866 162.212 99.8921 161.93 99.8118C161.654 99.7334 161.423 99.6399 161.236 99.5313C161.046 99.429 160.847 99.324 160.639 99.2162C160.471 99.2513 160.31 99.2645 160.158 99.2557C160.003 99.2532 159.852 99.2309 159.705 99.189ZM164.031 100.42C163.717 100.331 163.529 100.177 163.466 99.9586C163.406 99.7339 163.431 99.468 163.542 99.1607C163.625 98.9287 163.764 98.6812 163.958 98.4182C164.158 98.1571 164.389 97.8908 164.649 97.6192C164.912 97.3414 165.184 97.0662 165.467 96.7938C165.749 96.5215 166.02 96.2598 166.28 96.0088C166.547 95.7597 166.777 95.5315 166.972 95.3242C166.997 95.1583 167.018 94.9812 167.037 94.7928C167.055 94.6045 167.074 94.4264 167.092 94.2587C167.45 94.1464 167.81 94.0691 168.172 94.0268C168.534 93.9846 168.936 94.0264 169.378 94.1523C169.545 94.1997 169.678 94.2618 169.778 94.3386C169.877 94.4153 169.947 94.4973 169.986 94.5845C170.178 94.563 170.361 94.5531 170.538 94.5548C170.714 94.5565 170.892 94.5829 171.071 94.634C171.315 94.7034 171.469 94.8234 171.535 94.9942C171.603 95.1588 171.615 95.3522 171.57 95.5746C171.534 95.7925 171.474 96.0174 171.39 96.2495C171.261 96.6069 171.118 96.9639 170.961 97.3203C170.804 97.6767 170.652 98.0587 170.505 98.4664C170.349 98.8991 170.22 99.3256 170.118 99.746C170.016 100.166 169.976 100.553 169.997 100.904C170.019 101.256 170.134 101.545 170.342 101.77C170.077 101.84 169.829 101.88 169.599 101.891C169.375 101.903 169.126 101.87 168.85 101.792C168.536 101.702 168.31 101.544 168.172 101.319C168.034 101.093 167.96 100.819 167.948 100.498C167.944 100.178 167.979 99.8356 168.054 99.4698L166.092 98.9115C165.964 99.0895 165.855 99.2554 165.764 99.4093C165.675 99.557 165.608 99.6935 165.563 99.819C165.491 100.02 165.456 100.193 165.46 100.339C165.171 100.416 164.91 100.463 164.678 100.48C164.446 100.497 164.23 100.477 164.031 100.42ZM166.852 98.0387L168.343 98.463C168.47 98.1118 168.587 97.796 168.695 97.5156C168.81 97.2371 168.92 96.9711 169.026 96.7176C169.14 96.4597 169.258 96.1924 169.379 95.9156L169.071 95.8281C168.701 96.1862 168.32 96.5582 167.926 96.944C167.532 97.3298 167.174 97.6947 166.852 98.0387Z" fill="#FB3F3F"/>
</g>
<defs>
<clipPath id="clip0_525_345">
<rect width="245" height="215" fill="white" transform="translate(0.0820312)"/>
</clipPath>
</defs>
</svg>
