<svg width="229" height="219" viewBox="0 0 229 219" fill="none" xmlns="http://www.w3.org/2000/svg">
<rect width="229" height="219" fill="white"/>
<ellipse cx="114.5" cy="148" rx="26.5" ry="26" fill="#D9D9D9"/>
<path d="M18 20.982H37.3029C56.5435 20.982 75.5685 16.9292 93.1386 9.08747L106.678 3.04472C111.025 1.10445 115.987 1.07598 120.356 2.96624L140.908 11.8572C154.822 17.8766 169.821 20.982 184.981 20.982H211L207.543 68.6604C206.681 80.5497 204.485 92.3043 200.996 103.703L199.235 109.456C191.98 133.157 178.964 154.692 161.351 172.133L114.025 219L55.0343 155.272C49.0771 148.837 44.1303 141.535 40.3626 133.616C35.2867 122.947 31.0778 111.887 27.7765 100.543L26.4688 96.0498C24.6303 89.7325 23.4172 83.2498 22.847 76.6952L20.8522 53.7665L18 20.982Z" fill="#002642"/>
<path d="M137.104 17.1357C151.549 23.5162 167.169 26.8115 182.961 26.8115H203.315L199.634 78.667C199.225 84.4256 198.181 90.1214 196.523 95.6514L192.924 107.658C185.849 131.255 173.089 152.755 155.766 170.27L114.128 212.364L59.1426 151.72C54.209 146.278 50.1221 140.125 47.0195 133.468C41.8965 122.475 37.6529 111.092 34.3281 99.4287L33.5059 96.5449C31.759 90.4168 30.6065 84.1344 30.0654 77.7852L25.7227 26.8115H39.2344C59.1911 26.8115 78.9158 22.5297 97.0762 14.2549L113.567 6.74023L137.104 17.1357Z" stroke="#FFC200" stroke-width="5"/>
<path d="M114 5L116 99" stroke="#FFC200"/>
<path d="M116 99L55 145" stroke="#FFC200"/>
<path d="M116 98.9997L172.999 144.955" stroke="#FFC200"/>
<path d="M83.492 49.7117C84.9666 49.6377 85.8149 49.6534 87.2668 49.9214C88.4926 50.1476 90.3257 50.8332 90.3257 50.8332L83.9564 57.9055L87.1403 61.0536L90.2372 62.7168L96.6099 55.6374C96.6099 55.6374 98.1254 59.237 98.4517 61.6837C98.6058 62.8397 98.7003 63.502 98.6182 64.6653C98.5928 65.0235 98.5278 65.4384 98.4497 65.8417C98.2208 67.0242 97.7286 68.1342 97.1317 69.1804L96.8656 69.6469C96.278 70.677 95.4912 71.5799 94.5513 72.3031C93.1246 73.4007 91.424 74.0856 89.6349 74.2834L83.4013 74.9725L63.921 96.1903L61.2711 99.1029C60.4394 100.017 59.3746 100.688 58.1908 101.043C56.0888 101.673 53.8747 101.839 51.7022 101.529L51.5 101.5L50.9428 101.182C49.031 100.089 47.5177 98.4149 46.6235 96.4028C46.2202 95.4955 46.1427 94.4769 46.4039 93.519L46.5821 92.8658C47.1637 90.733 48.6623 88.9686 50.6728 88.0495L53.6152 86.7043L73.8885 66.2734L72.3645 58.7606L73.6672 55.1192L75.7981 53.0019L77.9362 50.8905C77.9362 50.8905 81.2768 49.8227 83.492 49.7117Z" fill="#D2CDCD"/>
<rect x="91" y="125" width="53" height="52" rx="9" fill="#8B8B8B"/>
<path d="M135.119 132.342L131.06 134.653C128.093 136.343 125.629 138.875 123.937 141.972L122.513 144.577" stroke="white"/>
<ellipse cx="53.5002" cy="95.5" rx="9.5" ry="8.5" transform="rotate(2.52412 53.5002 95.5)" fill="#AEA3A3"/>
<ellipse cx="53.5" cy="95.5" rx="6.5" ry="5.5" fill="black"/>
<path d="M147.5 37H164.5L170.5 41.5L172.5 49H167.5V60L176 70V113H144V72L154 61V53C154 50.7909 152.209 49 150 49L141.134 57.3993C140.781 57.7336 140.226 57.7261 139.882 57.3823C139.366 56.8662 139.276 56.0617 139.665 55.444L147.5 43L139 41.5V38.5L147.5 37Z" fill="#D5C6C6"/>
<rect x="144" y="73" width="32" height="34" fill="#6B6E74"/>
<rect x="154" y="53" width="14" height="7" fill="#6B6E74"/>
<path d="M154.936 78.0638C155.239 77.7611 155.736 77.7836 156.01 78.1126L157.883 80.3601C157.95 80.4397 158.065 80.4564 158.151 80.399C158.968 79.8546 160.032 79.8546 160.849 80.399L161 80.5L162.872 77.8792C163.222 77.3891 163.898 77.2652 164.399 77.5993C164.734 77.8225 164.83 78.2714 164.617 78.6125L162.5 82L162.642 82.5668C162.88 83.5187 163 84.4961 163 85.4773V86L164.5 85.5L167.455 82.5454C167.756 82.2442 168.244 82.2442 168.545 82.5454C168.802 82.8019 168.818 83.2127 168.582 83.4881L167.08 85.2396C166.364 86.0759 165.535 86.8098 164.619 87.4208L164.5 87.5H162.5C162.27 87.9594 162.604 88.5 163.118 88.5H163.5L165.942 89.4158C166.94 89.7901 167.751 90.5428 168.197 91.5106L170.247 95.9523C170.388 96.2575 170.261 96.6194 169.96 96.7698C169.704 96.8982 169.391 96.8002 169.253 96.5481L167.487 93.3098C166.858 92.1563 165.775 91.3187 164.5 91L164.838 93.7005C164.945 94.5615 165.187 95.4004 165.554 96.1867L168.049 101.533C168.259 101.983 167.93 102.5 167.432 102.5C167.161 102.5 166.905 102.37 166.745 102.15L163.723 98L162.889 99.6942C162.345 100.8 161.22 101.5 159.988 101.5C159.043 101.5 158.146 101.087 157.532 100.371L155.5 98L153.354 101.863C153.149 102.232 152.71 102.403 152.309 102.27C151.877 102.126 151.664 101.639 151.853 101.223L154 96.5C154.658 95.5125 155.087 94.3902 155.255 93.2153L155.5 91.5L153 92L150.709 96.5819C150.581 96.8381 150.319 97 150.032 97C149.544 97 149.214 96.5002 149.407 96.051L152 90L153.658 89.171C154.541 88.7297 155.514 88.5 156.5 88.5V87.5H155L154.238 86.9922C153.748 86.6656 153.306 86.2733 152.923 85.8263L150.903 83.4704C150.676 83.205 150.691 82.8091 150.938 82.5619C151.241 82.2588 151.738 82.2779 152.017 82.6034L153.523 84.36C154.159 85.1016 155.009 85.6272 155.957 85.8641L156.5 86L157 82L154.859 79.002C154.652 78.7123 154.684 78.3155 154.936 78.0638Z" fill="#3E350B"/>
<path d="M139 38.5L142 38V42L139 41.5V38.5Z" fill="#565F67"/>
<path d="M139.658 57.3767C139.262 56.8487 139.232 56.1312 139.584 55.5727L147.5 43L150 49L141.493 57.5071C140.969 58.0312 140.102 57.9696 139.658 57.3767Z" fill="#6B6E74"/>
<path d="M143 37.75L144.5 37.5V42.5L143 42.25V37.75Z" fill="#5A1B1B"/>
<path d="M143 37.75L144.5 37.5V42.5L143 42.25V37.75Z" fill="#6B6E74"/>
<circle cx="117.5" cy="150.5" r="8.5" fill="#150808"/>
<ellipse cx="118" cy="150.5" rx="23" ry="22.5" fill="#2A2A2A"/>
<path d="M123.5 144.5C121.666 142.361 118.768 141.462 116.046 142.188L113 143L112.541 135.451C112.31 131.663 114.321 128.091 117.68 126.324L118.597 126.305C125.677 126.156 132.43 129.278 136.905 134.766L137.491 135.484L132.989 136.821C130.368 137.598 128.032 139.127 126.269 141.217L123.5 144.5Z" fill="#D9D9D9"/>
<path d="M109.046 149.452C108.707 152.61 110.034 155.717 112.551 157.654L113 158L106.39 163.535C103.489 165.964 99.4596 166.532 96 165L94.162 161.153C92.105 156.848 91.4379 152.01 92.253 147.308L93 143L96.7487 145.945C98.7815 147.542 101.217 148.544 103.785 148.842L109.046 149.452Z" fill="#D9D9D9"/>
<path d="M120 158.5C123.003 157.899 125.31 155.487 125.775 152.46L126 151L132.028 153.652C136.053 155.423 138.878 159.147 139.5 163.5L137.84 165.798C134.711 170.13 130.172 173.238 125 174.587L121.5 175.5L122.383 170.203C122.787 167.777 122.545 165.288 121.682 162.985L120 158.5Z" fill="#D9D9D9"/>
<path d="M117.5 127C131.067 127 142 137.781 142 151C142 164.219 131.067 175 117.5 175C103.933 175 93 164.219 93 151C93 137.781 103.933 127 117.5 127Z" stroke="#1F0808" stroke-width="4"/>
<circle cx="117.5" cy="150.5" r="8.5" fill="#D8B700"/>
</svg>
