<svg width="216" height="256" viewBox="0 0 216 256" fill="none" xmlns="http://www.w3.org/2000/svg">
<g clip-path="url(#clip0_460_2315)">
<rect width="216" height="256" fill="white"/>
<path d="M81.6026 251.786C81.8026 251.786 81.9606 251.842 82.0766 251.954C82.1926 252.062 82.2506 252.206 82.2506 252.386V253.466H76.1066V252.866C76.1066 252.75 76.1306 252.626 76.1786 252.494C76.2266 252.362 76.3106 252.242 76.4306 252.134L78.9506 249.596C79.1666 249.38 79.3546 249.174 79.5146 248.978C79.6746 248.782 79.8066 248.59 79.9106 248.402C80.0146 248.21 80.0926 248.02 80.1446 247.832C80.1966 247.64 80.2226 247.438 80.2226 247.226C80.2226 246.878 80.1386 246.612 79.9706 246.428C79.8066 246.24 79.5546 246.146 79.2146 246.146C78.9386 246.146 78.7046 246.22 78.5126 246.368C78.3246 246.512 78.1946 246.692 78.1226 246.908C78.0386 247.128 77.9286 247.274 77.7926 247.346C77.6566 247.418 77.4626 247.434 77.2106 247.394L76.2266 247.22C76.2906 246.784 76.4126 246.404 76.5926 246.08C76.7766 245.756 77.0026 245.486 77.2706 245.27C77.5426 245.054 77.8526 244.894 78.2006 244.79C78.5486 244.682 78.9226 244.628 79.3226 244.628C79.7546 244.628 80.1426 244.692 80.4866 244.82C80.8346 244.944 81.1306 245.118 81.3746 245.342C81.6186 245.566 81.8046 245.834 81.9326 246.146C82.0646 246.454 82.1306 246.794 82.1306 247.166C82.1306 247.486 82.0846 247.782 81.9926 248.054C81.9046 248.326 81.7826 248.586 81.6266 248.834C81.4706 249.078 81.2886 249.316 81.0806 249.548C80.8766 249.776 80.6586 250.008 80.4266 250.244L78.7166 251.996C78.9366 251.928 79.1546 251.876 79.3706 251.84C79.5866 251.804 79.7866 251.786 79.9706 251.786H81.6026ZM88.3475 249.092C88.3475 249.856 88.2655 250.518 88.1015 251.078C87.9375 251.638 87.7095 252.102 87.4175 252.47C87.1295 252.838 86.7855 253.112 86.3855 253.292C85.9895 253.472 85.5595 253.562 85.0955 253.562C84.6315 253.562 84.2015 253.472 83.8055 253.292C83.4135 253.112 83.0735 252.838 82.7855 252.47C82.4975 252.102 82.2715 251.638 82.1075 251.078C81.9475 250.518 81.8675 249.856 81.8675 249.092C81.8675 248.328 81.9475 247.666 82.1075 247.106C82.2715 246.546 82.4975 246.082 82.7855 245.714C83.0735 245.346 83.4135 245.074 83.8055 244.898C84.2015 244.718 84.6315 244.628 85.0955 244.628C85.5595 244.628 85.9895 244.718 86.3855 244.898C86.7855 245.074 87.1295 245.346 87.4175 245.714C87.7095 246.082 87.9375 246.546 88.1015 247.106C88.2655 247.666 88.3475 248.328 88.3475 249.092ZM86.4275 249.092C86.4275 248.488 86.3895 247.994 86.3135 247.61C86.2375 247.222 86.1355 246.918 86.0075 246.698C85.8835 246.478 85.7415 246.328 85.5815 246.248C85.4215 246.164 85.2595 246.122 85.0955 246.122C84.9315 246.122 84.7695 246.164 84.6095 246.248C84.4535 246.328 84.3135 246.478 84.1895 246.698C84.0695 246.918 83.9715 247.222 83.8955 247.61C83.8235 247.994 83.7875 248.488 83.7875 249.092C83.7875 249.7 83.8235 250.196 83.8955 250.58C83.9715 250.964 84.0695 251.268 84.1895 251.492C84.3135 251.712 84.4535 251.864 84.6095 251.948C84.7695 252.028 84.9315 252.068 85.0955 252.068C85.2595 252.068 85.4215 252.028 85.5815 251.948C85.7415 251.864 85.8835 251.712 86.0075 251.492C86.1355 251.268 86.2375 250.964 86.3135 250.58C86.3895 250.196 86.4275 249.7 86.4275 249.092ZM93.3645 251.786C93.5645 251.786 93.7225 251.842 93.8385 251.954C93.9545 252.062 94.0125 252.206 94.0125 252.386V253.466H87.8685V252.866C87.8685 252.75 87.8925 252.626 87.9405 252.494C87.9885 252.362 88.0725 252.242 88.1925 252.134L90.7125 249.596C90.9285 249.38 91.1165 249.174 91.2765 248.978C91.4365 248.782 91.5685 248.59 91.6725 248.402C91.7765 248.21 91.8545 248.02 91.9065 247.832C91.9585 247.64 91.9845 247.438 91.9845 247.226C91.9845 246.878 91.9005 246.612 91.7325 246.428C91.5685 246.24 91.3165 246.146 90.9765 246.146C90.7005 246.146 90.4665 246.22 90.2745 246.368C90.0865 246.512 89.9565 246.692 89.8845 246.908C89.8005 247.128 89.6905 247.274 89.5545 247.346C89.4185 247.418 89.2245 247.434 88.9725 247.394L87.9885 247.22C88.0525 246.784 88.1745 246.404 88.3545 246.08C88.5385 245.756 88.7645 245.486 89.0325 245.27C89.3045 245.054 89.6145 244.894 89.9625 244.79C90.3105 244.682 90.6845 244.628 91.0845 244.628C91.5165 244.628 91.9045 244.692 92.2485 244.82C92.5965 244.944 92.8925 245.118 93.1365 245.342C93.3805 245.566 93.5665 245.834 93.6945 246.146C93.8265 246.454 93.8925 246.794 93.8925 247.166C93.8925 247.486 93.8465 247.782 93.7545 248.054C93.6665 248.326 93.5445 248.586 93.3885 248.834C93.2325 249.078 93.0505 249.316 92.8425 249.548C92.6385 249.776 92.4205 250.008 92.1885 250.244L90.4785 251.996C90.6985 251.928 90.9165 251.876 91.1325 251.84C91.3485 251.804 91.5485 251.786 91.7325 251.786H93.3645ZM97.5594 250.07V247.79C97.5594 247.65 97.5634 247.5 97.5714 247.34C97.5834 247.176 97.5994 247.006 97.6194 246.83L95.3094 250.07H97.5594ZM100.079 250.07V251.114C100.079 251.206 100.047 251.286 99.9834 251.354C99.9234 251.422 99.8354 251.456 99.7194 251.456H99.1794V253.466H97.5594V251.456H94.0434C93.9274 251.456 93.8214 251.42 93.7254 251.348C93.6334 251.276 93.5754 251.186 93.5514 251.078L93.3594 250.16L97.4034 244.724H99.1794V250.07H100.079Z" fill="black"/>
<path d="M104.039 197.479H107.279V198.979H104.039V197.479ZM107.351 195.631C107.415 195.195 107.537 194.815 107.717 194.491C107.901 194.167 108.127 193.897 108.395 193.681C108.667 193.465 108.977 193.305 109.325 193.201C109.673 193.093 110.047 193.039 110.447 193.039C110.879 193.039 111.263 193.101 111.599 193.225C111.935 193.345 112.219 193.509 112.451 193.717C112.683 193.925 112.859 194.167 112.979 194.443C113.099 194.715 113.159 195.003 113.159 195.307C113.159 195.583 113.131 195.827 113.075 196.039C113.019 196.247 112.935 196.429 112.823 196.585C112.715 196.737 112.579 196.867 112.415 196.975C112.255 197.079 112.071 197.167 111.863 197.239C112.831 197.579 113.315 198.239 113.315 199.219C113.315 199.683 113.231 200.087 113.063 200.431C112.895 200.775 112.669 201.061 112.385 201.289C112.105 201.517 111.779 201.689 111.407 201.805C111.035 201.917 110.647 201.973 110.243 201.973C109.827 201.973 109.457 201.929 109.133 201.841C108.809 201.749 108.521 201.609 108.269 201.421C108.017 201.229 107.795 200.985 107.603 200.689C107.415 200.393 107.251 200.041 107.111 199.633L107.939 199.297C108.155 199.213 108.355 199.191 108.539 199.231C108.723 199.271 108.855 199.363 108.935 199.507C109.115 199.839 109.305 200.081 109.505 200.233C109.709 200.381 109.947 200.455 110.219 200.455C110.427 200.455 110.607 200.421 110.759 200.353C110.915 200.281 111.043 200.191 111.143 200.083C111.247 199.971 111.325 199.845 111.377 199.705C111.429 199.565 111.455 199.423 111.455 199.279C111.455 199.091 111.441 198.923 111.413 198.775C111.389 198.623 111.317 198.493 111.197 198.385C111.077 198.277 110.895 198.195 110.651 198.139C110.411 198.079 110.075 198.049 109.643 198.049V196.765C110.007 196.765 110.301 196.737 110.525 196.681C110.749 196.625 110.921 196.549 111.041 196.453C111.165 196.353 111.247 196.233 111.287 196.093C111.327 195.953 111.347 195.799 111.347 195.631C111.347 195.287 111.263 195.023 111.095 194.839C110.931 194.651 110.679 194.557 110.339 194.557C110.063 194.557 109.829 194.631 109.637 194.779C109.449 194.923 109.319 195.103 109.247 195.319C109.163 195.539 109.053 195.685 108.917 195.757C108.781 195.829 108.587 195.845 108.335 195.805L107.351 195.631ZM118.56 200.197C118.76 200.197 118.918 200.253 119.034 200.365C119.15 200.473 119.208 200.617 119.208 200.797V201.877H113.064V201.277C113.064 201.161 113.088 201.037 113.136 200.905C113.184 200.773 113.268 200.653 113.388 200.545L115.908 198.007C116.124 197.791 116.312 197.585 116.472 197.389C116.632 197.193 116.764 197.001 116.868 196.813C116.972 196.621 117.05 196.431 117.102 196.243C117.154 196.051 117.18 195.849 117.18 195.637C117.18 195.289 117.096 195.023 116.928 194.839C116.764 194.651 116.512 194.557 116.172 194.557C115.896 194.557 115.662 194.631 115.47 194.779C115.282 194.923 115.152 195.103 115.08 195.319C114.996 195.539 114.886 195.685 114.75 195.757C114.614 195.829 114.42 195.845 114.168 195.805L113.184 195.631C113.248 195.195 113.37 194.815 113.55 194.491C113.734 194.167 113.96 193.897 114.228 193.681C114.5 193.465 114.81 193.305 115.158 193.201C115.506 193.093 115.88 193.039 116.28 193.039C116.712 193.039 117.1 193.103 117.444 193.231C117.792 193.355 118.088 193.529 118.332 193.753C118.576 193.977 118.762 194.245 118.89 194.557C119.022 194.865 119.088 195.205 119.088 195.577C119.088 195.897 119.042 196.193 118.95 196.465C118.862 196.737 118.74 196.997 118.584 197.245C118.428 197.489 118.246 197.727 118.038 197.959C117.834 198.187 117.616 198.419 117.384 198.655L115.674 200.407C115.894 200.339 116.112 200.287 116.328 200.251C116.544 200.215 116.744 200.197 116.928 200.197H118.56ZM123.181 195.253C123.181 195.573 123.123 195.865 123.007 196.129C122.891 196.393 122.737 196.621 122.545 196.813C122.353 197.001 122.129 197.147 121.873 197.251C121.621 197.355 121.357 197.407 121.081 197.407C120.777 197.407 120.497 197.355 120.241 197.251C119.989 197.147 119.769 197.001 119.581 196.813C119.397 196.621 119.253 196.393 119.149 196.129C119.045 195.865 118.993 195.573 118.993 195.253C118.993 194.921 119.045 194.621 119.149 194.353C119.253 194.081 119.397 193.849 119.581 193.657C119.769 193.465 119.989 193.317 120.241 193.213C120.497 193.105 120.777 193.051 121.081 193.051C121.385 193.051 121.665 193.105 121.921 193.213C122.181 193.317 122.403 193.465 122.587 193.657C122.775 193.849 122.921 194.081 123.025 194.353C123.129 194.621 123.181 194.921 123.181 195.253ZM121.753 195.253C121.753 195.049 121.735 194.881 121.699 194.749C121.667 194.613 121.621 194.505 121.561 194.425C121.501 194.345 121.429 194.289 121.345 194.257C121.265 194.225 121.177 194.209 121.081 194.209C120.985 194.209 120.897 194.225 120.817 194.257C120.737 194.289 120.669 194.345 120.613 194.425C120.557 194.505 120.513 194.613 120.481 194.749C120.449 194.881 120.433 195.049 120.433 195.253C120.433 195.445 120.449 195.605 120.481 195.733C120.513 195.861 120.557 195.963 120.613 196.039C120.669 196.115 120.737 196.169 120.817 196.201C120.897 196.233 120.985 196.249 121.081 196.249C121.177 196.249 121.265 196.233 121.345 196.201C121.429 196.169 121.501 196.115 121.561 196.039C121.621 195.963 121.667 195.861 121.699 195.733C121.735 195.605 121.753 195.445 121.753 195.253ZM125.929 193.411C125.989 193.343 126.063 193.281 126.151 193.225C126.239 193.165 126.361 193.135 126.517 193.135H127.873L121.285 201.613C121.225 201.689 121.149 201.753 121.057 201.805C120.969 201.853 120.861 201.877 120.733 201.877H119.341L125.929 193.411ZM128.209 199.825C128.209 200.145 128.151 200.439 128.035 200.707C127.919 200.971 127.765 201.199 127.573 201.391C127.381 201.579 127.157 201.725 126.901 201.829C126.649 201.933 126.385 201.985 126.109 201.985C125.805 201.985 125.525 201.933 125.269 201.829C125.017 201.725 124.797 201.579 124.609 201.391C124.425 201.199 124.281 200.971 124.177 200.707C124.073 200.439 124.021 200.145 124.021 199.825C124.021 199.493 124.073 199.193 124.177 198.925C124.281 198.653 124.425 198.421 124.609 198.229C124.797 198.037 125.017 197.889 125.269 197.785C125.525 197.677 125.805 197.623 126.109 197.623C126.413 197.623 126.693 197.677 126.949 197.785C127.209 197.889 127.431 198.037 127.615 198.229C127.803 198.421 127.949 198.653 128.053 198.925C128.157 199.193 128.209 199.493 128.209 199.825ZM126.781 199.825C126.781 199.625 126.763 199.459 126.727 199.327C126.695 199.191 126.649 199.083 126.589 199.003C126.529 198.923 126.457 198.867 126.373 198.835C126.293 198.803 126.205 198.787 126.109 198.787C126.013 198.787 125.925 198.803 125.845 198.835C125.765 198.867 125.697 198.923 125.641 199.003C125.585 199.083 125.541 199.191 125.509 199.327C125.477 199.459 125.461 199.625 125.461 199.825C125.461 200.017 125.477 200.177 125.509 200.305C125.541 200.433 125.585 200.535 125.641 200.611C125.697 200.687 125.765 200.741 125.845 200.773C125.925 200.805 126.013 200.821 126.109 200.821C126.205 200.821 126.293 200.805 126.373 200.773C126.457 200.741 126.529 200.687 126.589 200.611C126.649 200.535 126.695 200.433 126.727 200.305C126.763 200.177 126.781 200.017 126.781 199.825Z" fill="#E1FF00"/>
<path d="M160.834 251.786C161.034 251.786 161.192 251.842 161.308 251.954C161.424 252.062 161.482 252.206 161.482 252.386V253.466H155.338V252.866C155.338 252.75 155.362 252.626 155.41 252.494C155.458 252.362 155.542 252.242 155.662 252.134L158.182 249.596C158.398 249.38 158.586 249.174 158.746 248.978C158.906 248.782 159.038 248.59 159.142 248.402C159.246 248.21 159.324 248.02 159.376 247.832C159.428 247.64 159.454 247.438 159.454 247.226C159.454 246.878 159.37 246.612 159.202 246.428C159.038 246.24 158.786 246.146 158.446 246.146C158.17 246.146 157.936 246.22 157.744 246.368C157.556 246.512 157.426 246.692 157.354 246.908C157.27 247.128 157.16 247.274 157.024 247.346C156.888 247.418 156.694 247.434 156.442 247.394L155.458 247.22C155.522 246.784 155.644 246.404 155.824 246.08C156.008 245.756 156.234 245.486 156.502 245.27C156.774 245.054 157.084 244.894 157.432 244.79C157.78 244.682 158.154 244.628 158.554 244.628C158.986 244.628 159.374 244.692 159.718 244.82C160.066 244.944 160.362 245.118 160.606 245.342C160.85 245.566 161.036 245.834 161.164 246.146C161.296 246.454 161.362 246.794 161.362 247.166C161.362 247.486 161.316 247.782 161.224 248.054C161.136 248.326 161.014 248.586 160.858 248.834C160.702 249.078 160.52 249.316 160.312 249.548C160.108 249.776 159.89 250.008 159.658 250.244L157.948 251.996C158.168 251.928 158.386 251.876 158.602 251.84C158.818 251.804 159.018 251.786 159.202 251.786H160.834ZM167.579 249.092C167.579 249.856 167.497 250.518 167.333 251.078C167.169 251.638 166.941 252.102 166.649 252.47C166.361 252.838 166.017 253.112 165.617 253.292C165.221 253.472 164.791 253.562 164.327 253.562C163.863 253.562 163.433 253.472 163.037 253.292C162.645 253.112 162.305 252.838 162.017 252.47C161.729 252.102 161.503 251.638 161.339 251.078C161.179 250.518 161.099 249.856 161.099 249.092C161.099 248.328 161.179 247.666 161.339 247.106C161.503 246.546 161.729 246.082 162.017 245.714C162.305 245.346 162.645 245.074 163.037 244.898C163.433 244.718 163.863 244.628 164.327 244.628C164.791 244.628 165.221 244.718 165.617 244.898C166.017 245.074 166.361 245.346 166.649 245.714C166.941 246.082 167.169 246.546 167.333 247.106C167.497 247.666 167.579 248.328 167.579 249.092ZM165.659 249.092C165.659 248.488 165.621 247.994 165.545 247.61C165.469 247.222 165.367 246.918 165.239 246.698C165.115 246.478 164.973 246.328 164.813 246.248C164.653 246.164 164.491 246.122 164.327 246.122C164.163 246.122 164.001 246.164 163.841 246.248C163.685 246.328 163.545 246.478 163.421 246.698C163.301 246.918 163.203 247.222 163.127 247.61C163.055 247.994 163.019 248.488 163.019 249.092C163.019 249.7 163.055 250.196 163.127 250.58C163.203 250.964 163.301 251.268 163.421 251.492C163.545 251.712 163.685 251.864 163.841 251.948C164.001 252.028 164.163 252.068 164.327 252.068C164.491 252.068 164.653 252.028 164.813 251.948C164.973 251.864 165.115 251.712 165.239 251.492C165.367 251.268 165.469 250.964 165.545 250.58C165.621 250.196 165.659 249.7 165.659 249.092ZM172.596 251.786C172.796 251.786 172.954 251.842 173.07 251.954C173.186 252.062 173.244 252.206 173.244 252.386V253.466H167.1V252.866C167.1 252.75 167.124 252.626 167.172 252.494C167.22 252.362 167.304 252.242 167.424 252.134L169.944 249.596C170.16 249.38 170.348 249.174 170.508 248.978C170.668 248.782 170.8 248.59 170.904 248.402C171.008 248.21 171.086 248.02 171.138 247.832C171.19 247.64 171.216 247.438 171.216 247.226C171.216 246.878 171.132 246.612 170.964 246.428C170.8 246.24 170.548 246.146 170.208 246.146C169.932 246.146 169.698 246.22 169.506 246.368C169.318 246.512 169.188 246.692 169.116 246.908C169.032 247.128 168.922 247.274 168.786 247.346C168.65 247.418 168.456 247.434 168.204 247.394L167.22 247.22C167.284 246.784 167.406 246.404 167.586 246.08C167.77 245.756 167.996 245.486 168.264 245.27C168.536 245.054 168.846 244.894 169.194 244.79C169.542 244.682 169.916 244.628 170.316 244.628C170.748 244.628 171.136 244.692 171.48 244.82C171.828 244.944 172.124 245.118 172.368 245.342C172.612 245.566 172.798 245.834 172.926 246.146C173.058 246.454 173.124 246.794 173.124 247.166C173.124 247.486 173.078 247.782 172.986 248.054C172.898 248.326 172.776 248.586 172.62 248.834C172.464 249.078 172.282 249.316 172.074 249.548C171.87 249.776 171.652 250.008 171.42 250.244L169.71 251.996C169.93 251.928 170.148 251.876 170.364 251.84C170.58 251.804 170.78 251.786 170.964 251.786H172.596ZM175.285 247.802C175.449 247.77 175.607 247.748 175.759 247.736C175.911 247.724 176.059 247.718 176.203 247.718C176.663 247.718 177.069 247.788 177.421 247.928C177.773 248.068 178.069 248.26 178.309 248.504C178.549 248.744 178.729 249.028 178.849 249.356C178.973 249.68 179.035 250.028 179.035 250.4C179.035 250.868 178.951 251.296 178.783 251.684C178.619 252.068 178.389 252.4 178.093 252.68C177.797 252.96 177.443 253.178 177.031 253.334C176.623 253.486 176.175 253.562 175.687 253.562C175.403 253.562 175.131 253.532 174.871 253.472C174.615 253.412 174.373 253.332 174.145 253.232C173.921 253.128 173.713 253.01 173.521 252.878C173.329 252.742 173.155 252.598 172.999 252.446L173.575 251.678C173.635 251.598 173.705 251.538 173.785 251.498C173.865 251.454 173.951 251.432 174.043 251.432C174.163 251.432 174.275 251.466 174.379 251.534C174.487 251.598 174.603 251.67 174.727 251.75C174.855 251.826 175.003 251.896 175.171 251.96C175.339 252.024 175.547 252.056 175.795 252.056C176.043 252.056 176.255 252.016 176.431 251.936C176.607 251.852 176.749 251.74 176.857 251.6C176.969 251.456 177.049 251.29 177.097 251.102C177.149 250.91 177.175 250.706 177.175 250.49C177.175 250.066 177.055 249.744 176.815 249.524C176.575 249.3 176.235 249.188 175.795 249.188C175.403 249.188 175.019 249.262 174.643 249.41L173.491 249.098L174.235 244.724H178.711V245.492C178.711 245.62 178.691 245.736 178.651 245.84C178.611 245.944 178.547 246.036 178.459 246.116C178.375 246.192 178.263 246.252 178.123 246.296C177.983 246.336 177.815 246.356 177.619 246.356H175.531L175.285 247.802Z" fill="black"/>
<path d="M36.7598 92.0684L82.0349 133.831V229.639H36.7598V92.0684Z" fill="#002642"/>
<rect x="147.432" y="187.877" width="45.2751" height="41.7626" fill="#002642"/>
<path d="M93.3535 158.397L138.629 171.909V229.639H93.3535V158.397Z" fill="#002642"/>
<path d="M193.366 171.118C194.999 170.746 196.027 169.149 195.663 167.551L189.734 141.506C189.37 139.908 187.752 138.913 186.119 139.285C184.486 139.657 183.458 141.254 183.822 142.852L189.092 166.003L165.444 171.387C163.811 171.759 162.783 173.355 163.146 174.954C163.51 176.552 165.129 177.546 166.761 177.175L193.366 171.118ZM36.7598 72.4155L35.1354 74.9377L191.083 170.746L192.707 168.224L194.332 165.702L38.3842 69.8934L36.7598 72.4155Z" fill="black"/>
<path d="M135.862 146.089C135.862 158.866 130.803 169.224 116.9 169.224C102.997 169.224 96.303 158.866 96.303 146.089C89.4377 115.926 116.9 124.126 116.9 124.126C116.9 124.126 143.054 117.39 135.862 146.089Z" fill="#BEBEBE"/>
<path d="M135.08 109.639C135.08 118.049 131.329 125.453 117.426 125.453C103.523 125.453 98.1372 118.635 98.1372 110.225C98.1372 101.815 102.221 99.3896 116.124 99.3896C130.027 99.3896 135.08 101.229 135.08 109.639Z" fill="#BEBEBE"/>
<rect x="103.701" y="103.782" width="24.8467" height="12.8851" rx="6" fill="#0E1156"/>
<ellipse cx="109.913" cy="109.932" rx="3.59623" ry="2.63558" fill="#B1EFFA"/>
<ellipse cx="122.336" cy="109.932" rx="3.59623" ry="2.63558" fill="#B1EFFA"/>
<ellipse cx="122.337" cy="110.224" rx="2.28851" ry="1.75705" fill="#0E1156"/>
<path d="M112.202 110.224C112.202 111.195 111.177 111.981 109.913 111.981C108.649 111.981 107.625 111.195 107.625 110.224C107.625 109.254 108.649 108.467 109.913 108.467C111.177 108.467 112.202 109.254 112.202 110.224Z" fill="#0E1156"/>
<path d="M129.528 166.157C129.613 171.17 128.376 179.323 124.127 179.381C119.877 179.439 120.786 175.579 120.701 170.566C116.778 164.986 118.74 159.715 123.818 161.227C128.067 161.169 129.443 161.144 129.528 166.157Z" fill="#D9D9D9"/>
<path d="M127.894 176.115C127.894 178.541 126.138 180.508 123.971 180.508C121.804 180.508 120.048 178.541 120.048 176.115C120.048 173.689 121.804 170.258 123.971 170.258C126.138 170.258 127.894 173.689 127.894 176.115Z" fill="#343333"/>
<ellipse cx="135.74" cy="134.824" rx="1.96158" ry="4.68548" fill="#D9D9D9"/>
<path d="M139.336 131.016C137.926 129.5 135.252 130.321 135.253 132.271L135.253 136.129C135.253 137.587 136.239 138.927 137.738 139.504L139.386 140.139C141.414 140.92 142.91 142.556 143.372 144.497L144.573 149.544C144.991 151.301 147.086 152.309 148.876 151.613C150.237 151.084 150.946 149.73 150.555 148.407L148.602 141.795C148.148 140.26 147.283 138.838 146.085 137.659L139.336 131.016Z" fill="#BEBEBE"/>
<rect x="105.554" y="130.785" width="23.0568" height="24.0455" rx="11" fill="#D9D9D9"/>
<rect x="107.436" y="132.416" width="19.7629" height="20.3775" rx="9.88147" fill="#0E1156"/>
<rect x="111.683" y="136.288" width="10.6339" height="13.336" rx="4" fill="#B1EFFA"/>
<path d="M150.778 151.515C150.778 153.941 149.022 155.908 146.855 155.908C144.688 155.908 143.258 155.698 143.258 153.272C143.258 150.846 145.015 148.879 147.181 148.879C149.348 148.879 150.778 149.089 150.778 151.515Z" fill="#343333"/>
<ellipse cx="116.529" cy="99.0963" rx="5.55781" ry="0.878527" fill="black"/>
<path d="M122.087 99.0966C122.087 99.5818 119.598 99.9751 116.529 99.9751C113.46 99.9751 110.971 99.5818 110.971 99.0966C110.971 98.6114 116.202 99.6823 116.202 92.0684C117.51 99.6823 122.087 98.6114 122.087 99.0966Z" fill="black"/>
<path d="M114.88 170.188C114.966 175.201 115.796 178.946 111.547 179.004C107.298 179.061 104.113 170.878 104.028 165.865C103.943 160.852 106.989 160.907 111.238 160.849C117.105 160.849 114.795 165.175 114.88 170.188Z" fill="#D9D9D9"/>
<path d="M114.817 176.115C114.817 178.541 113.06 180.507 110.893 180.507C108.727 180.507 106.97 178.541 106.97 176.115C106.97 173.689 108.727 169.965 110.893 169.965C113.06 169.965 114.817 173.689 114.817 176.115Z" fill="#515151"/>
<ellipse cx="97.1447" cy="135.231" rx="1.96158" ry="4.68548" fill="#D9D9D9"/>
<path d="M94.0182 131.886C95.2283 130.674 97.3422 131.115 97.7407 132.662C97.7796 132.813 97.7992 132.968 97.7992 133.125L97.7992 134.49C97.7992 137.121 96.2715 139.621 93.7979 141.037L93.5003 141.208C91.3935 142.414 90.0223 144.484 89.8434 146.727L89.4613 151.516C89.3031 153.5 87.1672 154.905 85.1379 154.36C83.6662 153.964 82.7502 152.65 82.9456 151.215L83.8948 144.243C84.1219 142.575 84.9241 140.993 86.1811 139.734L94.0182 131.886Z" fill="#BEBEBE"/>
<path d="M86.3562 149.931C89.0643 149.898 91.2834 151.445 91.3127 153.385C91.3419 155.326 91.1273 156.61 88.4191 156.642C85.711 156.675 83.4919 155.128 83.4627 153.188C83.4334 151.247 83.6481 149.964 86.3562 149.931Z" fill="#343333"/>
<path d="M99.0083 204.849H102.248V206.349H99.0083V204.849ZM102.321 203.001C102.385 202.565 102.507 202.185 102.687 201.861C102.871 201.537 103.097 201.267 103.365 201.051C103.637 200.835 103.947 200.675 104.295 200.571C104.643 200.463 105.017 200.409 105.417 200.409C105.849 200.409 106.233 200.471 106.569 200.595C106.905 200.715 107.189 200.879 107.421 201.087C107.653 201.295 107.829 201.537 107.949 201.813C108.069 202.085 108.129 202.373 108.129 202.677C108.129 202.953 108.101 203.197 108.045 203.409C107.989 203.617 107.905 203.799 107.793 203.955C107.685 204.107 107.549 204.237 107.385 204.345C107.225 204.449 107.041 204.537 106.833 204.609C107.801 204.949 108.285 205.609 108.285 206.589C108.285 207.053 108.201 207.457 108.033 207.801C107.865 208.145 107.639 208.431 107.355 208.659C107.075 208.887 106.749 209.059 106.377 209.175C106.005 209.287 105.617 209.343 105.213 209.343C104.797 209.343 104.427 209.299 104.103 209.211C103.779 209.119 103.491 208.979 103.239 208.791C102.987 208.599 102.765 208.355 102.573 208.059C102.385 207.763 102.221 207.411 102.081 207.003L102.909 206.667C103.125 206.583 103.325 206.561 103.509 206.601C103.693 206.641 103.825 206.733 103.905 206.877C104.085 207.209 104.275 207.451 104.475 207.603C104.679 207.751 104.917 207.825 105.189 207.825C105.397 207.825 105.577 207.791 105.729 207.723C105.885 207.651 106.013 207.561 106.113 207.453C106.217 207.341 106.295 207.215 106.347 207.075C106.399 206.935 106.425 206.793 106.425 206.649C106.425 206.461 106.411 206.293 106.383 206.145C106.359 205.993 106.287 205.863 106.167 205.755C106.047 205.647 105.865 205.565 105.621 205.509C105.381 205.449 105.045 205.419 104.613 205.419V204.135C104.977 204.135 105.271 204.107 105.495 204.051C105.719 203.995 105.891 203.919 106.011 203.823C106.135 203.723 106.217 203.603 106.257 203.463C106.297 203.323 106.317 203.169 106.317 203.001C106.317 202.657 106.233 202.393 106.065 202.209C105.901 202.021 105.649 201.927 105.309 201.927C105.033 201.927 104.799 202.001 104.607 202.149C104.419 202.293 104.289 202.473 104.217 202.689C104.133 202.909 104.023 203.055 103.887 203.127C103.751 203.199 103.557 203.215 103.305 203.175L102.321 203.001ZM113.529 207.567C113.729 207.567 113.887 207.623 114.003 207.735C114.119 207.843 114.177 207.987 114.177 208.167V209.247H108.033V208.647C108.033 208.531 108.057 208.407 108.105 208.275C108.153 208.143 108.237 208.023 108.357 207.915L110.877 205.377C111.093 205.161 111.281 204.955 111.441 204.759C111.601 204.563 111.733 204.371 111.837 204.183C111.941 203.991 112.019 203.801 112.071 203.613C112.123 203.421 112.149 203.219 112.149 203.007C112.149 202.659 112.065 202.393 111.897 202.209C111.733 202.021 111.481 201.927 111.141 201.927C110.865 201.927 110.631 202.001 110.439 202.149C110.251 202.293 110.121 202.473 110.049 202.689C109.965 202.909 109.855 203.055 109.719 203.127C109.583 203.199 109.389 203.215 109.137 203.175L108.153 203.001C108.217 202.565 108.339 202.185 108.519 201.861C108.703 201.537 108.929 201.267 109.197 201.051C109.469 200.835 109.779 200.675 110.127 200.571C110.475 200.463 110.849 200.409 111.249 200.409C111.681 200.409 112.069 200.473 112.413 200.601C112.761 200.725 113.057 200.899 113.301 201.123C113.545 201.347 113.731 201.615 113.859 201.927C113.991 202.235 114.057 202.575 114.057 202.947C114.057 203.267 114.011 203.563 113.919 203.835C113.831 204.107 113.709 204.367 113.553 204.615C113.397 204.859 113.215 205.097 113.007 205.329C112.803 205.557 112.585 205.789 112.353 206.025L110.643 207.777C110.863 207.709 111.081 207.657 111.297 207.621C111.513 207.585 111.713 207.567 111.897 207.567H113.529ZM118.15 202.623C118.15 202.943 118.092 203.235 117.976 203.499C117.86 203.763 117.706 203.991 117.514 204.183C117.322 204.371 117.098 204.517 116.842 204.621C116.59 204.725 116.326 204.777 116.05 204.777C115.746 204.777 115.466 204.725 115.21 204.621C114.958 204.517 114.738 204.371 114.55 204.183C114.366 203.991 114.222 203.763 114.118 203.499C114.014 203.235 113.962 202.943 113.962 202.623C113.962 202.291 114.014 201.991 114.118 201.723C114.222 201.451 114.366 201.219 114.55 201.027C114.738 200.835 114.958 200.687 115.21 200.583C115.466 200.475 115.746 200.421 116.05 200.421C116.354 200.421 116.634 200.475 116.89 200.583C117.15 200.687 117.372 200.835 117.556 201.027C117.744 201.219 117.89 201.451 117.994 201.723C118.098 201.991 118.15 202.291 118.15 202.623ZM116.722 202.623C116.722 202.419 116.704 202.251 116.668 202.119C116.636 201.983 116.59 201.875 116.53 201.795C116.47 201.715 116.398 201.659 116.314 201.627C116.234 201.595 116.146 201.579 116.05 201.579C115.954 201.579 115.866 201.595 115.786 201.627C115.706 201.659 115.638 201.715 115.582 201.795C115.526 201.875 115.482 201.983 115.45 202.119C115.418 202.251 115.402 202.419 115.402 202.623C115.402 202.815 115.418 202.975 115.45 203.103C115.482 203.231 115.526 203.333 115.582 203.409C115.638 203.485 115.706 203.539 115.786 203.571C115.866 203.603 115.954 203.619 116.05 203.619C116.146 203.619 116.234 203.603 116.314 203.571C116.398 203.539 116.47 203.485 116.53 203.409C116.59 203.333 116.636 203.231 116.668 203.103C116.704 202.975 116.722 202.815 116.722 202.623ZM120.898 200.781C120.958 200.713 121.032 200.651 121.12 200.595C121.208 200.535 121.33 200.505 121.486 200.505H122.842L116.254 208.983C116.194 209.059 116.118 209.123 116.026 209.175C115.938 209.223 115.83 209.247 115.702 209.247H114.31L120.898 200.781ZM123.178 207.195C123.178 207.515 123.12 207.809 123.004 208.077C122.888 208.341 122.734 208.569 122.542 208.761C122.35 208.949 122.126 209.095 121.87 209.199C121.618 209.303 121.354 209.355 121.078 209.355C120.774 209.355 120.494 209.303 120.238 209.199C119.986 209.095 119.766 208.949 119.578 208.761C119.394 208.569 119.25 208.341 119.146 208.077C119.042 207.809 118.99 207.515 118.99 207.195C118.99 206.863 119.042 206.563 119.146 206.295C119.25 206.023 119.394 205.791 119.578 205.599C119.766 205.407 119.986 205.259 120.238 205.155C120.494 205.047 120.774 204.993 121.078 204.993C121.382 204.993 121.662 205.047 121.918 205.155C122.178 205.259 122.4 205.407 122.584 205.599C122.772 205.791 122.918 206.023 123.022 206.295C123.126 206.563 123.178 206.863 123.178 207.195ZM121.75 207.195C121.75 206.995 121.732 206.829 121.696 206.697C121.664 206.561 121.618 206.453 121.558 206.373C121.498 206.293 121.426 206.237 121.342 206.205C121.262 206.173 121.174 206.157 121.078 206.157C120.982 206.157 120.894 206.173 120.814 206.205C120.734 206.237 120.666 206.293 120.61 206.373C120.554 206.453 120.51 206.561 120.478 206.697C120.446 206.829 120.43 206.995 120.43 207.195C120.43 207.387 120.446 207.547 120.478 207.675C120.51 207.803 120.554 207.905 120.61 207.981C120.666 208.057 120.734 208.111 120.814 208.143C120.894 208.175 120.982 208.191 121.078 208.191C121.174 208.191 121.262 208.175 121.342 208.143C121.426 208.111 121.498 208.057 121.558 207.981C121.618 207.905 121.664 207.803 121.696 207.675C121.732 207.547 121.75 207.387 121.75 207.195Z" fill="#FFC200"/>
<path d="M153.624 206.602H156.864V208.102H153.624V206.602ZM162.714 209.656V211H157.734V209.656H159.414V205.246C159.414 205.134 159.416 205.022 159.42 204.91C159.424 204.794 159.43 204.678 159.438 204.562L158.442 205.39C158.354 205.458 158.266 205.5 158.178 205.516C158.094 205.528 158.014 205.528 157.938 205.516C157.862 205.5 157.794 205.474 157.734 205.438C157.674 205.398 157.63 205.358 157.602 205.318L157.014 204.538L159.738 202.252H161.274V209.656H162.714ZM165.757 209.626C165.949 209.626 166.127 209.59 166.291 209.518C166.459 209.446 166.603 209.348 166.723 209.224C166.843 209.096 166.937 208.948 167.005 208.78C167.077 208.608 167.113 208.422 167.113 208.222C167.113 207.998 167.079 207.798 167.011 207.622C166.947 207.446 166.855 207.298 166.735 207.178C166.615 207.058 166.469 206.966 166.297 206.902C166.129 206.838 165.941 206.806 165.733 206.806C165.545 206.806 165.373 206.84 165.217 206.908C165.061 206.972 164.925 207.066 164.809 207.19C164.697 207.314 164.609 207.462 164.545 207.634C164.481 207.806 164.449 208 164.449 208.216C164.449 208.432 164.475 208.626 164.527 208.798C164.579 208.97 164.659 209.118 164.767 209.242C164.875 209.366 165.011 209.462 165.175 209.53C165.339 209.594 165.533 209.626 165.757 209.626ZM165.457 205.618C165.737 205.514 166.049 205.462 166.393 205.462C166.709 205.462 167.021 205.514 167.329 205.618C167.637 205.722 167.913 205.882 168.157 206.098C168.401 206.314 168.597 206.588 168.745 206.92C168.897 207.248 168.973 207.636 168.973 208.084C168.973 208.492 168.897 208.88 168.745 209.248C168.593 209.612 168.377 209.932 168.097 210.208C167.821 210.48 167.487 210.696 167.095 210.856C166.703 211.016 166.269 211.096 165.793 211.096C165.305 211.096 164.867 211.02 164.479 210.868C164.091 210.712 163.761 210.496 163.489 210.22C163.221 209.944 163.015 209.614 162.871 209.23C162.731 208.846 162.661 208.424 162.661 207.964C162.661 207.104 162.993 206.23 163.657 205.342L165.625 202.684C165.717 202.568 165.849 202.468 166.021 202.384C166.197 202.3 166.397 202.258 166.621 202.258H168.277L165.685 205.354L165.457 205.618ZM168.548 210.058C168.548 209.914 168.574 209.78 168.626 209.656C168.682 209.532 168.756 209.424 168.848 209.332C168.944 209.24 169.056 209.168 169.184 209.116C169.312 209.06 169.452 209.032 169.604 209.032C169.752 209.032 169.89 209.06 170.018 209.116C170.146 209.168 170.258 209.24 170.354 209.332C170.45 209.424 170.524 209.532 170.576 209.656C170.632 209.78 170.66 209.914 170.66 210.058C170.66 210.202 170.632 210.338 170.576 210.466C170.524 210.59 170.45 210.698 170.354 210.79C170.258 210.882 170.146 210.954 170.018 211.006C169.89 211.058 169.752 211.084 169.604 211.084C169.452 211.084 169.312 211.058 169.184 211.006C169.056 210.954 168.944 210.882 168.848 210.79C168.756 210.698 168.682 210.59 168.626 210.466C168.574 210.338 168.548 210.202 168.548 210.058ZM172.625 205.336C172.789 205.304 172.947 205.282 173.099 205.27C173.251 205.258 173.399 205.252 173.543 205.252C174.003 205.252 174.409 205.322 174.761 205.462C175.113 205.602 175.409 205.794 175.649 206.038C175.889 206.278 176.069 206.562 176.189 206.89C176.313 207.214 176.375 207.562 176.375 207.934C176.375 208.402 176.291 208.83 176.123 209.218C175.959 209.602 175.729 209.934 175.433 210.214C175.137 210.494 174.783 210.712 174.371 210.868C173.963 211.02 173.515 211.096 173.027 211.096C172.743 211.096 172.471 211.066 172.211 211.006C171.955 210.946 171.713 210.866 171.485 210.766C171.261 210.662 171.053 210.544 170.861 210.412C170.669 210.276 170.495 210.132 170.339 209.98L170.915 209.212C170.975 209.132 171.045 209.072 171.125 209.032C171.205 208.988 171.291 208.966 171.383 208.966C171.503 208.966 171.615 209 171.719 209.068C171.827 209.132 171.943 209.204 172.067 209.284C172.195 209.36 172.343 209.43 172.511 209.494C172.679 209.558 172.887 209.59 173.135 209.59C173.383 209.59 173.595 209.55 173.771 209.47C173.947 209.386 174.089 209.274 174.197 209.134C174.309 208.99 174.389 208.824 174.437 208.636C174.489 208.444 174.515 208.24 174.515 208.024C174.515 207.6 174.395 207.278 174.155 207.058C173.915 206.834 173.575 206.722 173.135 206.722C172.743 206.722 172.359 206.796 171.983 206.944L170.831 206.632L171.575 202.258H176.051V203.026C176.051 203.154 176.031 203.27 175.991 203.374C175.951 203.478 175.887 203.57 175.799 203.65C175.715 203.726 175.603 203.786 175.463 203.83C175.323 203.87 175.155 203.89 174.959 203.89H172.871L172.625 205.336ZM180.438 204.376C180.438 204.696 180.38 204.988 180.264 205.252C180.148 205.516 179.994 205.744 179.802 205.936C179.61 206.124 179.386 206.27 179.13 206.374C178.878 206.478 178.614 206.53 178.338 206.53C178.034 206.53 177.754 206.478 177.498 206.374C177.246 206.27 177.026 206.124 176.838 205.936C176.654 205.744 176.51 205.516 176.406 205.252C176.302 204.988 176.25 204.696 176.25 204.376C176.25 204.044 176.302 203.744 176.406 203.476C176.51 203.204 176.654 202.972 176.838 202.78C177.026 202.588 177.246 202.44 177.498 202.336C177.754 202.228 178.034 202.174 178.338 202.174C178.642 202.174 178.922 202.228 179.178 202.336C179.438 202.44 179.66 202.588 179.844 202.78C180.032 202.972 180.178 203.204 180.282 203.476C180.386 203.744 180.438 204.044 180.438 204.376ZM179.01 204.376C179.01 204.172 178.992 204.004 178.956 203.872C178.924 203.736 178.878 203.628 178.818 203.548C178.758 203.468 178.686 203.412 178.602 203.38C178.522 203.348 178.434 203.332 178.338 203.332C178.242 203.332 178.154 203.348 178.074 203.38C177.994 203.412 177.926 203.468 177.87 203.548C177.814 203.628 177.77 203.736 177.738 203.872C177.706 204.004 177.69 204.172 177.69 204.376C177.69 204.568 177.706 204.728 177.738 204.856C177.77 204.984 177.814 205.086 177.87 205.162C177.926 205.238 177.994 205.292 178.074 205.324C178.154 205.356 178.242 205.372 178.338 205.372C178.434 205.372 178.522 205.356 178.602 205.324C178.686 205.292 178.758 205.238 178.818 205.162C178.878 205.086 178.924 204.984 178.956 204.856C178.992 204.728 179.01 204.568 179.01 204.376ZM183.186 202.534C183.246 202.466 183.32 202.404 183.408 202.348C183.496 202.288 183.618 202.258 183.774 202.258H185.13L178.542 210.736C178.482 210.812 178.406 210.876 178.314 210.928C178.226 210.976 178.118 211 177.99 211H176.598L183.186 202.534ZM185.466 208.948C185.466 209.268 185.408 209.562 185.292 209.83C185.176 210.094 185.022 210.322 184.83 210.514C184.638 210.702 184.414 210.848 184.158 210.952C183.906 211.056 183.642 211.108 183.366 211.108C183.062 211.108 182.782 211.056 182.526 210.952C182.274 210.848 182.054 210.702 181.866 210.514C181.682 210.322 181.538 210.094 181.434 209.83C181.33 209.562 181.278 209.268 181.278 208.948C181.278 208.616 181.33 208.316 181.434 208.048C181.538 207.776 181.682 207.544 181.866 207.352C182.054 207.16 182.274 207.012 182.526 206.908C182.782 206.8 183.062 206.746 183.366 206.746C183.67 206.746 183.95 206.8 184.206 206.908C184.466 207.012 184.688 207.16 184.872 207.352C185.06 207.544 185.206 207.776 185.31 208.048C185.414 208.316 185.466 208.616 185.466 208.948ZM184.038 208.948C184.038 208.748 184.02 208.582 183.984 208.45C183.952 208.314 183.906 208.206 183.846 208.126C183.786 208.046 183.714 207.99 183.63 207.958C183.55 207.926 183.462 207.91 183.366 207.91C183.27 207.91 183.182 207.926 183.102 207.958C183.022 207.99 182.954 208.046 182.898 208.126C182.842 208.206 182.798 208.314 182.766 208.45C182.734 208.582 182.718 208.748 182.718 208.948C182.718 209.14 182.734 209.3 182.766 209.428C182.798 209.556 182.842 209.658 182.898 209.734C182.954 209.81 183.022 209.864 183.102 209.896C183.182 209.928 183.27 209.944 183.366 209.944C183.462 209.944 183.55 209.928 183.63 209.896C183.714 209.864 183.786 209.81 183.846 209.734C183.906 209.658 183.952 209.556 183.984 209.428C184.02 209.3 184.038 209.14 184.038 208.948Z" fill="#FFC200"/>
</g>
<defs>
<clipPath id="clip0_460_2315">
<rect width="216" height="256" fill="white"/>
</clipPath>
</defs>
</svg>
