<svg width="229" height="150" viewBox="0 0 229 150" fill="none" xmlns="http://www.w3.org/2000/svg">
<g clip-path="url(#clip0_509_1456)">
<rect width="229" height="150" fill="#A4C5DC" fill-opacity="0.25"/>
<rect y="122" width="229" height="28" fill="#C2BDB6"/>
<rect y="46.792" width="10" height="84.8411" fill="#C3D9E8"/>
<rect x="10" y="22" width="10" height="110" fill="#C3D9E8"/>
<rect x="20" y="31" width="10" height="101" fill="#C3D9E8"/>
<rect x="30" y="37.8613" width="10" height="93.7717" fill="#C3D9E8"/>
<rect x="39" y="31.1631" width="13" height="100.47" fill="#C3D9E8"/>
<rect x="52" y="34.5127" width="11" height="97.1207" fill="#C3D9E8"/>
<rect x="63" y="40.0938" width="8" height="91.5391" fill="#C3D9E8"/>
<rect width="10" height="84.8411" transform="matrix(-1 0 0 1 141 52.1592)" fill="#C3D9E8"/>
<rect width="10" height="111.633" transform="matrix(-1 0 0 1 131 25.3672)" fill="#C3D9E8"/>
<rect width="10" height="102.702" transform="matrix(-1 0 0 1 121 34.2979)" fill="#C3D9E8"/>
<rect width="10" height="93.7717" transform="matrix(-1 0 0 1 111 43.2285)" fill="#C3D9E8"/>
<rect width="13" height="100.47" transform="matrix(-1 0 0 1 102 36.5303)" fill="#C3D9E8"/>
<rect width="11" height="97.1207" transform="matrix(-1 0 0 1 89 39.8799)" fill="#C3D9E8"/>
<rect width="8" height="91.5391" transform="matrix(-1 0 0 1 78 45.4609)" fill="#C3D9E8"/>
<rect width="10" height="84.8411" transform="matrix(-1 0 0 1 211 48.9385)" fill="#C3D9E8"/>
<rect width="12" height="84.7982" transform="matrix(-1 0 0 1 223 35.0273)" fill="#C3D9E8"/>
<path d="M229 43.5967H222V132.084H229V43.5967Z" fill="#C3D9E8"/>
<rect width="10" height="109" transform="matrix(-1 0 0 1 201 25)" fill="#C3D9E8"/>
<rect width="10" height="100" transform="matrix(-1 0 0 1 191 34)" fill="#C3D9E8"/>
<rect width="10" height="93.7717" transform="matrix(-1 0 0 1 181 40.0078)" fill="#C3D9E8"/>
<rect width="13" height="100.47" transform="matrix(-1 0 0 1 172 33.3105)" fill="#C3D9E8"/>
<rect width="11" height="97.1207" transform="matrix(-1 0 0 1 159 36.6592)" fill="#C3D9E8"/>
<rect width="8" height="91.5391" transform="matrix(-1 0 0 1 148 42.2412)" fill="#C3D9E8"/>
<rect x="6.5" y="60.5" width="216" height="87" fill="#01355C" stroke="#7EA5C0"/>
<rect x="3.5" y="53.5" width="223" height="7" fill="#002642" stroke="#7EA5C0"/>
<line x1="16.5" y1="96.5" x2="39.5" y2="96.5" stroke="#212121" stroke-linecap="round"/>
<path d="M23 94.8071C23 95.1998 23.1526 95.5571 23.4022 95.8234C23.541 95.9716 23.6651 96.0004 23.8658 96.0004H25.1342C25.3349 96.0004 25.459 95.9716 25.5978 95.8234C25.8474 95.5571 26 95.1998 26 94.8071C26 94.2057 25.6421 93.6875 25.1266 93.4515C25.0384 93.4111 24.9603 93.4004 24.8635 93.4004H24.1365C24.0397 93.4004 23.9616 93.4111 23.8734 93.4515C23.3579 93.6875 23 94.2057 23 94.8071Z" fill="#6FAEE8" stroke="#141B34" stroke-width="0.4" stroke-linecap="round" stroke-linejoin="round"/>
<path d="M24 93.3998V93.1998C24 92.8689 24.0691 92.7998 24.4 92.7998H24.6C24.9309 92.7998 25 92.8689 25 93.1998V93.3998" stroke="#141B34" stroke-width="0.4" stroke-linejoin="round"/>
<path d="M24.8002 92.8002V92.5002C24.8002 92.2903 24.7256 92.2002 24.5002 92.2002C24.2748 92.2002 24.2002 92.2903 24.2002 92.5002V92.8002" stroke="#141B34" stroke-width="0.4" stroke-linejoin="round"/>
<circle cx="26.3998" cy="92.6" r="0.6" fill="#6FAEE8" stroke="#141B34" stroke-width="0.4" stroke-linecap="round" stroke-linejoin="round"/>
<path d="M23.7998 92.4004H24.1998M24.7998 92.4004H25.7998" stroke="#141B34" stroke-width="0.4" stroke-linecap="round" stroke-linejoin="round"/>
<path d="M21.735 96C21.675 95.8902 21.6365 95.6933 21.6937 95.4957C21.768 95.2387 21.8042 95.1654 21.5708 95.0286L21.2236 94.8252C21.004 94.6965 20.9579 94.7344 20.7975 94.9287C20.6016 95.1659 20.2525 95.4386 19.75 95.5569" stroke="black" stroke-width="0.5"/>
<path d="M17 92.75V92.3C17 92.0518 17.0432 92 17.25 92H18.5C18.7269 92 18.75 92.1387 18.75 92.375C18.75 92.6113 18.7269 92.75 18.5 92.75H17ZM17 92.75V94" stroke="black" stroke-width="0.5" stroke-linejoin="round"/>
<path d="M17 94H17.25C17.8634 94 18.1701 94 18.434 94.132C18.6979 94.2639 18.882 94.5093 19.25 95C19.9939 95.9918 20.8682 96 22 96" stroke="black" stroke-width="0.5" stroke-linecap="round"/>
<path d="M17 94L17.3541 95.8886C17.3662 95.9532 17.4226 96 17.4884 96V96C17.5638 96 17.6255 95.9391 17.6289 95.8637C17.6462 95.4856 17.7401 94.4309 18.25 94.125" stroke="black" stroke-width="0.5"/>
<line x1="41.5" y1="91.5" x2="78.5" y2="91.5" stroke="#212121" stroke-linecap="round"/>
<path d="M43.5 91.5V143" stroke="#212121"/>
<path d="M75.5 91.5V142.5" stroke="#212121" stroke-linecap="square"/>
<line x1="44" y1="94.5" x2="75" y2="94.5" stroke="#212121"/>
<path d="M26.3178 102.664C26.3508 101.101 26.3508 100.055 26.3508 100H27.6937C27.9878 100 27.6937 100 27.9945 100.035C28.2085 100.06 28.1691 100.112 28.2104 100.841C28.2517 101.57 28.2252 102.932 28.2687 103.669C28.3187 104.517 28.2527 104.795 28.4275 105.087C28.6188 105.406 29.0117 105.63 29.0273 106.231C29.052 107.189 28.9866 107.865 28.9685 108.635C28.952 109.335 28.952 110.628 28.9605 111.338C28.969 112.049 28.9839 112.173 28.9938 112.383C29.036 113.285 29.1217 113.643 29.1523 113.958C29.2021 114.47 29.1956 115.217 29.2606 115.751C29.3022 116.091 29.2848 116.429 29.3777 116.884C29.5022 117.494 29.7091 118.013 29.7276 118.862C29.7524 120.001 29.7202 120.829 29.7106 121.618C29.7023 122.297 29.6887 123.508 29.7108 124.155C29.7359 124.885 29.7783 125.554 29.8026 126.931C29.8194 127.88 29.809 129.655 29.8612 130.598C29.9194 131.652 29.948 131.904 29.961 132.174C30.0025 133.036 30.032 134.175 29.9354 134.536C29.8184 134.973 29.7564 135.345 29.4847 135.549L29.4662 135.563C29.2023 135.762 28.8854 136 28.2954 136C26.6989 136 26.265 135.971 25.1722 135.923C24.3769 135.889 23.4587 135.933 22.8892 135.791C22.497 135.694 21.7847 135.682 21.2554 135.562L21.2477 135.56C21.1588 135.54 21.0797 135.522 21.0396 135.35C20.9983 135.173 20.9931 134.843 21.0068 134.636C21.0483 134.008 21.134 133.348 21.1986 133.011C21.2654 132.663 21.3409 132.325 21.4573 132.046C21.5996 131.705 21.8241 131.353 22.0328 130.878C22.1828 130.537 22.5558 129.472 22.8079 128.808C22.9162 128.523 22.9188 128.24 23.0582 127.807C23.1993 127.37 23.3194 127.017 23.3829 126.571C23.4334 126.217 23.5406 125.827 23.4909 124.84C23.4494 124.014 23.5462 122.973 23.3739 122.521C23.2153 122.104 23.0104 121.746 22.7984 121.459L22.7867 121.443C22.5922 121.18 22.4462 120.982 22.2574 120.082C22.1831 119.728 22.3578 118.815 22.45 118.5C22.6085 117.958 22.8663 117.793 22.9575 117.5C23.0658 117.153 23.1525 117.124 23.3249 116.539C23.4334 116.171 23.5446 115.836 23.608 115.532C23.6835 115.171 23.7394 114.864 23.8081 114.233C23.8496 113.851 23.9406 113.434 23.9079 112.961C23.8656 112.35 23.8862 111.467 23.6908 110.927C23.5825 110.627 23.5737 110.208 23.4992 109.836C23.4324 109.502 23.4353 108.998 23.3491 108.585C23.2824 108.266 23.2562 107.957 23.1908 107.599C23.1323 107.279 23.1937 107.5 22.9575 106.526C22.7273 105.578 22.8873 105.153 23.1668 104.89C23.4174 104.653 23.7075 104.447 24.0092 104.293C24.3348 104.126 24.6586 103.92 25.0014 103.751C25.3693 103.57 25.8201 103.436 26.1434 103.285L26.1435 103.285C26.2187 103.25 26.3062 103.21 26.3178 102.664Z" fill="#7EA5C0" stroke="#212121" stroke-width="0.5" stroke-linecap="round"/>
<path d="M24.8222 104C24.9066 104.253 25.2451 105.126 25.4032 105.526C25.5337 105.857 25.6577 106.181 25.749 106.544C25.8686 107.02 25.9495 107.308 25.9255 107.526C25.8862 107.883 25.5987 108.054 25.4105 108.49C25.2346 108.891 24.9926 109.18 24.8222 109.536C24.7856 109.618 24.0396 110.744 23.9297 111" stroke="#212121" stroke-width="0.5" stroke-linecap="round"/>
<path d="M25.9648 103.634C26.0014 103.699 26.0746 103.846 26.1665 104.008C26.2895 104.224 26.4272 104.441 26.4972 104.603C26.575 104.782 26.6697 104.984 26.7579 105.176C26.838 105.35 26.8859 105.509 26.9087 105.683C26.9502 106 27.334 106.363 27.334 106.363C27.4502 106.5 27.8955 106.367 28.2515 106.33C28.4016 106.323 28.6343 106.323 28.8741 106.345" stroke="#212121" stroke-width="0.5" stroke-linecap="round"/>
<path d="M26.4502 143C26.4502 143.276 26.6741 143.5 26.9502 143.5C27.2263 143.5 27.4502 143.276 27.4502 143H26.9502H26.4502ZM26.9502 136H26.4502V143H26.9502H27.4502V136H26.9502Z" fill="#212121"/>
<path d="M206.5 104H197" stroke="#212121" stroke-linecap="round"/>
<path d="M206.5 98.5H197" stroke="#212121" stroke-linecap="round"/>
<path d="M199.006 94C199.006 93.9937 199.006 93.8966 199.005 93.7434C199.004 93.662 198.997 93.4455 199.002 93.1108C199.006 92.7658 199.065 92.6285 199.103 92.4894C199.162 92.2686 199.196 92.1793 199.229 92.1128C199.261 92.046 199.323 91.8485 199.421 91.6751C199.518 91.5051 199.644 91.4058 199.874 91.2562C200.002 91.1724 200.271 91.1076 200.499 91.0489C200.669 91.0052 200.811 91.0028 200.868 91.0013C201.046 90.9964 201.351 91.0059 201.47 91.0217C201.717 91.0547 201.856 91.1102 201.935 91.1371C202.052 91.1767 202.26 91.3811 202.394 91.5571C202.52 91.7215 202.609 91.9318 202.671 92.0898C202.712 92.194 202.749 92.2859 202.786 92.4329C202.814 92.5411 202.852 92.6338 202.874 92.7035C202.911 92.8224 202.939 92.9815 202.947 93.0623C202.956 93.1527 202.976 93.2408 202.986 93.4412C202.989 93.4907 202.995 93.522 202.998 93.6054C203.001 93.6888 203.001 93.8234 202.992 93.9621" stroke="#212121" stroke-width="0.5" stroke-linecap="round"/>
<rect x="197" y="93" width="8" height="5" rx="1" fill="#141B34"/>
<circle cx="197.75" cy="97.4502" r="0.25" fill="#755C00"/>
<circle cx="197.75" cy="93.4502" r="0.25" fill="#755C00"/>
<circle cx="204.25" cy="97.4502" r="0.25" fill="#755C00"/>
<circle cx="204.25" cy="93.4502" r="0.25" fill="#755C00"/>
<line x1="156.5" y1="142" x2="156.5" y2="134" stroke="#212121"/>
<path d="M153 142.5H160.5" stroke="#212121" stroke-linecap="round"/>
<line x1="75" y1="139.5" x2="49" y2="139.5" stroke="#212121"/>
<line x1="49.5" y1="140" x2="49.5" y2="143" stroke="#212121"/>
<rect x="60" y="134" width="6" height="5" fill="#002642"/>
<rect x="67" y="134" width="5" height="5" fill="#002642"/>
<rect x="15" y="143" width="65" height="2" fill="#86AEC8"/>
<line x1="167.5" y1="83" x2="167.5" y2="143" stroke="#1C1F46"/>
<path d="M201.075 103.439C201.075 103.367 201.06 103.229 201.015 103.179C200.917 103.07 200.734 103.002 200.578 103.002C200.389 103.002 200.257 102.997 199.838 103.002C199.681 103.004 199.604 103.074 199.547 103.113C199.423 103.198 199.453 103.355 199.434 103.51C199.414 103.676 199.543 103.819 199.659 103.979C199.821 104.202 199.933 104.404 199.99 104.515C200.017 104.567 199.99 104.78 199.99 104.875" stroke="#908E8E" stroke-width="0.3" stroke-linecap="round"/>
<path d="M199.824 105.101L194.613 106.597C194.151 106.729 194.273 107.415 194.753 107.38L205.763 106.577C206.246 106.542 206.262 105.839 205.781 105.781L199.982 105.088C199.929 105.082 199.875 105.086 199.824 105.101Z" stroke="#908E8E" stroke-width="0.4"/>
<path d="M205.075 103.439C205.075 103.367 205.06 103.229 205.015 103.179C204.917 103.07 204.734 103.002 204.578 103.002C204.389 103.002 204.257 102.997 203.838 103.002C203.681 103.004 203.604 103.074 203.547 103.113C203.423 103.198 203.453 103.355 203.434 103.51C203.414 103.676 203.543 103.819 203.659 103.979C203.821 104.202 203.933 104.404 203.99 104.515C204.017 104.567 203.99 104.78 203.99 104.875" stroke="#908E8E" stroke-width="0.3" stroke-linecap="round"/>
<path d="M203.824 105.101L198.613 106.597C198.151 106.729 198.273 107.415 198.753 107.38L209.763 106.577C210.246 106.542 210.262 105.839 209.781 105.781L203.982 105.088C203.929 105.082 203.875 105.086 203.824 105.101Z" stroke="#908E8E" stroke-width="0.4"/>
<rect x="195" y="137" width="8" height="6" fill="#FAB51A"/>
<rect x="194" y="136" width="10" height="1" fill="#FBAD00"/>
<rect x="171" y="137" width="10" height="6" fill="#B31E3C"/>
<rect x="170" y="136" width="12" height="1" fill="#840032"/>
<rect x="184" y="137" width="8" height="6" fill="#084830"/>
<rect x="183" y="136" width="10" height="1" fill="#043A26"/>
<path d="M35 134V141" stroke="#212121"/>
<path d="M34.7616 140.103C34.9137 140.037 35.0863 140.037 35.2384 140.103L39.271 141.849C39.8686 142.108 39.6838 143 39.0326 143H30.9674C30.3162 143 30.1314 142.108 30.729 141.849L34.7616 140.103Z" fill="#212121"/>
<rect x="87" y="72" width="55" height="11" fill="#002642"/>
<rect x="148" y="143" width="67" height="2" fill="#86AEC8"/>
<rect x="87.5" y="85.5" width="54" height="61" fill="#7EA5C0" fill-opacity="0.15" stroke="#002642"/>
<line x1="114.5" y1="147" x2="114.5" y2="85" stroke="#002642"/>
<rect x="14.5" y="81.5" width="66" height="64" fill="#7EA5C0" fill-opacity="0.15" stroke="#002642"/>
<rect x="147.5" y="81.5" width="68" height="64" fill="#7EA5C0" fill-opacity="0.15" stroke="#002642"/>
<rect x="28" y="89" width="170" height="45" fill="#D3191F"/>
<rect x="28" y="89" width="170" height="5" fill="#E0D500"/>
<rect x="28" y="123" width="170" height="8" fill="#E0D500"/>
<path d="M40.3159 121.227C38.0409 121.227 36.3983 120.66 35.3882 119.527C34.3875 118.395 33.8872 116.591 33.8872 114.118V111.683H38.8149V114.798C38.8149 115.374 38.8999 115.827 39.0698 116.157C39.2492 116.478 39.556 116.639 39.9902 116.639C40.4434 116.639 40.7549 116.507 40.9248 116.242C41.1042 115.978 41.1938 115.544 41.1938 114.939C41.1938 114.175 41.1183 113.538 40.9673 113.028C40.8162 112.509 40.5519 112.018 40.1743 111.555C39.8062 111.083 39.2917 110.536 38.6309 109.913L36.3936 107.789C34.7227 106.212 33.8872 104.409 33.8872 102.379C33.8872 100.255 34.3781 98.6364 35.3599 97.5225C36.3511 96.4085 37.7812 95.8516 39.6504 95.8516C41.9349 95.8516 43.5539 96.4604 44.5073 97.6782C45.4702 98.896 45.9517 100.746 45.9517 103.229H40.8823V101.516C40.8823 101.176 40.7832 100.911 40.585 100.723C40.3962 100.534 40.1366 100.439 39.8062 100.439C39.4097 100.439 39.117 100.553 38.9282 100.779C38.7489 100.996 38.6592 101.28 38.6592 101.629C38.6592 101.978 38.7536 102.356 38.9424 102.762C39.1312 103.168 39.5041 103.635 40.061 104.164L42.9355 106.925C43.5114 107.472 44.04 108.053 44.5215 108.667C45.0029 109.271 45.39 109.979 45.6826 110.791C45.9753 111.593 46.1216 112.575 46.1216 113.736C46.1216 116.077 45.6873 117.913 44.8188 119.244C43.9598 120.566 42.4588 121.227 40.3159 121.227ZM49.9307 121V100.864H46.9712V96.0781H57.8745V100.864H54.915V121H49.9307ZM65.2095 121.227C63.2176 121.227 61.693 120.627 60.6357 119.428C59.5879 118.22 59.064 116.478 59.064 114.203V102.365C59.064 100.232 59.5832 98.6128 60.6216 97.5083C61.6694 96.4038 63.1987 95.8516 65.2095 95.8516C67.2202 95.8516 68.7448 96.4038 69.7832 97.5083C70.8311 98.6128 71.355 100.232 71.355 102.365V114.203C71.355 116.478 70.8263 118.22 69.769 119.428C68.7212 120.627 67.2013 121.227 65.2095 121.227ZM65.252 116.639C66.0072 116.639 66.3848 115.907 66.3848 114.444V102.28C66.3848 101.053 66.0166 100.439 65.2803 100.439C64.4495 100.439 64.0342 101.067 64.0342 102.323V114.472C64.0342 115.246 64.1286 115.803 64.3174 116.143C64.5062 116.473 64.8177 116.639 65.252 116.639ZM73.3657 121V96.0781H81.0122C82.2866 96.0781 83.2495 96.3708 83.9009 96.9561C84.5522 97.5319 84.9865 98.3438 85.2036 99.3916C85.4302 100.43 85.5435 101.653 85.5435 103.059C85.5435 104.418 85.3688 105.504 85.0195 106.316C84.6797 107.128 84.033 107.689 83.0796 108.001C83.8631 108.161 84.4106 108.553 84.7222 109.176C85.0431 109.79 85.2036 110.588 85.2036 111.569V121H80.29V111.244C80.29 110.517 80.139 110.068 79.8369 109.898C79.5443 109.719 79.0675 109.629 78.4067 109.629V121H73.3657ZM78.4351 105.311H79.6387C80.3278 105.311 80.6724 104.56 80.6724 103.059C80.6724 102.087 80.5968 101.45 80.4458 101.147C80.2948 100.845 80.0116 100.694 79.5962 100.694H78.4351V105.311ZM87.186 121V96.0781H97.1548V100.893H92.2554V105.75H96.9565V110.437H92.2554V116.143H97.4805V121H87.186ZM111.74 121.227C109.937 121.227 108.483 120.665 107.378 119.542C106.283 118.418 105.736 116.846 105.736 114.826V103.328C105.736 100.911 106.213 99.0612 107.166 97.7773C108.129 96.4935 109.691 95.8516 111.853 95.8516C113.033 95.8516 114.081 96.0687 114.997 96.5029C115.922 96.9372 116.649 97.5885 117.177 98.457C117.706 99.3161 117.97 100.402 117.97 101.714V106.019H113.014V102.337C113.014 101.591 112.92 101.091 112.731 100.836C112.542 100.572 112.25 100.439 111.853 100.439C111.39 100.439 111.079 100.609 110.918 100.949C110.758 101.28 110.678 101.723 110.678 102.28V114.755C110.678 115.444 110.777 115.931 110.975 116.214C111.183 116.497 111.475 116.639 111.853 116.639C112.278 116.639 112.575 116.464 112.745 116.115C112.924 115.765 113.014 115.312 113.014 114.755V110.267H118.027V114.982C118.027 117.172 117.475 118.763 116.37 119.754C115.266 120.736 113.722 121.227 111.74 121.227ZM119.698 121V96.0781H124.682V116.752H129.808V121H119.698ZM137.171 121.227C135.18 121.227 133.655 120.627 132.598 119.428C131.55 118.22 131.026 116.478 131.026 114.203V102.365C131.026 100.232 131.545 98.6128 132.583 97.5083C133.631 96.4038 135.161 95.8516 137.171 95.8516C139.182 95.8516 140.707 96.4038 141.745 97.5083C142.793 98.6128 143.317 100.232 143.317 102.365V114.203C143.317 116.478 142.788 118.22 141.731 119.428C140.683 120.627 139.163 121.227 137.171 121.227ZM137.214 116.639C137.969 116.639 138.347 115.907 138.347 114.444V102.28C138.347 101.053 137.979 100.439 137.242 100.439C136.411 100.439 135.996 101.067 135.996 102.323V114.472C135.996 115.246 136.09 115.803 136.279 116.143C136.468 116.473 136.78 116.639 137.214 116.639ZM151.247 121.227C148.972 121.227 147.329 120.66 146.319 119.527C145.318 118.395 144.818 116.591 144.818 114.118V111.683H149.746V114.798C149.746 115.374 149.831 115.827 150 116.157C150.18 116.478 150.487 116.639 150.921 116.639C151.374 116.639 151.686 116.507 151.855 116.242C152.035 115.978 152.125 115.544 152.125 114.939C152.125 114.175 152.049 113.538 151.898 113.028C151.747 112.509 151.483 112.018 151.105 111.555C150.737 111.083 150.222 110.536 149.562 109.913L147.324 107.789C145.653 106.212 144.818 104.409 144.818 102.379C144.818 100.255 145.309 98.6364 146.291 97.5225C147.282 96.4085 148.712 95.8516 150.581 95.8516C152.866 95.8516 154.485 96.4604 155.438 97.6782C156.401 98.896 156.882 100.746 156.882 103.229H151.813V101.516C151.813 101.176 151.714 100.911 151.516 100.723C151.327 100.534 151.067 100.439 150.737 100.439C150.34 100.439 150.048 100.553 149.859 100.779C149.68 100.996 149.59 101.28 149.59 101.629C149.59 101.978 149.684 102.356 149.873 102.762C150.062 103.168 150.435 103.635 150.992 104.164L153.866 106.925C154.442 107.472 154.971 108.053 155.452 108.667C155.934 109.271 156.321 109.979 156.613 110.791C156.906 111.593 157.052 112.575 157.052 113.736C157.052 116.077 156.618 117.913 155.75 119.244C154.89 120.566 153.389 121.227 151.247 121.227ZM158.497 121V96.0781H163.311V121H158.497ZM165.293 121V96.0781H170.419L172.713 108.015V96.0781H177.528V121H172.657L170.165 108.539V121H165.293ZM184.877 121.227C181.318 121.227 179.539 118.678 179.539 113.58V102.833C179.539 98.1785 181.578 95.8516 185.656 95.8516C187.336 95.8516 188.625 96.1914 189.521 96.8711C190.418 97.5413 191.037 98.5231 191.376 99.8164C191.716 101.11 191.886 102.686 191.886 104.546H187.015V102.337C187.015 101.799 186.94 101.35 186.789 100.992C186.647 100.624 186.345 100.439 185.882 100.439C185.306 100.439 184.924 100.633 184.735 101.02C184.556 101.407 184.466 101.832 184.466 102.294V114.373C184.466 115.043 184.551 115.591 184.721 116.016C184.901 116.431 185.245 116.639 185.755 116.639C186.284 116.639 186.633 116.431 186.803 116.016C186.982 115.591 187.072 115.034 187.072 114.345V110.791H185.741V106.486H191.83V121H189.833L188.983 118.904C188.115 120.452 186.746 121.227 184.877 121.227Z" fill="white"/>
<path d="M74.6492 130.4V123.525H77.3992V124.854H76.0477V126.193H77.3445V127.486H76.0477V129.061H77.4891V130.4H74.6492ZM79.3789 130.4L78.5313 123.521H79.8398L80.3438 128.201L80.793 123.521H82.1016L81.2539 130.4H79.3789ZM83.3039 130.4V123.525H86.0539V124.854H84.7023V126.193H85.9992V127.486H84.7023V129.061H86.1438V130.4H83.3039ZM87.4008 130.4V123.525H89.5102C89.8617 123.525 90.1273 123.606 90.307 123.768C90.4867 123.926 90.6065 124.15 90.6664 124.439C90.7289 124.726 90.7602 125.063 90.7602 125.451C90.7602 125.826 90.712 126.126 90.6156 126.35C90.5219 126.574 90.3435 126.729 90.0805 126.814C90.2966 126.859 90.4477 126.967 90.5336 127.139C90.6221 127.308 90.6664 127.528 90.6664 127.799V130.4H89.3109V127.709C89.3109 127.508 89.2693 127.385 89.1859 127.338C89.1052 127.288 88.9737 127.264 88.7914 127.264V130.4H87.4008ZM88.7992 126.072H89.1313C89.3214 126.072 89.4164 125.865 89.4164 125.451C89.4164 125.183 89.3956 125.007 89.3539 124.924C89.3122 124.84 89.2341 124.799 89.1195 124.799H88.7992V126.072ZM92.8453 130.4V128.139L91.7477 123.525H93.1109L93.4938 125.854L93.8766 123.525H95.2359L94.1422 128.139V130.4H92.8453ZM96.9734 130.4V124.846H96.157V123.525H99.1648V124.846H98.3484V130.4H96.9734ZM100.348 130.4V123.525H101.715V125.982H102.363V123.525H103.73V130.4H102.363V127.283H101.715V130.4H100.348ZM105.077 130.4V123.525H106.405V130.4H105.077ZM107.752 130.4V123.525H109.166L109.799 126.818V123.525H111.127V130.4H109.784L109.096 126.963V130.4H107.752ZM113.955 130.463C112.973 130.463 112.482 129.76 112.482 128.354V125.389C112.482 124.105 113.045 123.463 114.17 123.463C114.633 123.463 114.989 123.557 115.236 123.744C115.483 123.929 115.654 124.2 115.748 124.557C115.841 124.913 115.888 125.348 115.888 125.861H114.545V125.252C114.545 125.104 114.524 124.98 114.482 124.881C114.443 124.779 114.36 124.729 114.232 124.729C114.073 124.729 113.968 124.782 113.916 124.889C113.866 124.995 113.841 125.113 113.841 125.24V128.572C113.841 128.757 113.865 128.908 113.912 129.025C113.961 129.14 114.056 129.197 114.197 129.197C114.343 129.197 114.439 129.14 114.486 129.025C114.535 128.908 114.56 128.755 114.56 128.564V127.584H114.193V126.396H115.873V130.4H115.322L115.088 129.822C114.848 130.249 114.47 130.463 113.955 130.463ZM119.895 130.4V123.525H121.988L122.566 127.717L123.141 123.525H125.254V130.4H123.996V125.447L123.207 130.4H121.973L121.137 125.447V130.4H119.895ZM128.253 130.463C127.68 130.463 127.258 130.303 126.987 129.982C126.717 129.66 126.581 129.186 126.581 128.561V123.525H127.917V128.506C127.917 128.62 127.924 128.731 127.937 128.838C127.95 128.942 127.98 129.028 128.027 129.096C128.073 129.163 128.149 129.197 128.253 129.197C128.36 129.197 128.437 129.165 128.484 129.1C128.53 129.032 128.559 128.945 128.57 128.838C128.583 128.731 128.589 128.62 128.589 128.506V123.525H129.925V128.561C129.925 129.186 129.79 129.66 129.519 129.982C129.248 130.303 128.826 130.463 128.253 130.463ZM132.885 130.463C132.258 130.463 131.804 130.307 131.526 129.994C131.25 129.682 131.112 129.184 131.112 128.502V127.83H132.471V128.689C132.471 128.848 132.495 128.973 132.541 129.064C132.591 129.153 132.676 129.197 132.795 129.197C132.92 129.197 133.006 129.161 133.053 129.088C133.103 129.015 133.127 128.895 133.127 128.729C133.127 128.518 133.107 128.342 133.065 128.201C133.023 128.058 132.95 127.923 132.846 127.795C132.745 127.665 132.603 127.514 132.42 127.342L131.803 126.756C131.342 126.321 131.112 125.824 131.112 125.264C131.112 124.678 131.247 124.231 131.518 123.924C131.791 123.617 132.186 123.463 132.702 123.463C133.332 123.463 133.778 123.631 134.041 123.967C134.307 124.303 134.44 124.813 134.44 125.498H133.041V125.025C133.041 124.932 133.014 124.859 132.959 124.807C132.907 124.755 132.836 124.729 132.745 124.729C132.635 124.729 132.554 124.76 132.502 124.822C132.453 124.882 132.428 124.96 132.428 125.057C132.428 125.153 132.454 125.257 132.506 125.369C132.558 125.481 132.661 125.61 132.815 125.756L133.608 126.518C133.767 126.669 133.913 126.829 134.045 126.998C134.178 127.165 134.285 127.36 134.366 127.584C134.446 127.805 134.487 128.076 134.487 128.396C134.487 129.042 134.367 129.549 134.127 129.916C133.89 130.281 133.476 130.463 132.885 130.463ZM136.338 130.4V124.846H135.521V123.525H138.529V124.846H137.713V130.4H136.338ZM143.805 130.463C142.823 130.463 142.332 129.76 142.332 128.354V125.389C142.332 124.105 142.895 123.463 144.02 123.463C144.483 123.463 144.839 123.557 145.086 123.744C145.333 123.929 145.504 124.2 145.598 124.557C145.691 124.913 145.738 125.348 145.738 125.861H144.395V125.252C144.395 125.104 144.374 124.98 144.332 124.881C144.293 124.779 144.21 124.729 144.082 124.729C143.923 124.729 143.818 124.782 143.766 124.889C143.716 124.995 143.691 125.113 143.691 125.24V128.572C143.691 128.757 143.715 128.908 143.762 129.025C143.811 129.14 143.906 129.197 144.047 129.197C144.193 129.197 144.289 129.14 144.336 129.025C144.385 128.908 144.41 128.755 144.41 128.564V127.584H144.043V126.396H145.723V130.4H145.172L144.938 129.822C144.698 130.249 144.32 130.463 143.805 130.463ZM148.71 130.463C148.161 130.463 147.74 130.298 147.448 129.967C147.159 129.633 147.015 129.153 147.015 128.525V125.26C147.015 124.671 147.158 124.225 147.445 123.92C147.734 123.615 148.155 123.463 148.71 123.463C149.265 123.463 149.685 123.615 149.972 123.92C150.261 124.225 150.405 124.671 150.405 125.26V128.525C150.405 129.153 150.26 129.633 149.968 129.967C149.679 130.298 149.26 130.463 148.71 130.463ZM148.722 129.197C148.93 129.197 149.034 128.995 149.034 128.592V125.236C149.034 124.898 148.933 124.729 148.73 124.729C148.501 124.729 148.386 124.902 148.386 125.248V128.6C148.386 128.813 148.412 128.967 148.464 129.061C148.516 129.152 148.602 129.197 148.722 129.197Z" fill="black"/>
<circle cx="30.2002" cy="91.2998" r="0.8" stroke="#908E8E" stroke-width="0.4"/>
<path d="M15.5657 77.9803L30.0002 90.9998" stroke="#BDBDBD" stroke-width="0.8" stroke-linecap="round"/>
<circle cx="1" cy="1" r="0.8" transform="matrix(-1 0 0 1 196.8 89.2998)" stroke="#908E8E" stroke-width="0.4"/>
<path d="M210.434 76.9803L196 89.9998" stroke="#BDBDBD" stroke-width="0.8" stroke-linecap="round"/>
<circle cx="30.1781" cy="132.602" r="0.8" transform="rotate(-82.6329 30.1781 132.602)" stroke="#908E8E" stroke-width="0.4"/>
<path d="M15 145L30 133" stroke="#BDBDBD" stroke-width="0.8" stroke-linecap="round"/>
<circle cx="1" cy="1" r="0.8" transform="matrix(-0.0373083 -0.999304 -0.999304 0.0373083 196.802 133.277)" stroke="#908E8E" stroke-width="0.4"/>
<path d="M215 145L195.781 132.539" stroke="#BDBDBD" stroke-width="0.8" stroke-linecap="round"/>
<path d="M157.5 64H148.5L144 78H156.5L157.5 64Z" fill="#002642"/>
<path d="M156.5 78H144V83H156.5V78Z" fill="#002642"/>
<path d="M144 83C144 85.7614 146.914 88 149.969 88C153.023 88 156.5 85.7614 156.5 83C156.5 80.2386 153.555 78 150.5 78C147.445 78 144 80.2386 144 83Z" fill="#002642"/>
<path d="M167.5 64H157.5L156.5 78H168.5L167.5 64Z" fill="white"/>
<path d="M168.5 78H156.5V83H168.5V78Z" fill="white"/>
<path d="M156.5 83C156.5 85.7614 159.414 88 162.469 88C165.523 88 168.5 85.7614 168.5 83C168.5 80.2386 165.523 78 162.469 78C159.414 78 156.5 80.2386 156.5 83Z" fill="white"/>
<path d="M177.5 64H167.5L168.5 78H180L177.5 64Z" fill="#FFC200"/>
<path d="M180 78H168.5V83H180V78Z" fill="#FFC200"/>
<path d="M168.5 83C168.5 85.7614 171.414 88 174.469 88C177.523 88 180 85.7614 180 83C180 80.2386 177.523 78 174.469 78C171.414 78 168.5 80.2386 168.5 83Z" fill="#FFC200"/>
<path d="M187 64H177.5L180 78H191L187 64Z" fill="white"/>
<path d="M191 78H180V83H191V78Z" fill="white"/>
<path d="M180 83C180 85.7614 182.414 88 185.469 88C188.523 88 191 85.7614 191 83C191 80.2386 188.523 78 185.469 78C182.414 78 180 80.2386 180 83Z" fill="white"/>
<path d="M196.5 64H187L191 78H201.5L196.5 64Z" fill="#B31E3C"/>
<path d="M201.5 78H191V83H201.5V78Z" fill="#B31E3C"/>
<path d="M191 83C191 85.7614 193.304 88 196.22 88C199.136 88 201.5 85.7614 201.5 83C201.5 80.2386 199.136 78 196.22 78C193.304 78 191 80.2386 191 83Z" fill="#B31E3C"/>
<path d="M206 64H196.5L201.5 78H212.5L206 64Z" fill="white"/>
<path d="M212.5 78H201.5V83H212.5V78Z" fill="white"/>
<path d="M201.5 83C201.5 85.7614 203.804 88 206.72 88C209.636 88 212.5 85.7614 212.5 83C212.5 80.2386 209.636 78 206.72 78C203.804 78 201.5 80.2386 201.5 83Z" fill="white"/>
<path d="M215.5 64H206L212.5 78H225L215.5 64Z" fill="#084830"/>
<path d="M225 78H212.5V83H225V78Z" fill="#084830"/>
<path d="M212.5 83C212.5 85.7614 215.686 88 219 88C222.314 88 225 85.7614 225 83C225 80.2386 222.314 78 219 78C215.686 78 212.5 80.2386 212.5 83Z" fill="#084830"/>
<path d="M71.5 64H80.5L85 78H72.5L71.5 64Z" fill="#002642"/>
<path d="M72.5 78H85V83H72.5V78Z" fill="#002642"/>
<path d="M85 83C85 85.7614 82.0864 88 79.0314 88C75.9765 88 72.5 85.7614 72.5 83C72.5 80.2386 75.4451 78 78.5 78C81.5549 78 85 80.2386 85 83Z" fill="#002642"/>
<path d="M61.5 64H71.5L72.5 78H60.5L61.5 64Z" fill="white"/>
<path d="M60.5 78H72.5V83H60.5V78Z" fill="white"/>
<path d="M72.5 83C72.5 85.7614 69.5864 88 66.5314 88C63.4765 88 60.5 85.7614 60.5 83C60.5 80.2386 63.4765 78 66.5314 78C69.5864 78 72.5 80.2386 72.5 83Z" fill="white"/>
<path d="M51.5 64H61.5L60.5 78H49L51.5 64Z" fill="#FFC200"/>
<path d="M49 78H60.5V83H49V78Z" fill="#FFC200"/>
<path d="M60.5 83C60.5 85.7614 57.5864 88 54.5314 88C51.4765 88 49 85.7614 49 83C49 80.2386 51.4765 78 54.5314 78C57.5864 78 60.5 80.2386 60.5 83Z" fill="#FFC200"/>
<path d="M42 64H51.5L49 78H38L42 64Z" fill="white"/>
<path d="M38 78H49V83H38V78Z" fill="white"/>
<path d="M49 83C49 85.7614 46.5864 88 43.5314 88C40.4765 88 38 85.7614 38 83C38 80.2386 40.4765 78 43.5314 78C46.5864 78 49 80.2386 49 83Z" fill="white"/>
<path d="M32.5 64H42L38 78H27.5L32.5 64Z" fill="#B31E3C"/>
<path d="M27.5 78H38V83H27.5V78Z" fill="#B31E3C"/>
<path d="M38 83C38 85.7614 35.6961 88 32.78 88C29.8639 88 27.5 85.7614 27.5 83C27.5 80.2386 29.8639 78 32.78 78C35.6961 78 38 80.2386 38 83Z" fill="#B31E3C"/>
<path d="M23 64H32.5L27.5 78H16.5L23 64Z" fill="white"/>
<path d="M16.5 78H27.5V83H16.5V78Z" fill="white"/>
<path d="M27.5 83C27.5 85.7614 25.1961 88 22.28 88C19.3639 88 16.5 85.7614 16.5 83C16.5 80.2386 19.3639 78 22.28 78C25.1961 78 27.5 80.2386 27.5 83Z" fill="white"/>
<path d="M13.5 64H23L16.5 78H4L13.5 64Z" fill="#084830"/>
<path d="M4 78H16.5V83H4V78Z" fill="#084830"/>
<path d="M16.5 83C16.5 85.7614 13.3137 88 10 88C6.68629 88 4 85.7614 4 83C4 80.2386 6.68629 78 10 78C13.3137 78 16.5 80.2386 16.5 83Z" fill="#084830"/>
<rect x="205" y="18" width="71" height="6" rx="2" fill="#D9EAF5"/>
<rect x="198" y="13" width="71" height="6" rx="2" fill="#D9EAF5"/>
<rect x="191" y="10" width="71" height="6" rx="2" fill="#D9EAF5"/>
<rect x="-16" y="9" width="71" height="6" rx="2" fill="#D9EAF5"/>
<rect x="-23" y="4" width="71" height="6" rx="2" fill="#D9EAF5"/>
</g>
<defs>
<clipPath id="clip0_509_1456">
<rect width="229" height="150" fill="white"/>
</clipPath>
</defs>
</svg>
